<?xml version="1.0" standalone="no"?>
<!DOCTYPE svg PUBLIC "-//W3C//DTD SVG 1.1//EN" "http://www.w3.org/Graphics/SVG/1.1/DTD/svg11.dtd" >
<svg>
<metadata>
Created by FontForge 20120731 at Thu May 13 15:30:31 2021
 By fw_worker
Copyright (c) 2014 by AbdoFonts. All rights reserved.
</metadata>
<defs>
<font id="AbdoMaster-ExtraLight" horiz-adv-x="0" >
  <font-face 
    font-family="Abdo"
    font-weight="400"
    font-stretch="normal"
    units-per-em="700"
    panose-1="2 0 5 0 3 0 0 2 0 4"
    ascent="531"
    descent="-169"
    x-height="365"
    cap-height="505"
    bbox="-186 -513 1475 789"
    underline-thickness="55"
    underline-position="-46"
    unicode-range="U+0020-FEFA"
  />
<missing-glyph horiz-adv-x="592" 
d="M108 365h-21v-47h-37v146h95v-146h-37v47zM490 -40h-37v87h-21v-87h-37v87h-21v-87h-37v106h153v-106zM165 464h37v-40h58v-106h-95v146zM375 318h-95v106h58v40h37v-146zM490 318h-95v106h95v-106zM235 117h-95v106h95v-106zM317 -40h-95v106h95v-106zM350 117h-37v87
h-21v-87h-37v106h95v-106zM107 66h95v-34h-37v15h-21v-68h21v15h37v-34h-95v106zM484 204v-24h58v-63h-95v19h58v25h-58v62h95v-19h-58zM87 164v-47h-37v146h75v-19h-38v-61h38v-19h-38zM407 204v-87h-37v146h37v-40h25v-19h-25zM317 337h21v68h-21v-68zM177 136h21v68h-21
v-68zM202 337h21v68h-21v-68zM259 -21h21v68h-21v-68zM432 337h21v68h-21v-68zM87 384h21v61h-21v-61zM87 -40h-37v29h37v-29z" />
    <glyph glyph-name="hmzyehf" unicode="&#xfe8c;&#xfef2;" horiz-adv-x="825" arabic-form="final" 
d="M216 -237.898c6.66699 7.19922 14 13.7998 22 19.8008l49 -45.002l-21 -18.9004zM357 -218.098l49 -45.002l-21 -18.9004l-50 44.1016zM611 421v-21.001h-103v21h33c-9.33301 7.33496 -16.833 15.668 -22.5 25c-5.66699 9.33496 -8.5 18.668 -8.5 28
c0 14.667 4.5 25.667 13.5 33s20.833 11 35.5 11c6.6709 0 14.3379 -1.16699 23 -3.5c8.66699 -2.33301 16 -5.16602 22 -8.49902l-9 -18c-5.33301 2.66699 -11.333 5 -18 7s-12.667 3 -18 3c-18.667 0 -28 -8 -28 -24c0 -9.33301 5 -19.5 15 -30.5s22 -18.5 36 -22.5h29z
M515 74.999c8 0 15.0039 -3.00098 21.0039 -9.00098s9 -13 9 -21v-40c0 -22.667 -4.33301 -44 -13 -64s-20.5 -37.5 -35.5 -52.5s-32.5 -26.833 -52.5 -35.5s-41.333 -13 -64 -13h-130c-22.667 0 -44 4.33301 -64 13s-37.5 20.5 -52.5 35.5s-26.833 32.5 -35.5 52.5
s-13 41.333 -13 64v120h30v-120c0 -18.667 3.5 -36.167 10.5 -52.5s16.667 -30.666 29 -42.999s26.666 -22 42.999 -29s33.833 -10.5 52.5 -10.5h130c18 0 35.167 3.5 51.5 10.5c16.334 7 30.667 16.667 42.999 29c12.335 12.333 22.168 26.666 29.499 42.999
c7.33301 16.333 11 33.833 11 52.5v40h-140c-8.66797 0 -15.835 2.83301 -21.5 8.5c-5.66699 5.66699 -8.5 12.834 -8.5 21.501v25c0 24 4.66699 46.667 14 68s21.833 39.833 37.5 55.5s34.167 28.167 55.5 37.5s44 14 68 14h156
c9.33301 -41.333 18.666 -82.333 27.999 -123l28 -122h93v-30h-118l-54 245h-133c-20 0 -38.833 -3.83301 -56.5 -11.5s-33 -18 -46 -31s-23.333 -28.333 -31 -46s-11.5 -36.5 -11.5 -56.5v-25h140z" />
    <glyph glyph-name="hmzmaksuraf" unicode="&#xfe8c;&#xfef0;" horiz-adv-x="825" arabic-form="final" 
d="M611 421v-21.001h-103v21h33c-9.33301 7.33496 -16.833 15.668 -22.5 25c-5.66699 9.33496 -8.5 18.668 -8.5 28c0 14.667 4.5 25.667 13.5 33s20.833 11 35.5 11c6.6709 0 14.3379 -1.16699 23 -3.5c8.66699 -2.33301 16 -5.16602 22 -8.49902l-9 -18
c-5.33301 2.66699 -11.333 5 -18 7s-12.667 3 -18 3c-18.667 0 -28 -8 -28 -24c0 -9.33301 5 -19.5 15 -30.5s22 -18.5 36 -22.5h29zM515 74.999c8 0 15.0039 -3.00098 21.0039 -9.00098s9 -13 9 -21v-40c0 -22.667 -4.33301 -44 -13 -64s-20.5 -37.5 -35.5 -52.5
s-32.5 -26.833 -52.5 -35.5s-41.333 -13 -64 -13h-130c-22.667 0 -44 4.33301 -64 13s-37.5 20.5 -52.5 35.5s-26.833 32.5 -35.5 52.5s-13 41.333 -13 64v120h30v-120c0 -18.667 3.5 -36.167 10.5 -52.5s16.667 -30.666 29 -42.999s26.666 -22 42.999 -29
s33.833 -10.5 52.5 -10.5h130c18 0 35.167 3.5 51.5 10.5c16.334 7 30.667 16.667 42.999 29c12.335 12.333 22.168 26.666 29.499 42.999c7.33301 16.333 11 33.833 11 52.5v40h-140c-8.66797 0 -15.835 2.83301 -21.5 8.5c-5.66699 5.66699 -8.5 12.834 -8.5 21.501v25
c0 24 4.66699 46.667 14 68s21.833 39.833 37.5 55.5s34.167 28.167 55.5 37.5s44 14 68 14h156c9.33301 -41.333 18.666 -82.333 27.999 -123l28 -122h93v-30h-118l-54 245h-133c-20 0 -38.833 -3.83301 -56.5 -11.5s-33 -18 -46 -31s-23.333 -28.333 -31 -46
s-11.5 -36.5 -11.5 -56.5v-25h140z" />
    <glyph glyph-name="tehmaksuraf" unicode="&#xfe98;&#xfef0;" horiz-adv-x="825" arabic-form="final" 
d="M466 459c6.66699 8 14 15.333 22 22l49 -50l-21 -21zM607 481l49 -50l-21 -21l-50 49zM515 75c8 0 15.0039 -3.00098 21.0039 -9.00098s9 -13 9 -21v-40c0 -22.667 -4.33301 -44 -13 -64s-20.5 -37.5 -35.5 -52.5s-32.5 -26.833 -52.5 -35.5s-41.333 -13 -64 -13h-130
c-22.667 0 -44 4.33301 -64 13s-37.5 20.5 -52.5 35.5s-26.833 32.5 -35.5 52.5s-13 41.333 -13 64v120h30v-120c0 -18.667 3.5 -36.167 10.5 -52.5s16.667 -30.666 29 -42.999s26.666 -22 42.999 -29s33.833 -10.5 52.5 -10.5h130c18 0 35.167 3.5 51.5 10.5
c16.334 7 30.667 16.667 42.999 29c12.335 12.333 22.168 26.666 29.499 42.999c7.33301 16.333 11 33.833 11 52.5v40h-140c-8.66797 0 -15.835 2.83301 -21.5 8.5c-5.66699 5.66699 -8.5 12.834 -8.5 21.501v25c0 24 4.66699 46.667 14 68s21.833 39.833 37.5 55.5
s34.167 28.167 55.5 37.5s44 14 68 14h156c9.33301 -41.333 18.666 -82.333 27.999 -123l28 -122h93v-30h-118l-54 245h-133c-20 0 -38.833 -3.83301 -56.5 -11.5s-33 -18 -46 -31s-23.333 -28.333 -31 -46s-11.5 -36.5 -11.5 -56.5v-25h140z" />
    <glyph glyph-name="tehyehf" unicode="&#xfe98;&#xfef2;" horiz-adv-x="825" arabic-form="final" 
d="M466 459c6.66699 8 14 15.333 22 22l49 -50l-21 -21zM607 481l49 -50l-21 -21l-50 49zM216 -237.898c6.66699 7.19922 14 13.7998 22 19.8008l49 -45.002l-21 -18.9004zM357 -218.098l49 -45.002l-21 -18.9004l-50 44.1016zM515 75
c8 0 15.0039 -3.00098 21.0039 -9.00098s9 -13 9 -21v-40c0 -22.667 -4.33301 -44 -13 -64s-20.5 -37.5 -35.5 -52.5s-32.5 -26.833 -52.5 -35.5s-41.333 -13 -64 -13h-130c-22.667 0 -44 4.33301 -64 13s-37.5 20.5 -52.5 35.5s-26.833 32.5 -35.5 52.5s-13 41.333 -13 64
v120h30v-120c0 -18.667 3.5 -36.167 10.5 -52.5s16.667 -30.666 29 -42.999s26.666 -22 42.999 -29s33.833 -10.5 52.5 -10.5h130c18 0 35.167 3.5 51.5 10.5c16.334 7 30.667 16.667 42.999 29c12.335 12.333 22.168 26.666 29.499 42.999
c7.33301 16.333 11 33.833 11 52.5v40h-140c-8.66797 0 -15.835 2.83301 -21.5 8.5c-5.66699 5.66699 -8.5 12.834 -8.5 21.501v25c0 24 4.66699 46.667 14 68s21.833 39.833 37.5 55.5s34.167 28.167 55.5 37.5s44 14 68 14h156
c9.33301 -41.333 18.666 -82.333 27.999 -123l28 -122h93v-30h-118l-54 245h-133c-20 0 -38.833 -3.83301 -56.5 -11.5s-33 -18 -46 -31s-23.333 -28.333 -31 -46s-11.5 -36.5 -11.5 -56.5v-25h140z" />
    <glyph glyph-name="thehmaksuraf" unicode="&#xfe9c;&#xfef0;" horiz-adv-x="825" arabic-form="final" 
d="M466 439c6.66699 8 14 15.333 22 22l49 -50l-21 -21zM607 461l49 -50l-21 -21l-50 49zM521 539c6.66699 8 14 15.333 22 22l48 -50l-21 -21c-8 8 -16 16.167 -24 24.5s-16.333 16.5 -25 24.5zM515 75c8 0 15.0039 -3.00098 21.0039 -9.00098s9 -13 9 -21v-40
c0 -22.667 -4.33301 -44 -13 -64s-20.5 -37.5 -35.5 -52.5s-32.5 -26.833 -52.5 -35.5s-41.333 -13 -64 -13h-130c-22.667 0 -44 4.33301 -64 13s-37.5 20.5 -52.5 35.5s-26.833 32.5 -35.5 52.5s-13 41.333 -13 64v120h30v-120c0 -18.667 3.5 -36.167 10.5 -52.5
s16.667 -30.666 29 -42.999s26.666 -22 42.999 -29s33.833 -10.5 52.5 -10.5h130c18 0 35.167 3.5 51.5 10.5c16.334 7 30.667 16.667 42.999 29c12.335 12.333 22.168 26.666 29.499 42.999c7.33301 16.333 11 33.833 11 52.5v40h-140
c-8.66797 0 -15.835 2.83301 -21.5 8.5c-5.66699 5.66699 -8.5 12.834 -8.5 21.501v25c0 24 4.66699 46.667 14 68s21.833 39.833 37.5 55.5s34.167 28.167 55.5 37.5s44 14 68 14h156c9.33301 -41.333 18.666 -82.333 27.999 -123l28 -122h93v-30h-118l-54 245h-133
c-20 0 -38.833 -3.83301 -56.5 -11.5s-33 -18 -46 -31s-23.333 -28.333 -31 -46s-11.5 -36.5 -11.5 -56.5v-25h140z" />
    <glyph glyph-name="thehyehf" unicode="&#xfe9c;&#xfef2;" horiz-adv-x="825" arabic-form="final" 
d="M216 -237.898c6.66699 7.19922 14 13.7998 22 19.8008l49 -45.002l-21 -18.9004zM357 -218.098l49 -45.002l-21 -18.9004l-50 44.1016zM466 439c6.66699 8 14 15.333 22 22l49 -50l-21 -21zM607 461l49 -50l-21 -21l-50 49zM521 539c6.66699 8 14 15.333 22 22l48 -50
l-21 -21c-8 8 -16 16.167 -24 24.5s-16.333 16.5 -25 24.5zM515 75c8 0 15.0039 -3.00098 21.0039 -9.00098s9 -13 9 -21v-40c0 -22.667 -4.33301 -44 -13 -64s-20.5 -37.5 -35.5 -52.5s-32.5 -26.833 -52.5 -35.5s-41.333 -13 -64 -13h-130c-22.667 0 -44 4.33301 -64 13
s-37.5 20.5 -52.5 35.5s-26.833 32.5 -35.5 52.5s-13 41.333 -13 64v120h30v-120c0 -18.667 3.5 -36.167 10.5 -52.5s16.667 -30.666 29 -42.999s26.666 -22 42.999 -29s33.833 -10.5 52.5 -10.5h130c18 0 35.167 3.5 51.5 10.5c16.334 7 30.667 16.667 42.999 29
c12.335 12.333 22.168 26.666 29.499 42.999c7.33301 16.333 11 33.833 11 52.5v40h-140c-8.66797 0 -15.835 2.83301 -21.5 8.5c-5.66699 5.66699 -8.5 12.834 -8.5 21.501v25c0 24 4.66699 46.667 14 68s21.833 39.833 37.5 55.5s34.167 28.167 55.5 37.5s44 14 68 14h156
c9.33301 -41.333 18.666 -82.333 27.999 -123l28 -122h93v-30h-118l-54 245h-133c-20 0 -38.833 -3.83301 -56.5 -11.5s-33 -18 -46 -31s-23.333 -28.333 -31 -46s-11.5 -36.5 -11.5 -56.5v-25h140z" />
    <glyph glyph-name="seenmaksura" unicode="&#xfeb3;&#xfef0;" horiz-adv-x="1220" arabic-form="isolated" 
d="M375 85l140.003 -0.000976562c8 0 15 -3 21 -9s9 -13 9 -21v-50c0 -22.667 -4.33301 -44 -13 -64s-20.5 -37.5 -35.5 -52.5s-32.5 -26.833 -52.5 -35.5s-41.333 -13 -64 -13h-130c-22.667 0 -44 4.33301 -64 13s-37.5 20.5 -52.5 35.5s-26.833 32.5 -35.5 52.5
s-13 41.333 -13 64v120h30v-120c0 -18.667 3.5 -36.167 10.5 -52.5s16.667 -30.666 29 -42.999s26.666 -22 42.999 -29s33.833 -10.5 52.5 -10.5h130c18 0 35.167 3.5 51.5 10.5c16.334 7 30.667 16.667 42.999 29c12.335 12.333 22.168 26.666 29.499 42.999
c7.33301 16.333 11 33.833 11 52.5v50h-140c-8.66797 0 -15.835 2.83301 -21.5 8.5c-5.66699 5.66699 -8.5 12.834 -8.5 21.501v25c0 24 4.66699 46.667 14 68s21.833 39.833 37.5 55.5s34.167 28.167 55.5 37.5s44 14 68 14h195v-220c0 -10 3.33301 -18.333 10 -25
s15 -10 25 -10h145v265h30v-265h145c9.33301 0 17.5 3.33301 24.5 10s10.5 15 10.5 25v230h30v-230c0 -18.667 -6.5 -34.167 -19.5 -46.5s-28.167 -18.5 -45.5 -18.5h-320c-17.333 0 -32.5 6.16699 -45.5 18.5s-19.5 27.833 -19.5 46.5v190h-165
c-20 0 -38.833 -3.83301 -56.5 -11.5s-33 -18 -46 -31s-23.333 -28.333 -31 -46s-11.5 -36.5 -11.5 -56.5v-25z" />
    <glyph glyph-name="seenyeh" unicode="&#xfeb3;&#xfef2;" horiz-adv-x="1220" arabic-form="isolated" 
d="M216 -227.898c6.66699 7.19922 14 13.7988 22 19.8008l49 -45.002l-21 -18.9004zM357 -208.099l49 -45.002l-21 -18.9004l-50 44.1016zM375 84.999l140.003 -0.000976562c8 0 15 -3 21 -9s9 -13 9 -21v-50c0 -22.667 -4.33301 -44 -13 -64s-20.5 -37.5 -35.5 -52.5
s-32.5 -26.833 -52.5 -35.5s-41.333 -13 -64 -13h-130c-22.667 0 -44 4.33301 -64 13s-37.5 20.5 -52.5 35.5s-26.833 32.5 -35.5 52.5s-13 41.333 -13 64v120h30v-120c0 -18.667 3.5 -36.167 10.5 -52.5s16.667 -30.666 29 -42.999s26.666 -22 42.999 -29
s33.833 -10.5 52.5 -10.5h130c18 0 35.167 3.5 51.5 10.5c16.334 7 30.667 16.667 42.999 29c12.335 12.333 22.168 26.666 29.499 42.999c7.33301 16.333 11 33.833 11 52.5v50h-140c-8.66797 0 -15.835 2.83301 -21.5 8.5c-5.66699 5.66699 -8.5 12.834 -8.5 21.501v25
c0 24 4.66699 46.667 14 68s21.833 39.833 37.5 55.5s34.167 28.167 55.5 37.5s44 14 68 14h195v-220c0 -10 3.33301 -18.333 10 -25s15 -10 25 -10h145v265h30v-265h145c9.33301 0 17.5 3.33301 24.5 10s10.5 15 10.5 25v230h30v-230c0 -18.667 -6.5 -34.167 -19.5 -46.5
s-28.167 -18.5 -45.5 -18.5h-320c-17.333 0 -32.5 6.16699 -45.5 18.5s-19.5 27.833 -19.5 46.5v190h-165c-20 0 -38.833 -3.83301 -56.5 -11.5s-33 -18 -46 -31s-23.333 -28.333 -31 -46s-11.5 -36.5 -11.5 -56.5v-25z" />
    <glyph glyph-name="sheenmaksura" unicode="&#xfeb7;&#xfef0;" horiz-adv-x="1220" arabic-form="isolated" 
d="M816 439c6.66699 8 14 15.333 22 22l49 -50l-21 -21zM957 461l49 -50l-21 -21l-50 49zM871 539c6.66699 8 14 15.333 22 22l48 -50l-21 -21c-8 8 -16 16.167 -24 24.5s-16.333 16.5 -25 24.5zM375 85l140.003 -0.000976562c8 0 15 -3 21 -9s9 -13 9 -21v-50
c0 -22.667 -4.33301 -44 -13 -64s-20.5 -37.5 -35.5 -52.5s-32.5 -26.833 -52.5 -35.5s-41.333 -13 -64 -13h-130c-22.667 0 -44 4.33301 -64 13s-37.5 20.5 -52.5 35.5s-26.833 32.5 -35.5 52.5s-13 41.333 -13 64v120h30v-120c0 -18.667 3.5 -36.167 10.5 -52.5
s16.667 -30.666 29 -42.999s26.666 -22 42.999 -29s33.833 -10.5 52.5 -10.5h130c18 0 35.167 3.5 51.5 10.5c16.334 7 30.667 16.667 42.999 29c12.335 12.333 22.168 26.666 29.499 42.999c7.33301 16.333 11 33.833 11 52.5v50h-140
c-8.66797 0 -15.835 2.83301 -21.5 8.5c-5.66699 5.66699 -8.5 12.834 -8.5 21.501v25c0 24 4.66699 46.667 14 68s21.833 39.833 37.5 55.5s34.167 28.167 55.5 37.5s44 14 68 14h195v-220c0 -10 3.33301 -18.333 10 -25s15 -10 25 -10h145v265h30v-265h145
c9.33301 0 17.5 3.33301 24.5 10s10.5 15 10.5 25v230h30v-230c0 -18.667 -6.5 -34.167 -19.5 -46.5s-28.167 -18.5 -45.5 -18.5h-320c-17.333 0 -32.5 6.16699 -45.5 18.5s-19.5 27.833 -19.5 46.5v190h-165c-20 0 -38.833 -3.83301 -56.5 -11.5s-33 -18 -46 -31
s-23.333 -28.333 -31 -46s-11.5 -36.5 -11.5 -56.5v-25z" />
    <glyph glyph-name="sheenyeh" unicode="&#xfeb7;&#xfef2;" horiz-adv-x="1220" arabic-form="isolated" 
d="M216 -227.898c6.66699 7.19922 14 13.7988 22 19.8008l49 -45.002l-21 -18.9004zM357 -208.099l49 -45.002l-21 -18.9004l-50 44.1016zM816 438.999c6.66699 8 14 15.333 22 22l49 -50l-21 -21zM957 460.999l49 -50l-21 -21l-50 49zM871 538.999
c6.66699 8 14 15.333 22 22l48 -50l-21 -21c-8 8 -16 16.167 -24 24.5s-16.333 16.5 -25 24.5zM375 84.999l140.003 -0.000976562c8 0 15 -3 21 -9s9 -13 9 -21v-50c0 -22.667 -4.33301 -44 -13 -64s-20.5 -37.5 -35.5 -52.5s-32.5 -26.833 -52.5 -35.5s-41.333 -13 -64 -13
h-130c-22.667 0 -44 4.33301 -64 13s-37.5 20.5 -52.5 35.5s-26.833 32.5 -35.5 52.5s-13 41.333 -13 64v120h30v-120c0 -18.667 3.5 -36.167 10.5 -52.5s16.667 -30.666 29 -42.999s26.666 -22 42.999 -29s33.833 -10.5 52.5 -10.5h130c18 0 35.167 3.5 51.5 10.5
c16.334 7 30.667 16.667 42.999 29c12.335 12.333 22.168 26.666 29.499 42.999c7.33301 16.333 11 33.833 11 52.5v50h-140c-8.66797 0 -15.835 2.83301 -21.5 8.5c-5.66699 5.66699 -8.5 12.834 -8.5 21.501v25c0 24 4.66699 46.667 14 68s21.833 39.833 37.5 55.5
s34.167 28.167 55.5 37.5s44 14 68 14h195v-220c0 -10 3.33301 -18.333 10 -25s15 -10 25 -10h145v265h30v-265h145c9.33301 0 17.5 3.33301 24.5 10s10.5 15 10.5 25v230h30v-230c0 -18.667 -6.5 -34.167 -19.5 -46.5s-28.167 -18.5 -45.5 -18.5h-320
c-17.333 0 -32.5 6.16699 -45.5 18.5s-19.5 27.833 -19.5 46.5v190h-165c-20 0 -38.833 -3.83301 -56.5 -11.5s-33 -18 -46 -31s-23.333 -28.333 -31 -46s-11.5 -36.5 -11.5 -56.5v-25z" />
    <glyph glyph-name="sadmaksura" unicode="&#xfebb;&#xfef0;" horiz-adv-x="1220" arabic-form="isolated" 
d="M1070 30c9.33301 -0.666992 17.5 2.5 24.5 9.5s10.5 15.5 10.5 25.5v115c0 12 -2.66699 23.833 -8 35.5s-12.333 21.834 -21 30.5c-8.66699 8.66699 -18.667 15.667 -30 21s-23.333 8 -36 8c-9.33301 0 -18.833 -0.833008 -28.5 -2.5s-21.167 -5.5 -34.5 -11.5
c-13.3369 -6 -29.1699 -15.167 -47.5 -27.5c-18.333 -12.334 -40.833 -29.167 -67.5 -50.5l-115 -92l14 -61h339zM545 5c0 -22.667 -4.33008 -44.002 -12.9971 -64.002s-20.5 -37.5 -35.5 -52.5s-32.5 -26.833 -52.5 -35.5s-41.333 -13 -64 -13h-130
c-22.667 0 -44 4.33301 -64 13s-37.5 20.5 -52.5 35.5s-26.833 32.5 -35.5 52.5s-13 41.333 -13 64v120h30v-120c0 -18.667 3.5 -36.167 10.5 -52.5s16.667 -30.666 29 -42.999s26.666 -22 42.999 -29s33.833 -10.5 52.5 -10.5h130c18 0 35.167 3.5 51.5 10.5
c16.334 7 30.667 16.667 42.999 29c12.335 12.333 22.168 26.666 29.499 42.999c7.33301 16.333 11 33.833 11 52.5v40h-140c-8.66797 0 -15.835 2.83301 -21.5 8.5c-5.66699 5.66699 -8.5 12.834 -8.5 21.501v25c0 24 4.66699 46.667 14 68s21.833 39.833 37.5 55.5
s34.167 28.167 55.5 37.5s44 14 68 14h157l33 -151c52 40.667 94 73 126 97s58.5 42.333 79.5 55s38.333 20.667 52 24c13.6738 3.33301 27.8408 5 42.5 5c16.667 0 32.667 -3.33301 48 -10c15.3418 -6.66699 28.6748 -15.667 40 -27
c11.333 -11.333 20.333 -24.666 27 -39.999s10 -31.333 10 -48v-115c0 -18 -6.5 -33.333 -19.5 -46s-28.167 -19 -45.5 -19h-364l-53 245h-133c-20 0 -38.833 -3.83301 -56.5 -11.5s-33 -18 -46 -31s-23.333 -28.333 -31 -46s-11.5 -36.5 -11.5 -56.5v-25h140
c8 0 15 -3 21 -9s9 -13 9 -21v-40z" />
    <glyph glyph-name="sadyeh" unicode="&#xfebb;&#xfef2;" horiz-adv-x="1220" arabic-form="isolated" 
d="M216 -226.898c6.66699 7.19922 14 13.7998 22 19.8008l49 -45.002l-21 -18.9004zM357 -207.098l49 -45.002l-21 -18.9004l-50 44.1016zM1070 30c9.33301 -0.666992 17.5 2.5 24.5 9.5s10.5 15.5 10.5 25.5v115c0 12 -2.66699 23.833 -8 35.5s-12.333 21.834 -21 30.5
c-8.66699 8.66699 -18.667 15.667 -30 21s-23.333 8 -36 8c-9.33301 0 -18.833 -0.833008 -28.5 -2.5s-21.167 -5.5 -34.5 -11.5c-13.3369 -6 -29.1699 -15.167 -47.5 -27.5c-18.333 -12.334 -40.833 -29.167 -67.5 -50.5l-115 -92l14 -61h339zM545 5
c0 -22.667 -4.33008 -44.002 -12.9971 -64.002s-20.5 -37.5 -35.5 -52.5s-32.5 -26.833 -52.5 -35.5s-41.333 -13 -64 -13h-130c-22.667 0 -44 4.33301 -64 13s-37.5 20.5 -52.5 35.5s-26.833 32.5 -35.5 52.5s-13 41.333 -13 64v120h30v-120
c0 -18.667 3.5 -36.167 10.5 -52.5s16.667 -30.666 29 -42.999s26.666 -22 42.999 -29s33.833 -10.5 52.5 -10.5h130c18 0 35.167 3.5 51.5 10.5c16.334 7 30.667 16.667 42.999 29c12.335 12.333 22.168 26.666 29.499 42.999c7.33301 16.333 11 33.833 11 52.5v40h-140
c-8.66797 0 -15.835 2.83301 -21.5 8.5c-5.66699 5.66699 -8.5 12.834 -8.5 21.501v25c0 24 4.66699 46.667 14 68s21.833 39.833 37.5 55.5s34.167 28.167 55.5 37.5s44 14 68 14h157l33 -151c52 40.667 94 73 126 97s58.5 42.333 79.5 55s38.333 20.667 52 24
c13.6738 3.33301 27.8408 5 42.5 5c16.667 0 32.667 -3.33301 48 -10c15.3418 -6.66699 28.6748 -15.667 40 -27c11.333 -11.333 20.333 -24.666 27 -39.999s10 -31.333 10 -48v-115c0 -18 -6.5 -33.333 -19.5 -46s-28.167 -19 -45.5 -19h-364l-53 245h-133
c-20 0 -38.833 -3.83301 -56.5 -11.5s-33 -18 -46 -31s-23.333 -28.333 -31 -46s-11.5 -36.5 -11.5 -56.5v-25h140c8 0 15 -3 21 -9s9 -13 9 -21v-40z" />
    <glyph glyph-name="dadmaksura" unicode="&#xfebf;&#xfef0;" horiz-adv-x="1220" arabic-form="isolated" 
d="M846 459c6.66699 8 14 15.333 22 22l48 -50l-21 -21c-8 8 -16 16.167 -24 24.5s-16.333 16.5 -25 24.5zM1070 30c9.33301 -0.666992 17.5 2.5 24.5 9.5s10.5 15.5 10.5 25.5v115c0 12 -2.66699 23.833 -8 35.5s-12.333 21.834 -21 30.5
c-8.66699 8.66699 -18.667 15.667 -30 21s-23.333 8 -36 8c-9.33301 0 -18.833 -0.833008 -28.5 -2.5s-21.167 -5.5 -34.5 -11.5c-13.3369 -6 -29.1699 -15.167 -47.5 -27.5c-18.333 -12.334 -40.833 -29.167 -67.5 -50.5l-115 -92l14 -61h339zM545 5
c0 -22.667 -4.33008 -44.002 -12.9971 -64.002s-20.5 -37.5 -35.5 -52.5s-32.5 -26.833 -52.5 -35.5s-41.333 -13 -64 -13h-130c-22.667 0 -44 4.33301 -64 13s-37.5 20.5 -52.5 35.5s-26.833 32.5 -35.5 52.5s-13 41.333 -13 64v120h30v-120
c0 -18.667 3.5 -36.167 10.5 -52.5s16.667 -30.666 29 -42.999s26.666 -22 42.999 -29s33.833 -10.5 52.5 -10.5h130c18 0 35.167 3.5 51.5 10.5c16.334 7 30.667 16.667 42.999 29c12.335 12.333 22.168 26.666 29.499 42.999c7.33301 16.333 11 33.833 11 52.5v40h-140
c-8.66797 0 -15.835 2.83301 -21.5 8.5c-5.66699 5.66699 -8.5 12.834 -8.5 21.501v25c0 24 4.66699 46.667 14 68s21.833 39.833 37.5 55.5s34.167 28.167 55.5 37.5s44 14 68 14h157l33 -151c52 40.667 94 73 126 97s58.5 42.333 79.5 55s38.333 20.667 52 24
c13.6738 3.33301 27.8408 5 42.5 5c16.667 0 32.667 -3.33301 48 -10c15.3418 -6.66699 28.6748 -15.667 40 -27c11.333 -11.333 20.333 -24.666 27 -39.999s10 -31.333 10 -48v-115c0 -18 -6.5 -33.333 -19.5 -46s-28.167 -19 -45.5 -19h-364l-53 245h-133
c-20 0 -38.833 -3.83301 -56.5 -11.5s-33 -18 -46 -31s-23.333 -28.333 -31 -46s-11.5 -36.5 -11.5 -56.5v-25h140c8 0 15 -3 21 -9s9 -13 9 -21v-40z" />
    <glyph glyph-name="dadyeh" unicode="&#xfebf;&#xfef2;" horiz-adv-x="1220" arabic-form="isolated" 
d="M846 459c6.66699 8 14 15.333 22 22l48 -50l-21 -21c-8 8 -16 16.167 -24 24.5s-16.333 16.5 -25 24.5zM216 -227.898c6.66699 7.19922 14 13.7988 22 19.8008l49 -45.002l-21 -18.9004zM357 -208.099l49 -45.002l-21 -18.9004l-50 44.1016zM1070 29.999
c9.33301 -0.666992 17.5 2.5 24.5 9.5s10.5 15.5 10.5 25.5v115c0 12 -2.66699 23.833 -8 35.5s-12.333 21.834 -21 30.5c-8.66699 8.66699 -18.667 15.667 -30 21s-23.333 8 -36 8c-9.33301 0 -18.833 -0.833008 -28.5 -2.5s-21.167 -5.5 -34.5 -11.5
c-13.3369 -6 -29.1699 -15.167 -47.5 -27.5c-18.333 -12.334 -40.833 -29.167 -67.5 -50.5l-115 -92l14 -61h339zM545 4.99902c0 -22.667 -4.33008 -44.002 -12.9971 -64.002s-20.5 -37.5 -35.5 -52.5s-32.5 -26.833 -52.5 -35.5s-41.333 -13 -64 -13h-130
c-22.667 0 -44 4.33301 -64 13s-37.5 20.5 -52.5 35.5s-26.833 32.5 -35.5 52.5s-13 41.333 -13 64v120h30v-120c0 -18.667 3.5 -36.167 10.5 -52.5s16.667 -30.666 29 -42.999s26.666 -22 42.999 -29s33.833 -10.5 52.5 -10.5h130c18 0 35.167 3.5 51.5 10.5
c16.334 7 30.667 16.667 42.999 29c12.335 12.333 22.168 26.666 29.499 42.999c7.33301 16.333 11 33.833 11 52.5v40h-140c-8.66797 0 -15.835 2.83301 -21.5 8.5c-5.66699 5.66699 -8.5 12.834 -8.5 21.501v25c0 24 4.66699 46.667 14 68s21.833 39.833 37.5 55.5
s34.167 28.167 55.5 37.5s44 14 68 14h157l33 -151c52 40.667 94 73 126 97s58.5 42.333 79.5 55s38.333 20.667 52 24c13.6738 3.33301 27.8408 5 42.5 5c16.667 0 32.667 -3.33301 48 -10c15.3418 -6.66699 28.6748 -15.667 40 -27
c11.333 -11.333 20.333 -24.666 27 -39.999s10 -31.333 10 -48v-115c0 -18 -6.5 -33.333 -19.5 -46s-28.167 -19 -45.5 -19h-364l-53 245h-133c-20 0 -38.833 -3.83301 -56.5 -11.5s-33 -18 -46 -31s-23.333 -28.333 -31 -46s-11.5 -36.5 -11.5 -56.5v-25h140
c8 0 15 -3 21 -9s9 -13 9 -21v-40z" />
    <glyph glyph-name="seenmaksuraf" unicode="&#xfeb4;&#xfef0;" horiz-adv-x="1260" arabic-form="final" 
d="M345 110c0 24 4.66992 46.666 14.0029 67.999s21.833 39.833 37.5 55.5s34.167 28.167 55.5 37.5s44 14 68 14h195v-220c0 -10 3.33301 -18.333 10 -25s15 -10 25 -10h145v265h30v-265h180v265h30v-265h125v-30h-510c-18.667 0 -34.167 6.16699 -46.5 18.5
s-18.5 27.833 -18.5 46.5v190h-165c-20 0 -38.833 -3.83301 -56.5 -11.5s-33 -18 -46 -31s-23.333 -28.333 -31 -46s-11.5 -36.5 -11.5 -56.5v-25h140c8 0 15 -3 21 -9s9 -13 9 -21v-50c0 -22.667 -4.33301 -44 -13 -64s-20.5 -37.5 -35.5 -52.5s-32.5 -26.833 -52.5 -35.5
s-41.333 -13 -64 -13h-130c-22.667 0 -44 4.33301 -64 13s-37.5 20.5 -52.5 35.5s-26.833 32.5 -35.5 52.5s-13 41.333 -13 64v120h30v-120c0 -18.667 3.5 -36.167 10.5 -52.5s16.667 -30.666 29 -42.999s26.666 -22 42.999 -29s33.833 -10.5 52.5 -10.5h130
c18 0 35.167 3.5 51.5 10.5c16.334 7 30.667 16.667 42.999 29c12.335 12.333 22.168 26.666 29.499 42.999c7.33301 16.333 11 33.833 11 52.5v50h-140c-8.66797 0 -15.835 2.83301 -21.5 8.5c-5.66699 5.66699 -8.5 12.834 -8.5 21.501v25z" />
    <glyph glyph-name="seenyehf" unicode="&#xfeb4;&#xfef2;" horiz-adv-x="1260" arabic-form="final" 
d="M216 -227.898c6.66699 7.19922 14 13.7988 22 19.8008l49 -45.002l-21 -18.9004zM357 -208.099l49 -45.002l-21 -18.9004l-50 44.1016zM345 109.999c0 24 4.66992 46.666 14.0029 67.999s21.833 39.833 37.5 55.5s34.167 28.167 55.5 37.5s44 14 68 14h195v-220
c0 -10 3.33301 -18.333 10 -25s15 -10 25 -10h145v265h30v-265h180v265h30v-265h125v-30h-510c-18.667 0 -34.167 6.16699 -46.5 18.5s-18.5 27.833 -18.5 46.5v190h-165c-20 0 -38.833 -3.83301 -56.5 -11.5s-33 -18 -46 -31s-23.333 -28.333 -31 -46
s-11.5 -36.5 -11.5 -56.5v-25h140c8 0 15 -3 21 -9s9 -13 9 -21v-50c0 -22.667 -4.33301 -44 -13 -64s-20.5 -37.5 -35.5 -52.5s-32.5 -26.833 -52.5 -35.5s-41.333 -13 -64 -13h-130c-22.667 0 -44 4.33301 -64 13s-37.5 20.5 -52.5 35.5s-26.833 32.5 -35.5 52.5
s-13 41.333 -13 64v120h30v-120c0 -18.667 3.5 -36.167 10.5 -52.5s16.667 -30.666 29 -42.999s26.666 -22 42.999 -29s33.833 -10.5 52.5 -10.5h130c18 0 35.167 3.5 51.5 10.5c16.334 7 30.667 16.667 42.999 29c12.335 12.333 22.168 26.666 29.499 42.999
c7.33301 16.333 11 33.833 11 52.5v50h-140c-8.66797 0 -15.835 2.83301 -21.5 8.5c-5.66699 5.66699 -8.5 12.834 -8.5 21.501v25z" />
    <glyph glyph-name="sheenmaksuraf" unicode="&#xfeb8;&#xfef0;" horiz-adv-x="1260" arabic-form="final" 
d="M816 439c6.66699 8 14 15.333 22 22l49 -50l-21 -21zM957 461l49 -50l-21 -21l-50 49zM871 539c6.66699 8 14 15.333 22 22l48 -50l-21 -21c-8 8 -16 16.167 -24 24.5s-16.333 16.5 -25 24.5zM345 110c0 24 4.66992 46.666 14.0029 67.999s21.833 39.833 37.5 55.5
s34.167 28.167 55.5 37.5s44 14 68 14h195v-220c0 -10 3.33301 -18.333 10 -25s15 -10 25 -10h145v265h30v-265h180v265h30v-265h125v-30h-510c-18.667 0 -34.167 6.16699 -46.5 18.5s-18.5 27.833 -18.5 46.5v190h-165c-20 0 -38.833 -3.83301 -56.5 -11.5s-33 -18 -46 -31
s-23.333 -28.333 -31 -46s-11.5 -36.5 -11.5 -56.5v-25h140c8 0 15 -3 21 -9s9 -13 9 -21v-50c0 -22.667 -4.33301 -44 -13 -64s-20.5 -37.5 -35.5 -52.5s-32.5 -26.833 -52.5 -35.5s-41.333 -13 -64 -13h-130c-22.667 0 -44 4.33301 -64 13s-37.5 20.5 -52.5 35.5
s-26.833 32.5 -35.5 52.5s-13 41.333 -13 64v120h30v-120c0 -18.667 3.5 -36.167 10.5 -52.5s16.667 -30.666 29 -42.999s26.666 -22 42.999 -29s33.833 -10.5 52.5 -10.5h130c18 0 35.167 3.5 51.5 10.5c16.334 7 30.667 16.667 42.999 29
c12.335 12.333 22.168 26.666 29.499 42.999c7.33301 16.333 11 33.833 11 52.5v50h-140c-8.66797 0 -15.835 2.83301 -21.5 8.5c-5.66699 5.66699 -8.5 12.834 -8.5 21.501v25z" />
    <glyph glyph-name="sheenyehf" unicode="&#xfeb8;&#xfef2;" horiz-adv-x="1260" arabic-form="final" 
d="M216 -227.898c6.66699 7.19922 14 13.7988 22 19.8008l49 -45.002l-21 -18.9004zM357 -208.099l49 -45.002l-21 -18.9004l-50 44.1016zM816 438.999c6.66699 8 14 15.333 22 22l49 -50l-21 -21zM957 460.999l49 -50l-21 -21l-50 49zM871 538.999
c6.66699 8 14 15.333 22 22l48 -50l-21 -21c-8 8 -16 16.167 -24 24.5s-16.333 16.5 -25 24.5zM345 109.999c0 24 4.66992 46.666 14.0029 67.999s21.833 39.833 37.5 55.5s34.167 28.167 55.5 37.5s44 14 68 14h195v-220c0 -10 3.33301 -18.333 10 -25s15 -10 25 -10h145
v265h30v-265h180v265h30v-265h125v-30h-510c-18.667 0 -34.167 6.16699 -46.5 18.5s-18.5 27.833 -18.5 46.5v190h-165c-20 0 -38.833 -3.83301 -56.5 -11.5s-33 -18 -46 -31s-23.333 -28.333 -31 -46s-11.5 -36.5 -11.5 -56.5v-25h140c8 0 15 -3 21 -9s9 -13 9 -21v-50
c0 -22.667 -4.33301 -44 -13 -64s-20.5 -37.5 -35.5 -52.5s-32.5 -26.833 -52.5 -35.5s-41.333 -13 -64 -13h-130c-22.667 0 -44 4.33301 -64 13s-37.5 20.5 -52.5 35.5s-26.833 32.5 -35.5 52.5s-13 41.333 -13 64v120h30v-120c0 -18.667 3.5 -36.167 10.5 -52.5
s16.667 -30.666 29 -42.999s26.666 -22 42.999 -29s33.833 -10.5 52.5 -10.5h130c18 0 35.167 3.5 51.5 10.5c16.334 7 30.667 16.667 42.999 29c12.335 12.333 22.168 26.666 29.499 42.999c7.33301 16.333 11 33.833 11 52.5v50h-140
c-8.66797 0 -15.835 2.83301 -21.5 8.5c-5.66699 5.66699 -8.5 12.834 -8.5 21.501v25z" />
    <glyph glyph-name="sadmaksuraf" unicode="&#xfebc;&#xfef0;" horiz-adv-x="1220" arabic-form="final" 
d="M653 245l-132.997 -0.00195312c-20 0 -38.833 -3.83301 -56.5 -11.5s-33 -18 -46 -31s-23.333 -28.333 -31 -46s-11.5 -36.5 -11.5 -56.5v-25h140c8 0 15 -3 21 -9s9 -13 9 -21v-40c0 -22.667 -4.33301 -44 -13 -64s-20.5 -37.5 -35.5 -52.5s-32.5 -26.833 -52.5 -35.5
s-41.333 -13 -64 -13h-130c-22.667 0 -44 4.33301 -64 13s-37.5 20.5 -52.5 35.5s-26.833 32.5 -35.5 52.5s-13 41.333 -13 64v120h30v-120c0 -18.667 3.5 -36.167 10.5 -52.5s16.667 -30.666 29 -42.999s26.666 -22 42.999 -29s33.833 -10.5 52.5 -10.5h130
c18 0 35.167 3.5 51.5 10.5c16.334 7 30.667 16.667 42.999 29c12.335 12.333 22.168 26.666 29.499 42.999c7.33301 16.333 11 33.833 11 52.5v40h-140c-8.66797 0 -15.835 2.83301 -21.5 8.5c-5.66699 5.66699 -8.5 12.834 -8.5 21.501v25c0 24 4.66699 46.667 14 68
s21.833 39.833 37.5 55.5s34.167 28.167 55.5 37.5s44 14 68 14h157l33 -151c52 40.667 94 73 126 97s58.5 42.333 79.5 55s38.333 20.667 52 24c13.6738 3.33301 27.8408 5 42.5 5c16.667 0 32.667 -3.33301 48 -10c15.3418 -6.66699 28.6748 -15.667 40 -27
c11.333 -11.333 20.333 -24.666 27 -39.999s10 -31.333 10 -48v-150h85v-30h-514zM1105 29.998v150c0 12.667 -2.5 24.834 -7.5 36.5c-5 11.667 -11.667 21.834 -20 30.5c-8.33301 8.66699 -18.333 15.5 -30 20.5s-24.167 7.5 -37.5 7.5
c-9.33301 0 -18.833 -0.833008 -28.5 -2.5s-21.167 -5.5 -34.5 -11.5c-13.3369 -6 -29.1699 -15.167 -47.5 -27.5c-18.333 -12.334 -40.833 -29.167 -67.5 -50.5l-115 -92l14 -61h374z" />
    <glyph glyph-name="sadyehf" unicode="&#xfebc;&#xfef2;" horiz-adv-x="1220" arabic-form="final" 
d="M216 -226.898c6.66699 7.19922 14 13.7998 22 19.8008l49 -45.002l-21 -18.9004zM357 -207.098l49 -45.002l-21 -18.9004l-50 44.1016zM653 245l-132.997 -0.00195312c-20 0 -38.833 -3.83301 -56.5 -11.5s-33 -18 -46 -31s-23.333 -28.333 -31 -46
s-11.5 -36.5 -11.5 -56.5v-25h140c8 0 15 -3 21 -9s9 -13 9 -21v-40c0 -22.667 -4.33301 -44 -13 -64s-20.5 -37.5 -35.5 -52.5s-32.5 -26.833 -52.5 -35.5s-41.333 -13 -64 -13h-130c-22.667 0 -44 4.33301 -64 13s-37.5 20.5 -52.5 35.5s-26.833 32.5 -35.5 52.5
s-13 41.333 -13 64v120h30v-120c0 -18.667 3.5 -36.167 10.5 -52.5s16.667 -30.666 29 -42.999s26.666 -22 42.999 -29s33.833 -10.5 52.5 -10.5h130c18 0 35.167 3.5 51.5 10.5c16.334 7 30.667 16.667 42.999 29c12.335 12.333 22.168 26.666 29.499 42.999
c7.33301 16.333 11 33.833 11 52.5v40h-140c-8.66797 0 -15.835 2.83301 -21.5 8.5c-5.66699 5.66699 -8.5 12.834 -8.5 21.501v25c0 24 4.66699 46.667 14 68s21.833 39.833 37.5 55.5s34.167 28.167 55.5 37.5s44 14 68 14h157l33 -151c52 40.667 94 73 126 97
s58.5 42.333 79.5 55s38.333 20.667 52 24c13.6738 3.33301 27.8408 5 42.5 5c16.667 0 32.667 -3.33301 48 -10c15.3418 -6.66699 28.6748 -15.667 40 -27c11.333 -11.333 20.333 -24.666 27 -39.999s10 -31.333 10 -48v-150h85v-30h-514zM1105 29.998v150
c0 12.667 -2.5 24.834 -7.5 36.5c-5 11.667 -11.667 21.834 -20 30.5c-8.33301 8.66699 -18.333 15.5 -30 20.5s-24.167 7.5 -37.5 7.5c-9.33301 0 -18.833 -0.833008 -28.5 -2.5s-21.167 -5.5 -34.5 -11.5c-13.3369 -6 -29.1699 -15.167 -47.5 -27.5
c-18.333 -12.334 -40.833 -29.167 -67.5 -50.5l-115 -92l14 -61h374z" />
    <glyph glyph-name="dadmaksuraf" unicode="&#xfec0;&#xfef0;" horiz-adv-x="1220" arabic-form="final" 
d="M846 459c6.66699 8 14 15.333 22 22l48 -50l-21 -21c-8 8 -16 16.167 -24 24.5s-16.333 16.5 -25 24.5zM653 245l-132.997 -0.00195312c-20 0 -38.833 -3.83301 -56.5 -11.5s-33 -18 -46 -31s-23.333 -28.333 -31 -46s-11.5 -36.5 -11.5 -56.5v-25h140c8 0 15 -3 21 -9
s9 -13 9 -21v-40c0 -22.667 -4.33301 -44 -13 -64s-20.5 -37.5 -35.5 -52.5s-32.5 -26.833 -52.5 -35.5s-41.333 -13 -64 -13h-130c-22.667 0 -44 4.33301 -64 13s-37.5 20.5 -52.5 35.5s-26.833 32.5 -35.5 52.5s-13 41.333 -13 64v120h30v-120
c0 -18.667 3.5 -36.167 10.5 -52.5s16.667 -30.666 29 -42.999s26.666 -22 42.999 -29s33.833 -10.5 52.5 -10.5h130c18 0 35.167 3.5 51.5 10.5c16.334 7 30.667 16.667 42.999 29c12.335 12.333 22.168 26.666 29.499 42.999c7.33301 16.333 11 33.833 11 52.5v40h-140
c-8.66797 0 -15.835 2.83301 -21.5 8.5c-5.66699 5.66699 -8.5 12.834 -8.5 21.501v25c0 24 4.66699 46.667 14 68s21.833 39.833 37.5 55.5s34.167 28.167 55.5 37.5s44 14 68 14h157l33 -151c52 40.667 94 73 126 97s58.5 42.333 79.5 55s38.333 20.667 52 24
c13.6738 3.33301 27.8408 5 42.5 5c16.667 0 32.667 -3.33301 48 -10c15.3418 -6.66699 28.6748 -15.667 40 -27c11.333 -11.333 20.333 -24.666 27 -39.999s10 -31.333 10 -48v-150h85v-30h-514zM1105 29.998v150c0 12.667 -2.5 24.834 -7.5 36.5
c-5 11.667 -11.667 21.834 -20 30.5c-8.33301 8.66699 -18.333 15.5 -30 20.5s-24.167 7.5 -37.5 7.5c-9.33301 0 -18.833 -0.833008 -28.5 -2.5s-21.167 -5.5 -34.5 -11.5c-13.3369 -6 -29.1699 -15.167 -47.5 -27.5c-18.333 -12.334 -40.833 -29.167 -67.5 -50.5l-115 -92
l14 -61h374z" />
    <glyph glyph-name="dadyehf" unicode="&#xfec0;&#xfef2;" horiz-adv-x="1220" arabic-form="final" 
d="M846 459c6.66699 8 14 15.333 22 22l48 -50l-21 -21c-8 8 -16 16.167 -24 24.5s-16.333 16.5 -25 24.5zM216 -226.898c6.66699 7.19922 14 13.7998 22 19.8008l49 -45.002l-21 -18.9004zM357 -207.098l49 -45.002l-21 -18.9004l-50 44.1016zM653 245
l-132.997 -0.00195312c-20 0 -38.833 -3.83301 -56.5 -11.5s-33 -18 -46 -31s-23.333 -28.333 -31 -46s-11.5 -36.5 -11.5 -56.5v-25h140c8 0 15 -3 21 -9s9 -13 9 -21v-40c0 -22.667 -4.33301 -44 -13 -64s-20.5 -37.5 -35.5 -52.5s-32.5 -26.833 -52.5 -35.5
s-41.333 -13 -64 -13h-130c-22.667 0 -44 4.33301 -64 13s-37.5 20.5 -52.5 35.5s-26.833 32.5 -35.5 52.5s-13 41.333 -13 64v120h30v-120c0 -18.667 3.5 -36.167 10.5 -52.5s16.667 -30.666 29 -42.999s26.666 -22 42.999 -29s33.833 -10.5 52.5 -10.5h130
c18 0 35.167 3.5 51.5 10.5c16.334 7 30.667 16.667 42.999 29c12.335 12.333 22.168 26.666 29.499 42.999c7.33301 16.333 11 33.833 11 52.5v40h-140c-8.66797 0 -15.835 2.83301 -21.5 8.5c-5.66699 5.66699 -8.5 12.834 -8.5 21.501v25c0 24 4.66699 46.667 14 68
s21.833 39.833 37.5 55.5s34.167 28.167 55.5 37.5s44 14 68 14h157l33 -151c52 40.667 94 73 126 97s58.5 42.333 79.5 55s38.333 20.667 52 24c13.6738 3.33301 27.8408 5 42.5 5c16.667 0 32.667 -3.33301 48 -10c15.3418 -6.66699 28.6748 -15.667 40 -27
c11.333 -11.333 20.333 -24.666 27 -39.999s10 -31.333 10 -48v-150h85v-30h-514zM1105 29.998v150c0 12.667 -2.5 24.834 -7.5 36.5c-5 11.667 -11.667 21.834 -20 30.5c-8.33301 8.66699 -18.333 15.5 -30 20.5s-24.167 7.5 -37.5 7.5
c-9.33301 0 -18.833 -0.833008 -28.5 -2.5s-21.167 -5.5 -34.5 -11.5c-13.3369 -6 -29.1699 -15.167 -47.5 -27.5c-18.333 -12.334 -40.833 -29.167 -67.5 -50.5l-115 -92l14 -61h374z" />
    <glyph glyph-name="uniFDF2" unicode="&#x627;&#xfedf;&#xfee0;&#xfeea;" horiz-adv-x="1120" arabic-form="isolated" 
d="M1025 525v-525h-30v525h30zM785 505h30v-505h-665c-24.667 -0 -41.667 5.33301 -51 16s-14 24.667 -14 42c0 12.667 2.66699 26 8 40l53 152c5.33301 16 15.333 29.167 30 39.5s31.334 15.5 50 15.5h139v-275h190v405h30v-405h200v475zM335 30l-0.000976562 244.999h-109
c-12 0 -22.667 -3.16699 -32 -9.5c-9.33398 -6.33301 -15.667 -14.833 -19 -25.5l-54 -151c-1.33301 -5.33301 -2.66602 -10.5 -3.99902 -15.5s-2 -9.5 -2 -13.5c0 -9.33301 2.5 -16.666 7.5 -21.999s14.167 -8 27.5 -8h185z" />
    <glyph glyph-name="uniFDFC" unicode="&#x631;&#xfef3;&#xfe8e;&#x644;" horiz-adv-x="1240" arabic-form="isolated" 
d="M596 -121c6.66699 8 14 15.333 22 22l49 -50l-21 -21zM737 -99l49 -50l-21 -21l-50 49zM435 -35c0 -18.667 -6.49805 -34.1689 -19.498 -46.502s-28.167 -18.5 -45.5 -18.5h-120c-23.333 0 -45 4.33301 -65 13s-37.333 20.334 -52 35.001s-26.334 32 -35.001 52
s-13 41.667 -13 65v130h30v-130c0 -18.667 3.5 -36.167 10.5 -52.5s16.667 -30.666 29 -42.999s26.666 -22 42.999 -29s33.833 -10.5 52.5 -10.5h120c9.33301 0 17.5 3.33301 24.5 10s10.5 15 10.5 25v560h30v-560zM1125 304.998l30.0029 -0.000976562v-330
c0 -45.333 -10.333 -79.166 -31 -101.499c-20.668 -22.333 -49.335 -33.5 -86.001 -33.5c-14.667 0 -30.167 1.66699 -46.5 5s-33.5 8 -51.5 14c1.33301 4.66602 2.83301 9.33301 4.5 14s3.5 9.33398 5.5 14.001c15.333 -5.33301 30.166 -9.5 44.499 -12.5
s28.166 -4.5 41.499 -4.5c26.667 0 48.167 8.16699 64.5 24.5s24.5 43.166 24.5 80.499v330zM635.005 524.997v-495h105v-30h-135v525h30zM905.005 304.997h30v-305h-240c-4 0 -7.5 1.5 -10.5 4.5s-4.5 6.5 -4.5 10.5s1.5 7.5 4.5 10.5s6.5 4.5 10.5 4.5h210v275z" />
    <glyph glyph-name="lamalefmd" unicode="&#xfedf;&#xfe82;" horiz-adv-x="463" arabic-form="isolated" 
d="M328 525l29.999 0.00195312v-490c0 -23.333 -3.5 -43 -10.5 -59s-16.667 -28.833 -29 -38.5s-26.666 -16.667 -42.999 -21s-33.833 -6.5 -52.5 -6.5c-32.667 0 -67 5.66699 -103 17l8 28c16 -4.66699 32 -8.33398 48 -11.001s31.667 -4 47 -4
c14.667 0 28.334 1.66699 41 5c12.667 3.33301 23.667 8.66602 33 15.999s16.833 17 22.5 29s8.5 27 8.5 45v490zM107.999 475.002l51 -420h-32l-51 420h32zM170.999 553.002c-8 -6 -15.5 -10.167 -22.5 -12.5s-13.5 -3.5 -19.5 -3.5c-11.333 0 -21.666 2.16699 -30.999 6.5
s-19.666 6.5 -30.999 6.5c-6.66699 0 -13.667 -1.5 -21 -4.5s-15.666 -8.5 -24.999 -16.5v23c9.33301 8 17.666 13.5 24.999 16.5s14.333 4.5 21 4.5c11.333 0 21.666 -2.16699 30.999 -6.5s19.666 -6.5 30.999 -6.5c6 0 12.5 1.16699 19.5 3.5s14.5 6.5 22.5 12.5v-23z" />
    <glyph glyph-name="lamalefmdf" unicode="&#xfee0;&#xfe82;" horiz-adv-x="463" arabic-form="final" 
d="M171 553c-8 -6 -15.5 -10.167 -22.5 -12.5s-13.5 -3.5 -19.5 -3.5c-11.333 0 -21.666 2.16699 -30.999 6.5s-19.666 6.5 -30.999 6.5c-6.66699 0 -13.667 -1.5 -21 -4.5s-15.666 -8.5 -24.999 -16.5v23c9.33301 8 17.666 13.5 24.999 16.5s14.333 4.5 21 4.5
c11.333 0 21.666 -2.16699 30.999 -6.5s19.666 -6.5 30.999 -6.5c6 0 12.5 1.16699 19.5 3.5s14.5 6.5 22.5 12.5v-23zM328 525l30 0.00292969v-461c0 -6.66699 -0.166992 -12.834 -0.5 -18.501s-0.5 -10.834 -0.5 -15.501h106v-30h-109
c-6.66699 -33.333 -22.167 -56.666 -46.5 -69.999s-52.5 -20 -84.5 -20c-32.667 0 -67 5.66699 -103 17l8 28c16 -4.66699 32 -8.33398 48 -11.001s31.667 -4 47 -4c14.667 0 28.334 1.66699 41 5c12.667 3.33301 23.667 8.66602 33 15.999s16.833 17 22.5 29s8.5 27 8.5 45
v490zM108 475.003l51 -420h-32l-51 420h32z" />
    <glyph glyph-name="lamalefhmz" unicode="&#xfedf;&#xfe84;" horiz-adv-x="463" arabic-form="isolated" 
d="M328 525l29.999 0.00195312v-490c0 -23.333 -3.5 -43 -10.5 -59s-16.667 -28.833 -29 -38.5s-26.666 -16.667 -42.999 -21s-33.833 -6.5 -52.5 -6.5c-32.667 0 -67 5.66699 -103 17l8 28c16 -4.66699 32 -8.33398 48 -11.001s31.667 -4 47 -4
c14.667 0 28.334 1.66699 41 5c12.667 3.33301 23.667 8.66602 33 15.999s16.833 17 22.5 29s8.5 27 8.5 45v490zM107.999 475.002l51 -420h-32l-51 420h32zM148.999 561.002l-0.000976562 -20.998h-103v21h33c-9.33301 7.33301 -16.833 15.666 -22.5 24.999
s-8.5 18.666 -8.5 27.999c0 14.667 4.5 25.667 13.5 33s20.833 11 35.5 11c6.66699 0 14.334 -1.16699 23.001 -3.5c8.66699 -2.35352 16 -5.18652 22 -8.5l-9 -18c-5.33301 2.66699 -11.333 5 -18 7s-12.667 3 -18 3c-18.667 0 -28 -8 -28 -24c0 -9.33301 5 -19.5 15 -30.5
s22 -18.5 36 -22.5h29z" />
    <glyph glyph-name="lamalefhmzf" unicode="&#xfee0;&#xfe84;" horiz-adv-x="463" arabic-form="final" 
d="M149 561l-0.000976562 -20.998h-103v21h33c-9.33301 7.33301 -16.833 15.666 -22.5 24.999s-8.5 18.666 -8.5 27.999c0 14.667 4.5 25.667 13.5 33s20.833 11 35.5 11c6.66699 0 14.334 -1.16699 23.001 -3.5c8.66699 -2.35352 16 -5.18652 22 -8.5l-9 -18
c-5.33301 2.66699 -11.333 5 -18 7s-12.667 3 -18 3c-18.667 0 -28 -8 -28 -24c0 -9.33301 5 -19.5 15 -30.5s22 -18.5 36 -22.5h29zM327.999 525.002l30 0.00292969v-461c0 -6.66699 -0.166992 -12.834 -0.5 -18.501s-0.5 -10.834 -0.5 -15.501h106v-30h-109
c-6.66699 -33.333 -22.167 -56.666 -46.5 -69.999s-52.5 -20 -84.5 -20c-32.667 0 -67 5.66699 -103 17l8 28c16 -4.66699 32 -8.33398 48 -11.001s31.667 -4 47 -4c14.667 0 28.334 1.66699 41 5c12.667 3.33301 23.667 8.66602 33 15.999s16.833 17 22.5 29s8.5 27 8.5 45
v490zM107.999 475.005l51 -420h-32l-51 420h32z" />
    <glyph glyph-name="lamalefhmz2" unicode="&#xfedf;&#xfe88;" horiz-adv-x="463" arabic-form="isolated" 
d="M328 525l29.999 0.00195312v-490c0 -23.333 -3.5 -43 -10.5 -59s-16.667 -28.833 -29 -38.5s-26.666 -16.667 -42.999 -21s-33.833 -6.5 -52.5 -6.5c-32.667 0 -67 5.66699 -103 17l8 28c16 -4.66699 32 -8.33398 48 -11.001s31.667 -4 47 -4
c14.667 0 28.334 1.66699 41 5c12.667 3.33301 23.667 8.66602 33 15.999s16.833 17 22.5 29s8.5 27 8.5 45v490zM107.999 475.002l51 -420h-32l-51 420h32zM188.999 -231.098v-18.9004h-103v18.9004h33c-9.33301 6.60059 -16.833 14.1006 -22.5 22.501
s-8.5 16.8008 -8.5 25.2002c0 13.2002 4.5 23.1006 13.5 29.7012s20.833 9.90039 35.5 9.90039c6.66699 0 14.334 -1.0498 23 -3.15039c8.66699 -2.10059 16 -4.65039 22 -7.65039l-9 -16.2002c-5.33301 2.40039 -11.333 4.5 -18 6.2998s-12.667 2.7002 -18 2.7002
c-18.667 0 -28 -7.2002 -28 -21.6006c0 -8.39941 5 -17.5498 15 -27.4502s22 -16.6504 36 -20.251h29z" />
    <glyph glyph-name="lamalefhmz2f" unicode="&#xfee0;&#xfe88;" horiz-adv-x="463" arabic-form="final" 
d="M189 -231.1v-18.9004h-103v18.9004h33c-9.33301 6.60059 -16.833 14.1006 -22.5 22.501s-8.5 16.8008 -8.5 25.2002c0 13.2002 4.5 23.1006 13.5 29.7012s20.833 9.90039 35.5 9.90039c6.66699 0 14.334 -1.0498 23 -3.15039c8.66699 -2.10059 16 -4.65039 22 -7.65039
l-9 -16.2002c-5.33301 2.40039 -11.333 4.5 -18 6.2998s-12.667 2.7002 -18 2.7002c-18.667 0 -28 -7.2002 -28 -21.6006c0 -8.39941 5 -17.5498 15 -27.4502s22 -16.6504 36 -20.251h29zM328 525l30 0.00292969v-461c0 -6.66699 -0.166992 -12.834 -0.5 -18.501
s-0.5 -10.834 -0.5 -15.501h106v-30h-109c-6.66699 -33.333 -22.167 -56.666 -46.5 -69.999s-52.5 -20 -84.5 -20c-32.667 0 -67 5.66699 -103 17l8 28c16 -4.66699 32 -8.33398 48 -11.001s31.667 -4 47 -4c14.667 0 28.334 1.66699 41 5
c12.667 3.33301 23.667 8.66602 33 15.999s16.833 17 22.5 29s8.5 27 8.5 45v490zM108 475.003l51 -420h-32l-51 420h32z" />
    <glyph glyph-name="lamalef" unicode="&#xfedf;&#xfe8e;" horiz-adv-x="463" 
d="M328 525l29.999 0.00195312v-490c0 -23.333 -3.5 -43 -10.5 -59s-16.667 -28.833 -29 -38.5s-26.666 -16.667 -42.999 -21s-33.833 -6.5 -52.5 -6.5c-32.667 0 -67 5.66699 -103 17l8 28c16 -4.66699 32 -8.33398 48 -11.001s31.667 -4 47 -4
c14.667 0 28.334 1.66699 41 5c12.667 3.33301 23.667 8.66602 33 15.999s16.833 17 22.5 29s8.5 27 8.5 45v490zM107.999 475.002l51 -420h-32l-51 420h32z" />
    <glyph glyph-name="lamaleff" unicode="&#xfee0;&#xfe8e;" horiz-adv-x="463" 
d="M328 525l30 0.00292969v-461c0 -6.66699 -0.166992 -12.834 -0.5 -18.501s-0.5 -10.834 -0.5 -15.501h106v-30h-109c-6.66699 -33.333 -22.167 -56.666 -46.5 -69.999s-52.5 -20 -84.5 -20c-32.667 0 -67 5.66699 -103 17l8 28c16 -4.66699 32 -8.33398 48 -11.001
s31.667 -4 47 -4c14.667 0 28.334 1.66699 41 5c12.667 3.33301 23.667 8.66602 33 15.999s16.833 17 22.5 29s8.5 27 8.5 45v490zM108 475.003l51 -420h-32l-51 420h32z" />
    <glyph glyph-name="lamalefwasl" unicode="&#xfedf;&#xfb51;" horiz-adv-x="463" 
d="M328 525l29.999 0.00195312v-490c0 -23.333 -3.5 -43 -10.5 -59s-16.667 -28.833 -29 -38.5s-26.666 -16.667 -42.999 -21s-33.833 -6.5 -52.5 -6.5c-32.667 0 -67 5.66699 -103 17l8 28c16 -4.66699 32 -8.33398 48 -11.001s31.667 -4 47 -4
c14.667 0 28.334 1.66699 41 5c12.667 3.33301 23.667 8.66602 33 15.999s16.833 17 22.5 29s8.5 27 8.5 45v490zM107.999 475.002l51 -420h-32l-51 420h32zM29.999 559.002h15v56h18v-29l25 21c5.33301 4.66699 11.333 7 18 7h39c3.33301 0 6.5 -1.66699 9.5 -5
s4.5 -7 4.5 -11v-58h-129v19zM62.999 565.002v-6h77v36h-41z" />
    <glyph glyph-name="lamalefwaslf" unicode="&#xfee0;&#xfb51;" horiz-adv-x="463" 
d="M30 559h15v56h18v-29l25 21c5.33301 4.66699 11.333 7 18 7h39c3.33301 0 6.5 -1.66699 9.5 -5s4.5 -7 4.5 -11v-58h-129v19zM63 565v-6h77v36h-41zM328 525l30 0.00292969v-461c0 -6.66699 -0.166992 -12.834 -0.5 -18.501s-0.5 -10.834 -0.5 -15.501h106v-30h-109
c-6.66699 -33.333 -22.167 -56.666 -46.5 -69.999s-52.5 -20 -84.5 -20c-32.667 0 -67 5.66699 -103 17l8 28c16 -4.66699 32 -8.33398 48 -11.001s31.667 -4 47 -4c14.667 0 28.334 1.66699 41 5c12.667 3.33301 23.667 8.66602 33 15.999s16.833 17 22.5 29s8.5 27 8.5 45
v490zM108 475.003l51 -420h-32l-51 420h32z" />
    <glyph glyph-name="lellah" unicode="&#xfedf;&#xfee0;&#xfeea;" horiz-adv-x="900" 
d="M785 505h30v-505h-665c-24.667 -0 -41.667 5.33301 -51 16s-14 24.667 -14 42c0 12.667 2.66699 26 8 40l53 152c5.33301 16 15.333 29.167 30 39.5s31.334 15.5 50 15.5h139v-275h190v405h30v-405h200v475zM335 30l-0.000976562 244.999h-109
c-12 0 -22.667 -3.16699 -32 -9.5c-9.33398 -6.33301 -15.667 -14.833 -19 -25.5l-54 -151c-1.33301 -5.33301 -2.66602 -10.5 -3.99902 -15.5s-2 -9.5 -2 -13.5c0 -9.33301 2.5 -16.666 7.5 -21.999s14.167 -8 27.5 -8h185z" />
    <glyph glyph-name="noonyehf" unicode="&#xfee8;&#xfef2;" horiz-adv-x="825" 
d="M521 459c6.66699 8 14 15.333 22 22l48 -50l-21 -21c-8 8 -16 16.167 -24 24.5s-16.333 16.5 -25 24.5zM216 -237.898c6.66699 7.19922 14 13.7998 22 19.8008l49 -45.002l-21 -18.9004zM357 -218.098l49 -45.002l-21 -18.9004l-50 44.1016zM515 75
c8 0 15.0039 -3.00098 21.0039 -9.00098s9 -13 9 -21v-40c0 -22.667 -4.33301 -44 -13 -64s-20.5 -37.5 -35.5 -52.5s-32.5 -26.833 -52.5 -35.5s-41.333 -13 -64 -13h-130c-22.667 0 -44 4.33301 -64 13s-37.5 20.5 -52.5 35.5s-26.833 32.5 -35.5 52.5s-13 41.333 -13 64
v120h30v-120c0 -18.667 3.5 -36.167 10.5 -52.5s16.667 -30.666 29 -42.999s26.666 -22 42.999 -29s33.833 -10.5 52.5 -10.5h130c18 0 35.167 3.5 51.5 10.5c16.334 7 30.667 16.667 42.999 29c12.335 12.333 22.168 26.666 29.499 42.999
c7.33301 16.333 11 33.833 11 52.5v40h-140c-8.66797 0 -15.835 2.83301 -21.5 8.5c-5.66699 5.66699 -8.5 12.834 -8.5 21.501v25c0 24 4.66699 46.667 14 68s21.833 39.833 37.5 55.5s34.167 28.167 55.5 37.5s44 14 68 14h156
c9.33301 -41.333 18.666 -82.333 27.999 -123l28 -122h93v-30h-118l-54 245h-133c-20 0 -38.833 -3.83301 -56.5 -11.5s-33 -18 -46 -31s-23.333 -28.333 -31 -46s-11.5 -36.5 -11.5 -56.5v-25h140z" />
    <glyph glyph-name="uni0679yehf" unicode="&#xfb69;&#xfef2;" horiz-adv-x="825" 
d="M216 -237.898c6.66699 7.19922 14 13.7998 22 19.8008l49 -45.002l-21 -18.9004zM357 -218.098l49 -45.002l-21 -18.9004l-50 44.1016zM500 419h15v106h17v-79l26 21c5.33301 4.66699 11.333 7 18 7h39c3.33301 0 6.5 -1.66699 9.5 -5s4.5 -7 4.5 -11v-58h-129v19z
M532 426v-7h78v36h-41zM515 75c8 0 15.0039 -3.00098 21.0039 -9.00098s9 -13 9 -21v-40c0 -22.667 -4.33301 -44 -13 -64s-20.5 -37.5 -35.5 -52.5s-32.5 -26.833 -52.5 -35.5s-41.333 -13 -64 -13h-130c-22.667 0 -44 4.33301 -64 13s-37.5 20.5 -52.5 35.5
s-26.833 32.5 -35.5 52.5s-13 41.333 -13 64v120h30v-120c0 -18.667 3.5 -36.167 10.5 -52.5s16.667 -30.666 29 -42.999s26.666 -22 42.999 -29s33.833 -10.5 52.5 -10.5h130c18 0 35.167 3.5 51.5 10.5c16.334 7 30.667 16.667 42.999 29
c12.335 12.333 22.168 26.666 29.499 42.999c7.33301 16.333 11 33.833 11 52.5v40h-140c-8.66797 0 -15.835 2.83301 -21.5 8.5c-5.66699 5.66699 -8.5 12.834 -8.5 21.501v25c0 24 4.66699 46.667 14 68s21.833 39.833 37.5 55.5s34.167 28.167 55.5 37.5s44 14 68 14h156
c9.33301 -41.333 18.666 -82.333 27.999 -123l28 -122h93v-30h-118l-54 245h-133c-20 0 -38.833 -3.83301 -56.5 -11.5s-33 -18 -46 -31s-23.333 -28.333 -31 -46s-11.5 -36.5 -11.5 -56.5v-25h140z" />
    <glyph glyph-name="hmzyehhmzf" unicode="&#xfe8c;&#xfe8a;" horiz-adv-x="825" 
d="M161 261l-0.000976562 -20.999h-103v21h33c-9.33301 7.33398 -16.833 15.667 -22.5 24.999c-5.66699 9.33398 -8.5 18.667 -8.5 27.999c0 14.667 4.5 25.667 13.5 33s20.833 11 35.5 11c6.66699 0 14.334 -1.16699 23.001 -3.5s16 -5.16602 22 -8.49902l-9 -18
c-5.33301 2.66699 -11.333 5 -18 7s-12.667 3 -18 3c-18.667 0 -28 -8 -28 -24c0 -9.33301 5 -19.5 15 -30.5s22 -18.5 36 -22.5h29zM610.999 421.001v-21.001h-103v21h33c-9.33301 7.33496 -16.833 15.668 -22.5 25c-5.66699 9.33496 -8.5 18.668 -8.5 28
c0 14.667 4.5 25.667 13.5 33s20.833 11 35.5 11c6.6709 0 14.3379 -1.16699 23 -3.5c8.66699 -2.33301 16 -5.16602 22 -8.49902l-9 -18c-5.33301 2.66699 -11.333 5 -18 7s-12.667 3 -18 3c-18.667 0 -28 -8 -28 -24c0 -9.33301 5 -19.5 15 -30.5s22 -18.5 36 -22.5h29z
M514.999 75c8 0 15.0039 -3.00098 21.0039 -9.00098s9 -13 9 -21v-40c0 -22.667 -4.33301 -44 -13 -64s-20.5 -37.5 -35.5 -52.5s-32.5 -26.833 -52.5 -35.5s-41.333 -13 -64 -13h-130c-22.667 0 -44 4.33301 -64 13s-37.5 20.5 -52.5 35.5s-26.833 32.5 -35.5 52.5
s-13 41.333 -13 64v120h30v-120c0 -18.667 3.5 -36.167 10.5 -52.5s16.667 -30.666 29 -42.999s26.666 -22 42.999 -29s33.833 -10.5 52.5 -10.5h130c18 0 35.167 3.5 51.5 10.5c16.334 7 30.667 16.667 42.999 29c12.335 12.333 22.168 26.666 29.499 42.999
c7.33301 16.333 11 33.833 11 52.5v40h-140c-8.66797 0 -15.835 2.83301 -21.5 8.5c-5.66699 5.66699 -8.5 12.834 -8.5 21.501v25c0 24 4.66699 46.667 14 68s21.833 39.833 37.5 55.5s34.167 28.167 55.5 37.5s44 14 68 14h156
c9.33301 -41.333 18.666 -82.333 27.999 -123l28 -122h93v-30h-118l-54 245h-133c-20 0 -38.833 -3.83301 -56.5 -11.5s-33 -18 -46 -31s-23.333 -28.333 -31 -46s-11.5 -36.5 -11.5 -56.5v-25h140z" />
    <glyph glyph-name="tehyehhmzf" unicode="&#xfe98;&#xfe8a;" horiz-adv-x="825" 
d="M466 459c6.66699 8 14 15.333 22 22l49 -50l-21 -21zM607 481l49 -50l-21 -21l-50 49zM161 261l-0.000976562 -20.999h-103v21h33c-9.33301 7.33398 -16.833 15.667 -22.5 24.999c-5.66699 9.33398 -8.5 18.667 -8.5 27.999c0 14.667 4.5 25.667 13.5 33
s20.833 11 35.5 11c6.66699 0 14.334 -1.16699 23.001 -3.5s16 -5.16602 22 -8.49902l-9 -18c-5.33301 2.66699 -11.333 5 -18 7s-12.667 3 -18 3c-18.667 0 -28 -8 -28 -24c0 -9.33301 5 -19.5 15 -30.5s22 -18.5 36 -22.5h29zM514.999 75.001
c8 0 15.0039 -3.00098 21.0039 -9.00098s9 -13 9 -21v-40c0 -22.667 -4.33301 -44 -13 -64s-20.5 -37.5 -35.5 -52.5s-32.5 -26.833 -52.5 -35.5s-41.333 -13 -64 -13h-130c-22.667 0 -44 4.33301 -64 13s-37.5 20.5 -52.5 35.5s-26.833 32.5 -35.5 52.5s-13 41.333 -13 64
v120h30v-120c0 -18.667 3.5 -36.167 10.5 -52.5s16.667 -30.666 29 -42.999s26.666 -22 42.999 -29s33.833 -10.5 52.5 -10.5h130c18 0 35.167 3.5 51.5 10.5c16.334 7 30.667 16.667 42.999 29c12.335 12.333 22.168 26.666 29.499 42.999
c7.33301 16.333 11 33.833 11 52.5v40h-140c-8.66797 0 -15.835 2.83301 -21.5 8.5c-5.66699 5.66699 -8.5 12.834 -8.5 21.501v25c0 24 4.66699 46.667 14 68s21.833 39.833 37.5 55.5s34.167 28.167 55.5 37.5s44 14 68 14h156
c9.33301 -41.333 18.666 -82.333 27.999 -123l28 -122h93v-30h-118l-54 245h-133c-20 0 -38.833 -3.83301 -56.5 -11.5s-33 -18 -46 -31s-23.333 -28.333 -31 -46s-11.5 -36.5 -11.5 -56.5v-25h140z" />
    <glyph glyph-name="thehyehhmzf" unicode="&#xfe9c;&#xfe8a;" horiz-adv-x="825" 
d="M466 439c6.66699 8 14 15.333 22 22l49 -50l-21 -21zM607 461l49 -50l-21 -21l-50 49zM521 539c6.66699 8 14 15.333 22 22l48 -50l-21 -21c-8 8 -16 16.167 -24 24.5s-16.333 16.5 -25 24.5zM161 261l-0.000976562 -20.999h-103v21h33
c-9.33301 7.33398 -16.833 15.667 -22.5 24.999c-5.66699 9.33398 -8.5 18.667 -8.5 27.999c0 14.667 4.5 25.667 13.5 33s20.833 11 35.5 11c6.66699 0 14.334 -1.16699 23.001 -3.5s16 -5.16602 22 -8.49902l-9 -18c-5.33301 2.66699 -11.333 5 -18 7s-12.667 3 -18 3
c-18.667 0 -28 -8 -28 -24c0 -9.33301 5 -19.5 15 -30.5s22 -18.5 36 -22.5h29zM514.999 75.001c8 0 15.0039 -3.00098 21.0039 -9.00098s9 -13 9 -21v-40c0 -22.667 -4.33301 -44 -13 -64s-20.5 -37.5 -35.5 -52.5s-32.5 -26.833 -52.5 -35.5s-41.333 -13 -64 -13h-130
c-22.667 0 -44 4.33301 -64 13s-37.5 20.5 -52.5 35.5s-26.833 32.5 -35.5 52.5s-13 41.333 -13 64v120h30v-120c0 -18.667 3.5 -36.167 10.5 -52.5s16.667 -30.666 29 -42.999s26.666 -22 42.999 -29s33.833 -10.5 52.5 -10.5h130c18 0 35.167 3.5 51.5 10.5
c16.334 7 30.667 16.667 42.999 29c12.335 12.333 22.168 26.666 29.499 42.999c7.33301 16.333 11 33.833 11 52.5v40h-140c-8.66797 0 -15.835 2.83301 -21.5 8.5c-5.66699 5.66699 -8.5 12.834 -8.5 21.501v25c0 24 4.66699 46.667 14 68s21.833 39.833 37.5 55.5
s34.167 28.167 55.5 37.5s44 14 68 14h156c9.33301 -41.333 18.666 -82.333 27.999 -123l28 -122h93v-30h-118l-54 245h-133c-20 0 -38.833 -3.83301 -56.5 -11.5s-33 -18 -46 -31s-23.333 -28.333 -31 -46s-11.5 -36.5 -11.5 -56.5v-25h140z" />
    <glyph glyph-name="noonyehhmzf" unicode="&#xfee8;&#xfe8a;" horiz-adv-x="825" 
d="M521 459c6.66699 8 14 15.333 22 22l48 -50l-21 -21c-8 8 -16 16.167 -24 24.5s-16.333 16.5 -25 24.5zM161 261l-0.000976562 -20.999h-103v21h33c-9.33301 7.33398 -16.833 15.667 -22.5 24.999c-5.66699 9.33398 -8.5 18.667 -8.5 27.999c0 14.667 4.5 25.667 13.5 33
s20.833 11 35.5 11c6.66699 0 14.334 -1.16699 23.001 -3.5s16 -5.16602 22 -8.49902l-9 -18c-5.33301 2.66699 -11.333 5 -18 7s-12.667 3 -18 3c-18.667 0 -28 -8 -28 -24c0 -9.33301 5 -19.5 15 -30.5s22 -18.5 36 -22.5h29zM514.999 75.001
c8 0 15.0039 -3.00098 21.0039 -9.00098s9 -13 9 -21v-40c0 -22.667 -4.33301 -44 -13 -64s-20.5 -37.5 -35.5 -52.5s-32.5 -26.833 -52.5 -35.5s-41.333 -13 -64 -13h-130c-22.667 0 -44 4.33301 -64 13s-37.5 20.5 -52.5 35.5s-26.833 32.5 -35.5 52.5s-13 41.333 -13 64
v120h30v-120c0 -18.667 3.5 -36.167 10.5 -52.5s16.667 -30.666 29 -42.999s26.666 -22 42.999 -29s33.833 -10.5 52.5 -10.5h130c18 0 35.167 3.5 51.5 10.5c16.334 7 30.667 16.667 42.999 29c12.335 12.333 22.168 26.666 29.499 42.999
c7.33301 16.333 11 33.833 11 52.5v40h-140c-8.66797 0 -15.835 2.83301 -21.5 8.5c-5.66699 5.66699 -8.5 12.834 -8.5 21.501v25c0 24 4.66699 46.667 14 68s21.833 39.833 37.5 55.5s34.167 28.167 55.5 37.5s44 14 68 14h156
c9.33301 -41.333 18.666 -82.333 27.999 -123l28 -122h93v-30h-118l-54 245h-133c-20 0 -38.833 -3.83301 -56.5 -11.5s-33 -18 -46 -31s-23.333 -28.333 -31 -46s-11.5 -36.5 -11.5 -56.5v-25h140z" />
    <glyph glyph-name="uni0679yehhmzf" unicode="&#xfb69;&#xfe8a;" horiz-adv-x="825" 
d="M500 419h15v106h17v-79l26 21c5.33301 4.66699 11.333 7 18 7h39c3.33301 0 6.5 -1.66699 9.5 -5s4.5 -7 4.5 -11v-58h-129v19zM532 426v-7h78v36h-41zM161 261l-0.000976562 -20.999h-103v21h33c-9.33301 7.33398 -16.833 15.667 -22.5 24.999
c-5.66699 9.33398 -8.5 18.667 -8.5 27.999c0 14.667 4.5 25.667 13.5 33s20.833 11 35.5 11c6.66699 0 14.334 -1.16699 23.001 -3.5s16 -5.16602 22 -8.49902l-9 -18c-5.33301 2.66699 -11.333 5 -18 7s-12.667 3 -18 3c-18.667 0 -28 -8 -28 -24
c0 -9.33301 5 -19.5 15 -30.5s22 -18.5 36 -22.5h29zM514.999 75.001c8 0 15.0039 -3.00098 21.0039 -9.00098s9 -13 9 -21v-40c0 -22.667 -4.33301 -44 -13 -64s-20.5 -37.5 -35.5 -52.5s-32.5 -26.833 -52.5 -35.5s-41.333 -13 -64 -13h-130c-22.667 0 -44 4.33301 -64 13
s-37.5 20.5 -52.5 35.5s-26.833 32.5 -35.5 52.5s-13 41.333 -13 64v120h30v-120c0 -18.667 3.5 -36.167 10.5 -52.5s16.667 -30.666 29 -42.999s26.666 -22 42.999 -29s33.833 -10.5 52.5 -10.5h130c18 0 35.167 3.5 51.5 10.5c16.334 7 30.667 16.667 42.999 29
c12.335 12.333 22.168 26.666 29.499 42.999c7.33301 16.333 11 33.833 11 52.5v40h-140c-8.66797 0 -15.835 2.83301 -21.5 8.5c-5.66699 5.66699 -8.5 12.834 -8.5 21.501v25c0 24 4.66699 46.667 14 68s21.833 39.833 37.5 55.5s34.167 28.167 55.5 37.5s44 14 68 14h156
c9.33301 -41.333 18.666 -82.333 27.999 -123l28 -122h93v-30h-118l-54 245h-133c-20 0 -38.833 -3.83301 -56.5 -11.5s-33 -18 -46 -31s-23.333 -28.333 -31 -46s-11.5 -36.5 -11.5 -56.5v-25h140z" />
    <glyph glyph-name="noonmaksuraf" unicode="&#xfee8;&#xfef0;" horiz-adv-x="825" 
d="M521 459c6.66699 8 14 15.333 22 22l48 -50l-21 -21c-8 8 -16 16.167 -24 24.5s-16.333 16.5 -25 24.5zM515 75c8 0 15.0039 -3.00098 21.0039 -9.00098s9 -13 9 -21v-40c0 -22.667 -4.33301 -44 -13 -64s-20.5 -37.5 -35.5 -52.5s-32.5 -26.833 -52.5 -35.5
s-41.333 -13 -64 -13h-130c-22.667 0 -44 4.33301 -64 13s-37.5 20.5 -52.5 35.5s-26.833 32.5 -35.5 52.5s-13 41.333 -13 64v120h30v-120c0 -18.667 3.5 -36.167 10.5 -52.5s16.667 -30.666 29 -42.999s26.666 -22 42.999 -29s33.833 -10.5 52.5 -10.5h130
c18 0 35.167 3.5 51.5 10.5c16.334 7 30.667 16.667 42.999 29c12.335 12.333 22.168 26.666 29.499 42.999c7.33301 16.333 11 33.833 11 52.5v40h-140c-8.66797 0 -15.835 2.83301 -21.5 8.5c-5.66699 5.66699 -8.5 12.834 -8.5 21.501v25c0 24 4.66699 46.667 14 68
s21.833 39.833 37.5 55.5s34.167 28.167 55.5 37.5s44 14 68 14h156c9.33301 -41.333 18.666 -82.333 27.999 -123l28 -122h93v-30h-118l-54 245h-133c-20 0 -38.833 -3.83301 -56.5 -11.5s-33 -18 -46 -31s-23.333 -28.333 -31 -46s-11.5 -36.5 -11.5 -56.5v-25h140z" />
    <glyph glyph-name="uni0679maksuraf" unicode="&#xfb69;&#xfef0;" horiz-adv-x="825" 
d="M500 419h15v106h17v-79l26 21c5.33301 4.66699 11.333 7 18 7h39c3.33301 0 6.5 -1.66699 9.5 -5s4.5 -7 4.5 -11v-58h-129v19zM532 426v-7h78v36h-41zM515 75c8 0 15.0039 -3.00098 21.0039 -9.00098s9 -13 9 -21v-40c0 -22.667 -4.33301 -44 -13 -64
s-20.5 -37.5 -35.5 -52.5s-32.5 -26.833 -52.5 -35.5s-41.333 -13 -64 -13h-130c-22.667 0 -44 4.33301 -64 13s-37.5 20.5 -52.5 35.5s-26.833 32.5 -35.5 52.5s-13 41.333 -13 64v120h30v-120c0 -18.667 3.5 -36.167 10.5 -52.5s16.667 -30.666 29 -42.999
s26.666 -22 42.999 -29s33.833 -10.5 52.5 -10.5h130c18 0 35.167 3.5 51.5 10.5c16.334 7 30.667 16.667 42.999 29c12.335 12.333 22.168 26.666 29.499 42.999c7.33301 16.333 11 33.833 11 52.5v40h-140c-8.66797 0 -15.835 2.83301 -21.5 8.5
c-5.66699 5.66699 -8.5 12.834 -8.5 21.501v25c0 24 4.66699 46.667 14 68s21.833 39.833 37.5 55.5s34.167 28.167 55.5 37.5s44 14 68 14h156c9.33301 -41.333 18.666 -82.333 27.999 -123l28 -122h93v-30h-118l-54 245h-133c-20 0 -38.833 -3.83301 -56.5 -11.5
s-33 -18 -46 -31s-23.333 -28.333 -31 -46s-11.5 -36.5 -11.5 -56.5v-25h140z" />
    <glyph glyph-name="seenyehhmz" unicode="&#xfeb3;&#xfe8a;" horiz-adv-x="1220" 
d="M161 261l-0.000976562 -20.999h-103v21h33c-9.33301 7.33398 -16.833 15.667 -22.5 24.999c-5.66699 9.33398 -8.5 18.667 -8.5 27.999c0 14.667 4.5 25.667 13.5 33s20.833 11 35.5 11c6.66699 0 14.334 -1.16699 23.001 -3.5s16 -5.16602 22 -8.49902l-9 -18
c-5.33301 2.66699 -11.333 5 -18 7s-12.667 3 -18 3c-18.667 0 -28 -8 -28 -24c0 -9.33301 5 -19.5 15 -30.5s22 -18.5 36 -22.5h29zM374.999 85.001l140.003 -0.000976562c8 0 15 -3 21 -9s9 -13 9 -21v-50c0 -22.667 -4.33301 -44 -13 -64s-20.5 -37.5 -35.5 -52.5
s-32.5 -26.833 -52.5 -35.5s-41.333 -13 -64 -13h-130c-22.667 0 -44 4.33301 -64 13s-37.5 20.5 -52.5 35.5s-26.833 32.5 -35.5 52.5s-13 41.333 -13 64v120h30v-120c0 -18.667 3.5 -36.167 10.5 -52.5s16.667 -30.666 29 -42.999s26.666 -22 42.999 -29
s33.833 -10.5 52.5 -10.5h130c18 0 35.167 3.5 51.5 10.5c16.334 7 30.667 16.667 42.999 29c12.335 12.333 22.168 26.666 29.499 42.999c7.33301 16.333 11 33.833 11 52.5v50h-140c-8.66797 0 -15.835 2.83301 -21.5 8.5c-5.66699 5.66699 -8.5 12.834 -8.5 21.501v25
c0 24 4.66699 46.667 14 68s21.833 39.833 37.5 55.5s34.167 28.167 55.5 37.5s44 14 68 14h195v-220c0 -10 3.33301 -18.333 10 -25s15 -10 25 -10h145v265h30v-265h145c9.33301 0 17.5 3.33301 24.5 10s10.5 15 10.5 25v230h30v-230c0 -18.667 -6.5 -34.167 -19.5 -46.5
s-28.167 -18.5 -45.5 -18.5h-320c-17.333 0 -32.5 6.16699 -45.5 18.5s-19.5 27.833 -19.5 46.5v190h-165c-20 0 -38.833 -3.83301 -56.5 -11.5s-33 -18 -46 -31s-23.333 -28.333 -31 -46s-11.5 -36.5 -11.5 -56.5v-25z" />
    <glyph glyph-name="seenyehhmzf" unicode="&#xfeb4;&#xfe8a;" horiz-adv-x="1260" 
d="M161 261l-0.000976562 -20.999h-103v21h33c-9.33301 7.33398 -16.833 15.667 -22.5 24.999c-5.66699 9.33398 -8.5 18.667 -8.5 27.999c0 14.667 4.5 25.667 13.5 33s20.833 11 35.5 11c6.66699 0 14.334 -1.16699 23.001 -3.5s16 -5.16602 22 -8.49902l-9 -18
c-5.33301 2.66699 -11.333 5 -18 7s-12.667 3 -18 3c-18.667 0 -28 -8 -28 -24c0 -9.33301 5 -19.5 15 -30.5s22 -18.5 36 -22.5h29zM344.999 110.001c0 24 4.66992 46.666 14.0029 67.999s21.833 39.833 37.5 55.5s34.167 28.167 55.5 37.5s44 14 68 14h195v-220
c0 -10 3.33301 -18.333 10 -25s15 -10 25 -10h145v265h30v-265h180v265h30v-265h125v-30h-510c-18.667 0 -34.167 6.16699 -46.5 18.5s-18.5 27.833 -18.5 46.5v190h-165c-20 0 -38.833 -3.83301 -56.5 -11.5s-33 -18 -46 -31s-23.333 -28.333 -31 -46
s-11.5 -36.5 -11.5 -56.5v-25h140c8 0 15 -3 21 -9s9 -13 9 -21v-50c0 -22.667 -4.33301 -44 -13 -64s-20.5 -37.5 -35.5 -52.5s-32.5 -26.833 -52.5 -35.5s-41.333 -13 -64 -13h-130c-22.667 0 -44 4.33301 -64 13s-37.5 20.5 -52.5 35.5s-26.833 32.5 -35.5 52.5
s-13 41.333 -13 64v120h30v-120c0 -18.667 3.5 -36.167 10.5 -52.5s16.667 -30.666 29 -42.999s26.666 -22 42.999 -29s33.833 -10.5 52.5 -10.5h130c18 0 35.167 3.5 51.5 10.5c16.334 7 30.667 16.667 42.999 29c12.335 12.333 22.168 26.666 29.499 42.999
c7.33301 16.333 11 33.833 11 52.5v50h-140c-8.66797 0 -15.835 2.83301 -21.5 8.5c-5.66699 5.66699 -8.5 12.834 -8.5 21.501v25z" />
    <glyph glyph-name="sheenyehhmz" unicode="&#xfeb7;&#xfe8a;" horiz-adv-x="1220" 
d="M816 439c6.66699 8 14 15.333 22 22l49 -50l-21 -21zM957 461l49 -50l-21 -21l-50 49zM871 539c6.66699 8 14 15.333 22 22l48 -50l-21 -21c-8 8 -16 16.167 -24 24.5s-16.333 16.5 -25 24.5zM161 261l-0.000976562 -20.999h-103v21h33
c-9.33301 7.33398 -16.833 15.667 -22.5 24.999c-5.66699 9.33398 -8.5 18.667 -8.5 27.999c0 14.667 4.5 25.667 13.5 33s20.833 11 35.5 11c6.66699 0 14.334 -1.16699 23.001 -3.5s16 -5.16602 22 -8.49902l-9 -18c-5.33301 2.66699 -11.333 5 -18 7s-12.667 3 -18 3
c-18.667 0 -28 -8 -28 -24c0 -9.33301 5 -19.5 15 -30.5s22 -18.5 36 -22.5h29zM374.999 85.001l140.003 -0.000976562c8 0 15 -3 21 -9s9 -13 9 -21v-50c0 -22.667 -4.33301 -44 -13 -64s-20.5 -37.5 -35.5 -52.5s-32.5 -26.833 -52.5 -35.5s-41.333 -13 -64 -13h-130
c-22.667 0 -44 4.33301 -64 13s-37.5 20.5 -52.5 35.5s-26.833 32.5 -35.5 52.5s-13 41.333 -13 64v120h30v-120c0 -18.667 3.5 -36.167 10.5 -52.5s16.667 -30.666 29 -42.999s26.666 -22 42.999 -29s33.833 -10.5 52.5 -10.5h130c18 0 35.167 3.5 51.5 10.5
c16.334 7 30.667 16.667 42.999 29c12.335 12.333 22.168 26.666 29.499 42.999c7.33301 16.333 11 33.833 11 52.5v50h-140c-8.66797 0 -15.835 2.83301 -21.5 8.5c-5.66699 5.66699 -8.5 12.834 -8.5 21.501v25c0 24 4.66699 46.667 14 68s21.833 39.833 37.5 55.5
s34.167 28.167 55.5 37.5s44 14 68 14h195v-220c0 -10 3.33301 -18.333 10 -25s15 -10 25 -10h145v265h30v-265h145c9.33301 0 17.5 3.33301 24.5 10s10.5 15 10.5 25v230h30v-230c0 -18.667 -6.5 -34.167 -19.5 -46.5s-28.167 -18.5 -45.5 -18.5h-320
c-17.333 0 -32.5 6.16699 -45.5 18.5s-19.5 27.833 -19.5 46.5v190h-165c-20 0 -38.833 -3.83301 -56.5 -11.5s-33 -18 -46 -31s-23.333 -28.333 -31 -46s-11.5 -36.5 -11.5 -56.5v-25z" />
    <glyph glyph-name="sheenyehhmzf" unicode="&#xfeb8;&#xfe8a;" horiz-adv-x="1260" 
d="M816 439c6.66699 8 14 15.333 22 22l49 -50l-21 -21zM957 461l49 -50l-21 -21l-50 49zM871 539c6.66699 8 14 15.333 22 22l48 -50l-21 -21c-8 8 -16 16.167 -24 24.5s-16.333 16.5 -25 24.5zM161 261l-0.000976562 -20.999h-103v21h33
c-9.33301 7.33398 -16.833 15.667 -22.5 24.999c-5.66699 9.33398 -8.5 18.667 -8.5 27.999c0 14.667 4.5 25.667 13.5 33s20.833 11 35.5 11c6.66699 0 14.334 -1.16699 23.001 -3.5s16 -5.16602 22 -8.49902l-9 -18c-5.33301 2.66699 -11.333 5 -18 7s-12.667 3 -18 3
c-18.667 0 -28 -8 -28 -24c0 -9.33301 5 -19.5 15 -30.5s22 -18.5 36 -22.5h29zM344.999 110.001c0 24 4.66992 46.666 14.0029 67.999s21.833 39.833 37.5 55.5s34.167 28.167 55.5 37.5s44 14 68 14h195v-220c0 -10 3.33301 -18.333 10 -25s15 -10 25 -10h145v265h30v-265
h180v265h30v-265h125v-30h-510c-18.667 0 -34.167 6.16699 -46.5 18.5s-18.5 27.833 -18.5 46.5v190h-165c-20 0 -38.833 -3.83301 -56.5 -11.5s-33 -18 -46 -31s-23.333 -28.333 -31 -46s-11.5 -36.5 -11.5 -56.5v-25h140c8 0 15 -3 21 -9s9 -13 9 -21v-50
c0 -22.667 -4.33301 -44 -13 -64s-20.5 -37.5 -35.5 -52.5s-32.5 -26.833 -52.5 -35.5s-41.333 -13 -64 -13h-130c-22.667 0 -44 4.33301 -64 13s-37.5 20.5 -52.5 35.5s-26.833 32.5 -35.5 52.5s-13 41.333 -13 64v120h30v-120c0 -18.667 3.5 -36.167 10.5 -52.5
s16.667 -30.666 29 -42.999s26.666 -22 42.999 -29s33.833 -10.5 52.5 -10.5h130c18 0 35.167 3.5 51.5 10.5c16.334 7 30.667 16.667 42.999 29c12.335 12.333 22.168 26.666 29.499 42.999c7.33301 16.333 11 33.833 11 52.5v50h-140
c-8.66797 0 -15.835 2.83301 -21.5 8.5c-5.66699 5.66699 -8.5 12.834 -8.5 21.501v25z" />
    <glyph glyph-name="meemmaksura" unicode="&#xfee3;&#xfef0;" horiz-adv-x="1060" 
d="M975 80c0 -20 -3.82715 -37.5 -11.4941 -52.5s-17.667 -27.5 -30 -37.5c-12.3369 -10 -26.6699 -17.5 -43 -22.5c-16.3369 -5 -33.1699 -7.5 -50.5 -7.5c-16.667 0 -32.834 2.5 -48.501 7.5s-29.834 12.167 -42.501 21.5s-23 21.166 -31 35.499
s-12.333 31.166 -13 50.499h-224l63 -64c17.333 -18.667 26 -37.667 26 -57c0 -10 -2 -19.333 -6 -28s-9.33301 -16.5 -16 -23.5s-14.5 -12.5 -23.5 -16.5s-18.833 -6 -29.5 -6h-245c-23.333 0 -45 4.33301 -65 13s-37.333 20.5 -52 35.5s-26.334 32.5 -35.001 52.5
s-13 41.333 -13 64v130h30v-130c0 -18.667 3.5 -36.167 10.5 -52.5s16.667 -30.666 29 -42.999s26.666 -22 42.999 -29s33.833 -10.5 52.5 -10.5h245c13.333 0 24.166 4.5 32.499 13.5s12.5 19.167 12.5 30.5c0 12.667 -6 25 -18 37c-28 28 -55.667 55.833 -83 83.5
s-55 55.834 -83 84.501l21 21c12 -13.333 24.333 -26 37 -38s25 -24.333 37 -37h254v75c0 19.333 4 36.166 12 50.499s18.667 26.333 32 36s28.5 16.834 45.5 21.501s34.833 7 53.5 7c21.333 0 43.166 -3.5 65.499 -10.5s42.833 -17.5 61.5 -31.5v-173zM945.006 238
c-14.667 8.66797 -30.332 15.335 -46.999 20.001c-16.667 4.66699 -33.334 7 -50.001 7c-14.667 0 -28.834 -1.66699 -42.501 -5s-25.667 -8.5 -36 -15.5c-10.3389 -7 -18.6719 -15.833 -24.999 -26.5c-6.33301 -10.667 -9.5 -23.334 -9.5 -38.001v-100
c0 -15.333 3 -28.5 9 -39.5s13.833 -20.333 23.5 -28c9.66797 -7.66699 20.835 -13.334 33.5 -17.001c12.667 -3.66699 25.667 -5.5 39 -5.5s26.333 1.83301 39 5.5s23.834 9.33398 33.5 17.001c9.66699 7.66699 17.5 17 23.5 28s9 24.167 9 39.5v158z" />
    <glyph glyph-name="meemmaksuraf" unicode="&#xfee4;&#xfef0;" horiz-adv-x="1055" 
d="M705 50c-3.33301 1.33301 -6.32812 2.83301 -8.99512 4.5s-5.66699 3.5 -9 5.5h-216l58 -59c17.333 -18.667 26 -37.667 26 -57c0 -10 -2 -19.333 -6 -28s-9.33301 -16.5 -16 -23.5s-14.5 -12.5 -23.5 -16.5s-18.833 -6 -29.5 -6h-230c-23.333 0 -45 4.33301 -65 13
s-37.333 20.5 -52 35.5s-26.334 32.5 -35.001 52.5s-13 41.333 -13 64v130h30v-130c0 -18.667 3.5 -36.167 10.5 -52.5s16.667 -30.666 29 -42.999s26.666 -22 42.999 -29s33.833 -10.5 52.5 -10.5h230c13.335 0 24.168 4.5 32.499 13.5c8.33301 9 12.5 19.167 12.5 30.5
c0 12.667 -6 25 -18 37c-28 28 -55.667 55.833 -83 83.5s-55 55.834 -83 84.501l21 21l79 -80h264v47c0 22.667 3.66699 42.5 11 59.5s17.166 30.833 29.499 41.5s26.666 18.667 42.999 24s33.5 8 51.5 8s35.167 -2.66699 51.5 -8s30.666 -13.333 42.999 -24
s22.166 -24.5 29.499 -41.5s11 -36.833 11 -59.5v-80c0 -4.66699 -0.166992 -9.33398 -0.5 -14.001s-0.5 -9 -0.5 -13h81v-30h-88c-10.667 -24.667 -27.5 -43.334 -50.5 -56.001s-48.5 -19 -76.5 -19c-18 0 -35.167 2.66699 -51.5 8
c-16.3359 5.33301 -30.6689 13.166 -42.999 23.499c-12.3359 10.333 -22.1689 23.333 -29.499 39c-7.33301 15.667 -11 33.834 -11 54.501zM735.005 45c0 -30 10.501 -52.499 31.501 -67.499s45.5 -22.5 73.5 -22.5c14 0 27.333 2 40 6c12.6738 4 23.8408 9.66699 33.501 17
c9.67383 7.33301 17.3408 16.666 23 27.999c5.66699 11.333 8.5 24.333 8.5 39v92c0 18 -2.83301 33.333 -8.5 46s-13.334 23.334 -23.001 32c-9.66699 8.66699 -20.834 15 -33.501 19s-26 6 -40 6c-28 0 -52.5 -8.33301 -73.5 -25s-31.5 -42.667 -31.5 -78v-92z" />
    <glyph glyph-name="meemyeh" unicode="&#xfee3;&#xfef2;" horiz-adv-x="1060" 
d="M231 -222.898c6.66699 7.19922 14 13.7998 22 19.8008l49 -45.002l-21 -18.9004zM372 -203.098l49 -45.002l-21 -18.9004l-50 44.1016zM975 80c0 -20 -3.82715 -37.5 -11.4941 -52.5s-17.667 -27.5 -30 -37.5c-12.3369 -10 -26.6699 -17.5 -43 -22.5
c-16.3369 -5 -33.1699 -7.5 -50.5 -7.5c-16.667 0 -32.834 2.5 -48.501 7.5s-29.834 12.167 -42.501 21.5s-23 21.166 -31 35.499s-12.333 31.166 -13 50.499h-224l63 -64c17.333 -18.667 26 -37.667 26 -57c0 -10 -2 -19.333 -6 -28s-9.33301 -16.5 -16 -23.5
s-14.5 -12.5 -23.5 -16.5s-18.833 -6 -29.5 -6h-245c-23.333 0 -45 4.33301 -65 13s-37.333 20.5 -52 35.5s-26.334 32.5 -35.001 52.5s-13 41.333 -13 64v130h30v-130c0 -18.667 3.5 -36.167 10.5 -52.5s16.667 -30.666 29 -42.999s26.666 -22 42.999 -29
s33.833 -10.5 52.5 -10.5h245c13.333 0 24.166 4.5 32.499 13.5s12.5 19.167 12.5 30.5c0 12.667 -6 25 -18 37c-28 28 -55.667 55.833 -83 83.5s-55 55.834 -83 84.501l21 21c12 -13.333 24.333 -26 37 -38s25 -24.333 37 -37h254v75c0 19.333 4 36.166 12 50.499
s18.667 26.333 32 36s28.5 16.834 45.5 21.501s34.833 7 53.5 7c21.333 0 43.166 -3.5 65.499 -10.5s42.833 -17.5 61.5 -31.5v-173zM945.006 238c-14.667 8.66797 -30.332 15.335 -46.999 20.001c-16.667 4.66699 -33.334 7 -50.001 7
c-14.667 0 -28.834 -1.66699 -42.501 -5s-25.667 -8.5 -36 -15.5c-10.3389 -7 -18.6719 -15.833 -24.999 -26.5c-6.33301 -10.667 -9.5 -23.334 -9.5 -38.001v-100c0 -15.333 3 -28.5 9 -39.5s13.833 -20.333 23.5 -28c9.66797 -7.66699 20.835 -13.334 33.5 -17.001
c12.667 -3.66699 25.667 -5.5 39 -5.5s26.333 1.83301 39 5.5s23.834 9.33398 33.5 17.001c9.66699 7.66699 17.5 17 23.5 28s9 24.167 9 39.5v158z" />
    <glyph glyph-name="meemyehf" unicode="&#xfee4;&#xfef2;" horiz-adv-x="1055" 
d="M226 -227.898c6.66699 7.19922 14 13.7988 22 19.8008l49 -45.002l-21 -18.9004zM367 -208.099l49 -45.002l-21 -18.9004l-50 44.1016zM705 49.999c-3.33301 1.33301 -6.32812 2.83301 -8.99512 4.5s-5.66699 3.5 -9 5.5h-216l58 -59c17.333 -18.667 26 -37.667 26 -57
c0 -10 -2 -19.333 -6 -28s-9.33301 -16.5 -16 -23.5s-14.5 -12.5 -23.5 -16.5s-18.833 -6 -29.5 -6h-230c-23.333 0 -45 4.33301 -65 13s-37.333 20.5 -52 35.5s-26.334 32.5 -35.001 52.5s-13 41.333 -13 64v130h30v-130c0 -18.667 3.5 -36.167 10.5 -52.5
s16.667 -30.666 29 -42.999s26.666 -22 42.999 -29s33.833 -10.5 52.5 -10.5h230c13.335 0 24.168 4.5 32.499 13.5c8.33301 9 12.5 19.167 12.5 30.5c0 12.667 -6 25 -18 37c-28 28 -55.667 55.833 -83 83.5s-55 55.834 -83 84.501l21 21l79 -80h264v47
c0 22.667 3.66699 42.5 11 59.5s17.166 30.833 29.499 41.5s26.666 18.667 42.999 24s33.5 8 51.5 8s35.167 -2.66699 51.5 -8s30.666 -13.333 42.999 -24s22.166 -24.5 29.499 -41.5s11 -36.833 11 -59.5v-80c0 -4.66699 -0.166992 -9.33398 -0.5 -14.001s-0.5 -9 -0.5 -13
h81v-30h-88c-10.667 -24.667 -27.5 -43.334 -50.5 -56.001s-48.5 -19 -76.5 -19c-18 0 -35.167 2.66699 -51.5 8c-16.3359 5.33301 -30.6689 13.166 -42.999 23.499c-12.3359 10.333 -22.1689 23.333 -29.499 39c-7.33301 15.667 -11 33.834 -11 54.501zM735.005 44.999
c0 -30 10.501 -52.499 31.501 -67.499s45.5 -22.5 73.5 -22.5c14 0 27.333 2 40 6c12.6738 4 23.8408 9.66699 33.501 17c9.67383 7.33301 17.3408 16.666 23 27.999c5.66699 11.333 8.5 24.333 8.5 39v92c0 18 -2.83301 33.333 -8.5 46s-13.334 23.334 -23.001 32
c-9.66699 8.66699 -20.834 15 -33.501 19s-26 6 -40 6c-28 0 -52.5 -8.33301 -73.5 -25s-31.5 -42.667 -31.5 -78v-92z" />
    <glyph glyph-name="meemyehhmz" unicode="&#xfee3;&#xfe8a;" horiz-adv-x="1060" 
d="M161 261l-0.000976562 -20.999h-103v21h33c-9.33301 7.33398 -16.833 15.667 -22.5 24.999c-5.66699 9.33398 -8.5 18.667 -8.5 27.999c0 14.667 4.5 25.667 13.5 33s20.833 11 35.5 11c6.66699 0 14.334 -1.16699 23.001 -3.5s16 -5.16602 22 -8.49902l-9 -18
c-5.33301 2.66699 -11.333 5 -18 7s-12.667 3 -18 3c-18.667 0 -28 -8 -28 -24c0 -9.33301 5 -19.5 15 -30.5s22 -18.5 36 -22.5h29zM974.999 80.001c0 -20 -3.82715 -37.5 -11.4941 -52.5s-17.667 -27.5 -30 -37.5c-12.3369 -10 -26.6699 -17.5 -43 -22.5
c-16.3369 -5 -33.1699 -7.5 -50.5 -7.5c-16.667 0 -32.834 2.5 -48.501 7.5s-29.834 12.167 -42.501 21.5s-23 21.166 -31 35.499s-12.333 31.166 -13 50.499h-224l63 -64c17.333 -18.667 26 -37.667 26 -57c0 -10 -2 -19.333 -6 -28s-9.33301 -16.5 -16 -23.5
s-14.5 -12.5 -23.5 -16.5s-18.833 -6 -29.5 -6h-245c-23.333 0 -45 4.33301 -65 13s-37.333 20.5 -52 35.5s-26.334 32.5 -35.001 52.5s-13 41.333 -13 64v130h30v-130c0 -18.667 3.5 -36.167 10.5 -52.5s16.667 -30.666 29 -42.999s26.666 -22 42.999 -29
s33.833 -10.5 52.5 -10.5h245c13.333 0 24.166 4.5 32.499 13.5s12.5 19.167 12.5 30.5c0 12.667 -6 25 -18 37c-28 28 -55.667 55.833 -83 83.5s-55 55.834 -83 84.501l21 21c12 -13.333 24.333 -26 37 -38s25 -24.333 37 -37h254v75c0 19.333 4 36.166 12 50.499
s18.667 26.333 32 36s28.5 16.834 45.5 21.501s34.833 7 53.5 7c21.333 0 43.166 -3.5 65.499 -10.5s42.833 -17.5 61.5 -31.5v-173zM945.005 238.001c-14.667 8.66797 -30.332 15.335 -46.999 20.001c-16.667 4.66699 -33.334 7 -50.001 7
c-14.667 0 -28.834 -1.66699 -42.501 -5s-25.667 -8.5 -36 -15.5c-10.3389 -7 -18.6719 -15.833 -24.999 -26.5c-6.33301 -10.667 -9.5 -23.334 -9.5 -38.001v-100c0 -15.333 3 -28.5 9 -39.5s13.833 -20.333 23.5 -28c9.66797 -7.66699 20.835 -13.334 33.5 -17.001
c12.667 -3.66699 25.667 -5.5 39 -5.5s26.333 1.83301 39 5.5s23.834 9.33398 33.5 17.001c9.66699 7.66699 17.5 17 23.5 28s9 24.167 9 39.5v158z" />
    <glyph glyph-name="meemyehhmzf" unicode="&#xfee4;&#xfe8a;" horiz-adv-x="1055" 
d="M161 261l-0.000976562 -20.999h-103v21h33c-9.33301 7.33398 -16.833 15.667 -22.5 24.999c-5.66699 9.33398 -8.5 18.667 -8.5 27.999c0 14.667 4.5 25.667 13.5 33s20.833 11 35.5 11c6.66699 0 14.334 -1.16699 23.001 -3.5s16 -5.16602 22 -8.49902l-9 -18
c-5.33301 2.66699 -11.333 5 -18 7s-12.667 3 -18 3c-18.667 0 -28 -8 -28 -24c0 -9.33301 5 -19.5 15 -30.5s22 -18.5 36 -22.5h29zM704.999 50.001c-3.33301 1.33301 -6.32715 2.83301 -8.99414 4.5s-5.66699 3.5 -9 5.5h-216l58 -59c17.333 -18.667 26 -37.667 26 -57
c0 -10 -2 -19.333 -6 -28s-9.33301 -16.5 -16 -23.5s-14.5 -12.5 -23.5 -16.5s-18.833 -6 -29.5 -6h-230c-23.333 0 -45 4.33301 -65 13s-37.333 20.5 -52 35.5s-26.334 32.5 -35.001 52.5s-13 41.333 -13 64v130h30v-130c0 -18.667 3.5 -36.167 10.5 -52.5
s16.667 -30.666 29 -42.999s26.666 -22 42.999 -29s33.833 -10.5 52.5 -10.5h230c13.335 0 24.168 4.5 32.499 13.5c8.33301 9 12.5 19.167 12.5 30.5c0 12.667 -6 25 -18 37c-28 28 -55.667 55.833 -83 83.5s-55 55.834 -83 84.501l21 21l79 -80h264v47
c0 22.667 3.66699 42.5 11 59.5s17.166 30.833 29.499 41.5s26.666 18.667 42.999 24s33.5 8 51.5 8s35.167 -2.66699 51.5 -8s30.666 -13.333 42.999 -24s22.166 -24.5 29.499 -41.5s11 -36.833 11 -59.5v-80c0 -4.66699 -0.166992 -9.33398 -0.5 -14.001s-0.5 -9 -0.5 -13
h81v-30h-88c-10.667 -24.667 -27.5 -43.334 -50.5 -56.001s-48.5 -19 -76.5 -19c-18 0 -35.167 2.66699 -51.5 8c-16.3359 5.33301 -30.6689 13.166 -42.999 23.499c-12.3359 10.333 -22.1689 23.333 -29.5 39c-7.33301 15.667 -11 33.834 -11 54.501zM735.005 45.001
c0 -30 10.501 -52.499 31.501 -67.499s45.5 -22.5 73.5 -22.5c14 0 27.333 2 40 6c12.6738 4 23.8408 9.66699 33.501 17c9.67383 7.33301 17.3408 16.666 23 27.999c5.66699 11.333 8.5 24.333 8.5 39v92c0 18 -2.83301 33.333 -8.5 46s-13.334 23.334 -23.001 32
c-9.66699 8.66699 -20.834 15 -33.501 19s-26 6 -40 6c-28 0 -52.5 -8.33301 -73.5 -25s-31.5 -42.667 -31.5 -78v-92z" />
    <glyph glyph-name="sadyehhmz" unicode="&#xfebb;&#xfe8a;" horiz-adv-x="1220" 
d="M161 261l-0.000976562 -20.999h-103v21h33c-9.33301 7.33398 -16.833 15.667 -22.5 24.999c-5.66699 9.33398 -8.5 18.667 -8.5 27.999c0 14.667 4.5 25.667 13.5 33s20.833 11 35.5 11c6.66699 0 14.334 -1.16699 23.001 -3.5s16 -5.16602 22 -8.49902l-9 -18
c-5.33301 2.66699 -11.333 5 -18 7s-12.667 3 -18 3c-18.667 0 -28 -8 -28 -24c0 -9.33301 5 -19.5 15 -30.5s22 -18.5 36 -22.5h29zM1070 30.001c9.33301 -0.666992 17.5 2.5 24.5 9.5s10.5 15.5 10.5 25.5v115c0 12 -2.66699 23.833 -8 35.5s-12.333 21.834 -21 30.5
c-8.66699 8.66699 -18.667 15.667 -30 21s-23.333 8 -36 8c-9.33301 0 -18.833 -0.833008 -28.5 -2.5s-21.167 -5.5 -34.5 -11.5c-13.3369 -6 -29.1699 -15.167 -47.5 -27.5c-18.333 -12.334 -40.833 -29.167 -67.5 -50.5l-115 -92l14 -61h339zM544.999 5.00098
c0 -22.667 -4.33008 -44.002 -12.9971 -64.002s-20.5 -37.5 -35.5 -52.5s-32.5 -26.833 -52.5 -35.5s-41.333 -13 -64 -13h-130c-22.667 0 -44 4.33301 -64 13s-37.5 20.5 -52.5 35.5s-26.833 32.5 -35.5 52.5s-13 41.333 -13 64v120h30v-120
c0 -18.667 3.5 -36.167 10.5 -52.5s16.667 -30.666 29 -42.999s26.666 -22 42.999 -29s33.833 -10.5 52.5 -10.5h130c18 0 35.167 3.5 51.5 10.5c16.334 7 30.667 16.667 42.999 29c12.335 12.333 22.168 26.666 29.499 42.999c7.33301 16.333 11 33.833 11 52.5v40h-140
c-8.66797 0 -15.835 2.83301 -21.5 8.5c-5.66699 5.66699 -8.5 12.834 -8.5 21.501v25c0 24 4.66699 46.667 14 68s21.833 39.833 37.5 55.5s34.167 28.167 55.5 37.5s44 14 68 14h157l33 -151c52 40.667 94 73 126 97s58.5 42.333 79.5 55s38.333 20.667 52 24
c13.6738 3.33301 27.8408 5 42.5 5c16.667 0 32.667 -3.33301 48 -10c15.3418 -6.66699 28.6748 -15.667 40 -27c11.333 -11.333 20.333 -24.666 27 -39.999s10 -31.333 10 -48v-115c0 -18 -6.5 -33.333 -19.5 -46s-28.167 -19 -45.5 -19h-364l-53 245h-133
c-20 0 -38.833 -3.83301 -56.5 -11.5s-33 -18 -46 -31s-23.333 -28.333 -31 -46s-11.5 -36.5 -11.5 -56.5v-25h140c8 0 15 -3 21 -9s9 -13 9 -21v-40z" />
    <glyph glyph-name="sadyehhmzf" unicode="&#xfebc;&#xfe8a;" horiz-adv-x="1220" 
d="M161 261l-0.000976562 -20.999h-103v21h33c-9.33301 7.33398 -16.833 15.667 -22.5 24.999c-5.66699 9.33398 -8.5 18.667 -8.5 27.999c0 14.667 4.5 25.667 13.5 33s20.833 11 35.5 11c6.66699 0 14.334 -1.16699 23.001 -3.5s16 -5.16602 22 -8.49902l-9 -18
c-5.33301 2.66699 -11.333 5 -18 7s-12.667 3 -18 3c-18.667 0 -28 -8 -28 -24c0 -9.33301 5 -19.5 15 -30.5s22 -18.5 36 -22.5h29zM652.999 245.001l-132.997 -0.00195312c-20 0 -38.833 -3.83301 -56.5 -11.5s-33 -18 -46 -31s-23.333 -28.333 -31 -46
s-11.5 -36.5 -11.5 -56.5v-25h140c8 0 15 -3 21 -9s9 -13 9 -21v-40c0 -22.667 -4.33301 -44 -13 -64s-20.5 -37.5 -35.5 -52.5s-32.5 -26.833 -52.5 -35.5s-41.333 -13 -64 -13h-130c-22.667 0 -44 4.33301 -64 13s-37.5 20.5 -52.5 35.5s-26.833 32.5 -35.5 52.5
s-13 41.333 -13 64v120h30v-120c0 -18.667 3.5 -36.167 10.5 -52.5s16.667 -30.666 29 -42.999s26.666 -22 42.999 -29s33.833 -10.5 52.5 -10.5h130c18 0 35.167 3.5 51.5 10.5c16.334 7 30.667 16.667 42.999 29c12.335 12.333 22.168 26.666 29.499 42.999
c7.33301 16.333 11 33.833 11 52.5v40h-140c-8.66797 0 -15.835 2.83301 -21.5 8.5c-5.66699 5.66699 -8.5 12.834 -8.5 21.501v25c0 24 4.66699 46.667 14 68s21.833 39.833 37.5 55.5s34.167 28.167 55.5 37.5s44 14 68 14h157l33 -151c52 40.667 94 73 126 97
s58.5 42.333 79.5 55s38.333 20.667 52 24c13.6738 3.33301 27.8408 5 42.5 5c16.667 0 32.667 -3.33301 48 -10c15.3418 -6.66699 28.6748 -15.667 40 -27c11.333 -11.333 20.333 -24.666 27 -39.999s10 -31.333 10 -48v-150h85v-30h-514zM1105 29.999v150
c0 12.667 -2.5 24.834 -7.5 36.5c-5 11.667 -11.667 21.834 -20 30.5c-8.33301 8.66699 -18.333 15.5 -30 20.5s-24.167 7.5 -37.5 7.5c-9.33301 0 -18.833 -0.833008 -28.5 -2.5s-21.167 -5.5 -34.5 -11.5c-13.3369 -6 -29.1699 -15.167 -47.5 -27.5
c-18.333 -12.334 -40.833 -29.167 -67.5 -50.5l-115 -92l14 -61h374z" />
    <glyph glyph-name="dadyehhmz" unicode="&#xfebf;&#xfe8a;" horiz-adv-x="1220" 
d="M841 459c6.66699 8 14 15.333 22 22l48 -50l-21 -21c-8 8 -16 16.167 -24 24.5s-16.333 16.5 -25 24.5zM161 261l-0.000976562 -20.999h-103v21h33c-9.33301 7.33398 -16.833 15.667 -22.5 24.999c-5.66699 9.33398 -8.5 18.667 -8.5 27.999c0 14.667 4.5 25.667 13.5 33
s20.833 11 35.5 11c6.66699 0 14.334 -1.16699 23.001 -3.5s16 -5.16602 22 -8.49902l-9 -18c-5.33301 2.66699 -11.333 5 -18 7s-12.667 3 -18 3c-18.667 0 -28 -8 -28 -24c0 -9.33301 5 -19.5 15 -30.5s22 -18.5 36 -22.5h29zM1070 30.001
c9.33301 -0.666992 17.5 2.5 24.5 9.5s10.5 15.5 10.5 25.5v115c0 12 -2.66699 23.833 -8 35.5s-12.333 21.834 -21 30.5c-8.66699 8.66699 -18.667 15.667 -30 21s-23.333 8 -36 8c-9.33301 0 -18.833 -0.833008 -28.5 -2.5s-21.167 -5.5 -34.5 -11.5
c-13.3369 -6 -29.1699 -15.167 -47.5 -27.5c-18.333 -12.334 -40.833 -29.167 -67.5 -50.5l-115 -92l14 -61h339zM544.999 5.00098c0 -22.667 -4.33008 -44.002 -12.9971 -64.002s-20.5 -37.5 -35.5 -52.5s-32.5 -26.833 -52.5 -35.5s-41.333 -13 -64 -13h-130
c-22.667 0 -44 4.33301 -64 13s-37.5 20.5 -52.5 35.5s-26.833 32.5 -35.5 52.5s-13 41.333 -13 64v120h30v-120c0 -18.667 3.5 -36.167 10.5 -52.5s16.667 -30.666 29 -42.999s26.666 -22 42.999 -29s33.833 -10.5 52.5 -10.5h130c18 0 35.167 3.5 51.5 10.5
c16.334 7 30.667 16.667 42.999 29c12.335 12.333 22.168 26.666 29.499 42.999c7.33301 16.333 11 33.833 11 52.5v40h-140c-8.66797 0 -15.835 2.83301 -21.5 8.5c-5.66699 5.66699 -8.5 12.834 -8.5 21.501v25c0 24 4.66699 46.667 14 68s21.833 39.833 37.5 55.5
s34.167 28.167 55.5 37.5s44 14 68 14h157l33 -151c52 40.667 94 73 126 97s58.5 42.333 79.5 55s38.333 20.667 52 24c13.6738 3.33301 27.8408 5 42.5 5c16.667 0 32.667 -3.33301 48 -10c15.3418 -6.66699 28.6748 -15.667 40 -27
c11.333 -11.333 20.333 -24.666 27 -39.999s10 -31.333 10 -48v-115c0 -18 -6.5 -33.333 -19.5 -46s-28.167 -19 -45.5 -19h-364l-53 245h-133c-20 0 -38.833 -3.83301 -56.5 -11.5s-33 -18 -46 -31s-23.333 -28.333 -31 -46s-11.5 -36.5 -11.5 -56.5v-25h140
c8 0 15 -3 21 -9s9 -13 9 -21v-40z" />
    <glyph glyph-name="dadyehhmzf" unicode="&#xfec0;&#xfe8a;" horiz-adv-x="1220" 
d="M841 459c6.66699 8 14 15.333 22 22l48 -50l-21 -21c-8 8 -16 16.167 -24 24.5s-16.333 16.5 -25 24.5zM161 261l-0.000976562 -20.999h-103v21h33c-9.33301 7.33398 -16.833 15.667 -22.5 24.999c-5.66699 9.33398 -8.5 18.667 -8.5 27.999c0 14.667 4.5 25.667 13.5 33
s20.833 11 35.5 11c6.66699 0 14.334 -1.16699 23.001 -3.5s16 -5.16602 22 -8.49902l-9 -18c-5.33301 2.66699 -11.333 5 -18 7s-12.667 3 -18 3c-18.667 0 -28 -8 -28 -24c0 -9.33301 5 -19.5 15 -30.5s22 -18.5 36 -22.5h29zM652.999 245.001l-132.997 -0.00195312
c-20 0 -38.833 -3.83301 -56.5 -11.5s-33 -18 -46 -31s-23.333 -28.333 -31 -46s-11.5 -36.5 -11.5 -56.5v-25h140c8 0 15 -3 21 -9s9 -13 9 -21v-40c0 -22.667 -4.33301 -44 -13 -64s-20.5 -37.5 -35.5 -52.5s-32.5 -26.833 -52.5 -35.5s-41.333 -13 -64 -13h-130
c-22.667 0 -44 4.33301 -64 13s-37.5 20.5 -52.5 35.5s-26.833 32.5 -35.5 52.5s-13 41.333 -13 64v120h30v-120c0 -18.667 3.5 -36.167 10.5 -52.5s16.667 -30.666 29 -42.999s26.666 -22 42.999 -29s33.833 -10.5 52.5 -10.5h130c18 0 35.167 3.5 51.5 10.5
c16.334 7 30.667 16.667 42.999 29c12.335 12.333 22.168 26.666 29.499 42.999c7.33301 16.333 11 33.833 11 52.5v40h-140c-8.66797 0 -15.835 2.83301 -21.5 8.5c-5.66699 5.66699 -8.5 12.834 -8.5 21.501v25c0 24 4.66699 46.667 14 68s21.833 39.833 37.5 55.5
s34.167 28.167 55.5 37.5s44 14 68 14h157l33 -151c52 40.667 94 73 126 97s58.5 42.333 79.5 55s38.333 20.667 52 24c13.6738 3.33301 27.8408 5 42.5 5c16.667 0 32.667 -3.33301 48 -10c15.3418 -6.66699 28.6748 -15.667 40 -27
c11.333 -11.333 20.333 -24.666 27 -39.999s10 -31.333 10 -48v-150h85v-30h-514zM1105 29.999v150c0 12.667 -2.5 24.834 -7.5 36.5c-5 11.667 -11.667 21.834 -20 30.5c-8.33301 8.66699 -18.333 15.5 -30 20.5s-24.167 7.5 -37.5 7.5
c-9.33301 0 -18.833 -0.833008 -28.5 -2.5s-21.167 -5.5 -34.5 -11.5c-13.3369 -6 -29.1699 -15.167 -47.5 -27.5c-18.333 -12.334 -40.833 -29.167 -67.5 -50.5l-115 -92l14 -61h374z" />
    <glyph glyph-name="alefmd" unicode="&#x622;" horiz-adv-x="220" arabic-form="isolated" 
d="M125 525v-525h-30v525h30zM185 603c-8 -6 -15.5 -10.167 -22.5 -12.5s-13.5 -3.5 -19.5 -3.5c-11.333 0 -21.666 2.16699 -30.999 6.5s-19.666 6.5 -30.999 6.5c-6.66699 0 -13.667 -1.5 -21 -4.5s-15.666 -8.5 -24.999 -16.5v23c9.33301 8 17.666 13.5 24.999 16.5
s14.333 4.5 21 4.5c11.333 0 21.666 -2.16699 30.999 -6.5s19.666 -6.5 30.999 -6.5c6 0 12.5 1.16699 19.5 3.5s14.5 6.5 22.5 12.5v-23z" />
    <glyph glyph-name="alefhmz" unicode="&#x623;" horiz-adv-x="220" arabic-form="isolated" 
d="M125 525v-525h-30v525h30zM161 601l-0.000976562 -20.998h-103v21h33c-9.33301 7.33301 -16.833 15.666 -22.5 24.999s-8.5 18.666 -8.5 27.999c0 14.667 4.5 25.667 13.5 33s20.833 11 35.5 11c6.66699 0 14.334 -1.16699 23.001 -3.5
c8.66699 -2.35449 16 -5.1875 22 -8.5l-9 -18c-5.33301 2.66699 -11.333 5 -18 7s-12.667 3 -18 3c-18.667 0 -28 -8 -28 -24c0 -9.33301 5 -19.5 15 -30.5s22 -18.5 36 -22.5h29z" />
    <glyph glyph-name="wawhmz" unicode="&#x624;" horiz-adv-x="440" arabic-form="isolated" 
d="M325 0l-154.998 0.000976562c-24 0 -44.167 8.16699 -60.5 24.5s-24.5 36.5 -24.5 60.5v65c0 26.667 3.66699 49.834 11 69.5c7.33301 19.667 17.333 35.834 30 48.5c12.667 12.667 27.5 22 44.5 28s34.833 9 53.5 9c17.333 0 37.166 -3.5 59.499 -10.5
s46.166 -17.167 71.499 -30.5v-274c0 -28 -3.5 -51.5 -10.5 -70.5s-16.667 -34.333 -29 -46s-26.833 -20 -43.5 -25s-35 -7.5 -55 -7.5c-35.333 0 -77.666 7.66699 -126.999 23l10 28c46 -14 85 -21 117 -21c15.333 0 29.666 2 42.999 6s24.833 10.667 34.5 20
s17.167 21.666 22.5 36.999s8 34 8 56v10zM325.002 30.001l0.000976562 216c-36.667 19.333 -70.334 29 -101.001 29c-14.667 0 -28.667 -2.5 -42 -7.5s-25 -12.667 -35 -23s-17.833 -23.333 -23.5 -39s-8.5 -34.167 -8.5 -55.5v-65c0 -15.333 5.33301 -28.333 16 -39
s23.667 -16 39 -16h155zM-37.9971 0.000976562v0v0v0v0v0v0v0zM-37.9971 0.000976562v0v0v0v0v0v0v0v0v0v0v0zM-37.9971 0.000976562v0v0v0v0v0zM-37.9971 0.000976562v0v0v0v0v0zM-37.9971 0.000976562v0v0v0zM-37.9971 0.000976562v0v0v0zM-37.9971 0.000976562v0v0v0z
M-37.9971 0.000976562v0v0v0v0v0v0v0zM-37.9971 0.000976562v0v0v0v0v0v0v0v0v0v0v0zM-37.9971 0.000976562v0v0v0v0v0v0v0v0v0v0v0zM-37.9971 0.000976562v0v0v0v0v0v0v0v0v0zM-37.9971 0.000976562v0v0v0v0v0v0v0zM-37.9971 0.000976562v0v0v0zM-37.9971 0.000976562v0v0
v0zM-37.9971 0.000976562v0v0v0zM-37.9971 0.000976562v0v0v0zM-37.9971 0.000976562v0v0v0zM-37.9971 0.000976562v0v0v0zM-37.9971 0.000976562v0v0v0zM271.003 421.001v-21.001h-103v21h33c-9.33301 7.33496 -16.833 15.668 -22.5 25
c-5.66699 9.33496 -8.5 18.668 -8.5 28c0 14.667 4.5 25.667 13.5 33s20.833 11 35.5 11c6.66699 0 14.334 -1.16699 23 -3.5c8.66699 -2.33301 16 -5.16602 22 -8.49902l-9 -18c-5.33301 2.66699 -11.333 5 -18 7s-12.667 3 -18 3c-18.667 0 -28 -8 -28 -24
c0 -9.33301 5 -19.5 15 -30.5s22 -18.5 36 -22.5h29z" />
    <glyph glyph-name="alefhmz2" unicode="&#x625;" horiz-adv-x="220" arabic-form="isolated" 
d="M125 525v-525h-30v525h30zM161 -184l-0.000976562 -20.999h-103v21h33c-9.33301 7.33301 -16.833 15.666 -22.5 24.999s-8.5 18.666 -8.5 27.999c0 14.667 4.5 25.667 13.5 33s20.833 11 35.5 11c6.66699 0 14.334 -1.16699 23.001 -3.5s16 -5.16602 22 -8.49902l-9 -18
c-5.33301 2.66699 -11.333 5 -18 7s-12.667 3 -18 3c-18.667 0 -28 -8 -28 -24c0 -9.33301 5 -19.5 15 -30.5s22 -18.5 36 -22.5h29z" />
    <glyph glyph-name="yehhmz" unicode="&#x626;" horiz-adv-x="670" arabic-form="isolated" 
d="M566 291c-30 9.33301 -57.3291 14.001 -81.9961 14.001c-33.333 0 -59.833 -10.833 -79.5 -32.5s-29.5 -55.834 -29.5 -102.501v-80h180c8 0 15 -3 21 -9s9 -13 9 -21v-55c0 -22.667 -4.33301 -44 -13 -64s-20.5 -37.5 -35.5 -52.5s-32.5 -26.833 -52.5 -35.5
s-41.333 -13 -64 -13h-170c-22.667 0 -44 4.33301 -64 13s-37.5 20.5 -52.5 35.5s-26.833 32.5 -35.5 52.5s-13 41.333 -13 64v120h30v-120c0 -18.667 3.5 -36.167 10.5 -52.5s16.667 -30.666 29 -42.999s26.666 -22 42.999 -29s33.833 -10.5 52.5 -10.5h170
c18 0 35.167 3.5 51.5 10.5c16.334 7 30.667 16.667 42.999 29c12.333 12.333 22.166 26.666 29.499 42.999s11 33.833 11 52.5v55h-180c-8.66797 0 -15.835 2.83301 -21.5 8.5c-5.66699 5.66699 -8.5 12.834 -8.5 21.501v80c0 57.333 12.667 99.166 38 125.499
s59 39.5 101 39.5c13.334 0 27.667 -1.33301 42.999 -4c15.333 -2.66699 31.333 -6.66699 48 -12zM161.004 296.001l-0.000976562 -21.001h-103v21h33c-9.33301 7.33496 -16.833 15.668 -22.5 25c-5.66699 9.33496 -8.5 18.668 -8.5 28c0 14.667 4.5 25.667 13.5 33
s20.833 11 35.5 11c6.66699 0 14.334 -1.16699 23.001 -3.5s16 -5.16602 22 -8.49902l-9 -18c-5.33301 2.66699 -11.333 5 -18 7s-12.667 3 -18 3c-18.667 0 -28 -8 -28 -24c0 -9.33301 5 -19.5 15 -30.5s22 -18.5 36 -22.5h29z" />
    <glyph glyph-name="beh" unicode="&#x628;" horiz-adv-x="770" arabic-form="isolated" 
d="M346 -91c6.66699 8 14 15.333 22 22l48 -50l-21 -21c-8 8 -16 16.167 -24 24.5s-16.333 16.5 -25 24.5zM655 305h30v-240c0 -18.667 -6.5 -34.167 -19.5 -46.5s-28.167 -18.5 -45.5 -18.5h-470c-18.667 0 -34.167 6.16699 -46.5 18.5s-18.5 27.833 -18.5 46.5v240h30
v-240c0 -10 3.33301 -18.333 10 -25s15 -10 25 -10h470c9.33301 0 17.5 3.33301 24.5 10s10.5 15 10.5 25v240z" />
    <glyph glyph-name="marbuta" unicode="&#x629;" horiz-adv-x="440" arabic-form="isolated" 
d="M126 459c6.66699 8 14 15.333 22 22l49 -50l-21 -21zM267 481l49 -50l-21 -21l-50 49zM85 0l-0.000976562 175c0 22.667 3.83301 42.334 11.5 59.001s18 30.167 31 40.5s28 18 45 23s34.833 7.5 53.5 7.5c22 0 44.333 -3.33301 67 -10
c22.667 -6.66797 43.334 -15.335 62.001 -26.001v-269h-270zM324.999 30v221c-35.333 16 -68.333 24 -99 24c-14.667 0 -28.667 -2 -42 -6c-13.334 -4 -25.167 -10 -35.5 -18s-18.5 -18.333 -24.5 -31s-9 -27.667 -9 -45v-145h210z" />
    <glyph glyph-name="teh" unicode="&#x62a;" horiz-adv-x="770" arabic-form="isolated" 
d="M291 459c6.66699 8 14 15.333 22 22l49 -50l-21 -21zM432 481l49 -50l-21 -21l-50 49zM655 305h30v-240c0 -18.667 -6.5 -34.167 -19.5 -46.5s-28.167 -18.5 -45.5 -18.5h-470c-18.667 0 -34.167 6.16699 -46.5 18.5s-18.5 27.833 -18.5 46.5v240h30v-240
c0 -10 3.33301 -18.333 10 -25s15 -10 25 -10h470c9.33301 0 17.5 3.33301 24.5 10s10.5 15 10.5 25v240z" />
    <glyph glyph-name="theh" unicode="&#x62b;" horiz-adv-x="770" arabic-form="isolated" 
d="M291 439c6.66699 8 14 15.333 22 22l49 -50l-21 -21zM432 461l49 -50l-21 -21l-50 49zM346 539c6.66699 8 14 15.333 22 22l48 -50l-21 -21c-8 8 -16 16.167 -24 24.5s-16.333 16.5 -25 24.5zM655 305h30v-240c0 -18.667 -6.5 -34.167 -19.5 -46.5
s-28.167 -18.5 -45.5 -18.5h-470c-18.667 0 -34.167 6.16699 -46.5 18.5s-18.5 27.833 -18.5 46.5v240h30v-240c0 -10 3.33301 -18.333 10 -25s15 -10 25 -10h470c9.33301 0 17.5 3.33301 24.5 10s10.5 15 10.5 25v240z" />
    <glyph glyph-name="jeem" unicode="&#x62c;" horiz-adv-x="465" arabic-form="isolated" 
d="M219 -103c6.66699 8 14 15.333 22 22l48 -50l-21 -21c-8 8 -16 16.167 -24 24.5s-16.333 16.5 -25 24.5zM415 30l-0.00292969 -30h-158c-18 -0 -35.5 -3.16699 -52.5 -9.5s-32 -15.166 -45 -26.499s-23.5 -24.666 -31.5 -39.999s-12 -32 -12 -50
c0 -24.667 5.16699 -44.834 15.5 -60.501s23.333 -28.167 39 -37.5s32.667 -15.833 51 -19.5s35.5 -5.5 51.5 -5.5c7.33301 0 14.333 0.5 21 1.5s13.334 2.16699 20.001 3.5v-30c-6.66699 -1.33301 -13.667 -2.33301 -21 -3s-14.666 -1 -21.999 -1
c-19.333 0 -39.833 2.33301 -61.5 7s-41.667 12.834 -60 24.501c-18.333 11.666 -33.5 27.333 -45.5 47s-18 44.167 -18 73.5c0 22 4.66699 42.5 14 61.5s22 35.5 38 49.5s34.333 25 55 33s42 12 64 12h88c-21.333 21.333 -38.666 46.166 -51.999 74.499
s-25.5 55.166 -36.5 80.499s-22.833 46.666 -35.5 63.999s-29 26 -49 26c-17.333 0 -38.666 -9 -63.999 -27l-17 25c14 10 27.667 17.833 41 23.5s26.666 8.5 39.999 8.5c20.667 0 37.834 -5.5 51.5 -16.5c13.667 -11 25.667 -25.167 36 -42.5
c10.334 -17.334 19.667 -36.667 27.999 -58c8.33301 -21.333 17.333 -42.166 27 -62.499s20.834 -39 33.501 -56s28.667 -30.167 48 -39.5h19zM-17.0029 0v0v0v0v0v0v0v0zM-17.0029 0v0v0v0v0v0v0v0v0v0v0v0zM-17.0029 0v0v0v0v0v0zM-17.0029 0v0v0v0v0v0zM-17.0029 0v0v0v0
zM-17.0029 0v0v0v0zM-17.0029 0v0v0v0zM-17.0029 0v0v0v0v0v0v0v0zM-17.0029 0v0v0v0v0v0v0v0v0v0v0v0zM-17.0029 0v0v0v0v0v0v0v0v0v0v0v0zM-17.0029 0v0v0v0v0v0v0v0v0v0zM-17.0029 0v0v0v0v0v0v0v0zM-17.0029 0v0v0v0zM-17.0029 0v0v0v0zM-17.0029 0v0v0v0zM-17.0029 0v0
v0v0zM-17.0029 0v0v0v0zM-17.0029 0v0v0v0zM-17.0029 0v0v0v0zM-5.00293 0v0v0v0v0v0v0v0zM-5.00293 0v0v0v0v0v0v0v0v0v0v0v0zM-5.00293 0v0v0v0v0v0zM-5.00293 0v0v0v0v0v0zM-5.00293 0v0v0v0zM-5.00293 0v0v0v0zM-5.00293 0v0v0v0zM-5.00293 0v0v0v0v0v0v0v0zM-5.00293 0
v0v0v0v0v0v0v0v0v0v0v0zM-5.00293 0v0v0v0v0v0v0v0v0v0v0v0zM-5.00293 0v0v0v0v0v0v0v0v0v0zM-5.00293 0v0v0v0v0v0v0v0zM-5.00293 0v0v0v0zM-5.00293 0v0v0v0zM-5.00293 0v0v0v0zM-5.00293 0v0v0v0zM-5.00293 0v0v0v0zM-5.00293 0v0v0v0zM-5.00293 0v0v0v0z" />
    <glyph glyph-name="khah" unicode="&#x62e;" horiz-adv-x="465" arabic-form="isolated" 
d="M151 469c6.66699 8 14 15.333 22 22l48 -50l-21 -21c-8 8 -16 16.167 -24 24.5s-16.333 16.5 -25 24.5zM415 30l-0.00292969 -30h-158c-18 -0 -35.5 -3.16699 -52.5 -9.5s-32 -15.166 -45 -26.499s-23.5 -24.666 -31.5 -39.999s-12 -32 -12 -50
c0 -24.667 5.16699 -44.834 15.5 -60.501s23.333 -28.167 39 -37.5s32.667 -15.833 51 -19.5s35.5 -5.5 51.5 -5.5c7.33301 0 14.333 0.5 21 1.5s13.334 2.16699 20.001 3.5v-30c-6.66699 -1.33301 -13.667 -2.33301 -21 -3s-14.666 -1 -21.999 -1
c-19.333 0 -39.833 2.33301 -61.5 7s-41.667 12.834 -60 24.501c-18.333 11.666 -33.5 27.333 -45.5 47s-18 44.167 -18 73.5c0 22 4.66699 42.5 14 61.5s22 35.5 38 49.5s34.333 25 55 33s42 12 64 12h88c-21.333 21.333 -38.666 46.166 -51.999 74.499
s-25.5 55.166 -36.5 80.499s-22.833 46.666 -35.5 63.999s-29 26 -49 26c-17.333 0 -38.666 -9 -63.999 -27l-17 25c14 10 27.667 17.833 41 23.5s26.666 8.5 39.999 8.5c20.667 0 37.834 -5.5 51.5 -16.5c13.667 -11 25.667 -25.167 36 -42.5
c10.334 -17.334 19.667 -36.667 27.999 -58c8.33301 -21.333 17.333 -42.166 27 -62.499s20.834 -39 33.501 -56s28.667 -30.167 48 -39.5h19zM-17.0029 0v0v0v0v0v0v0v0zM-17.0029 0v0v0v0v0v0v0v0v0v0v0v0zM-17.0029 0v0v0v0v0v0zM-17.0029 0v0v0v0v0v0zM-17.0029 0v0v0v0
zM-17.0029 0v0v0v0zM-17.0029 0v0v0v0zM-17.0029 0v0v0v0v0v0v0v0zM-17.0029 0v0v0v0v0v0v0v0v0v0v0v0zM-17.0029 0v0v0v0v0v0v0v0v0v0v0v0zM-17.0029 0v0v0v0v0v0v0v0v0v0zM-17.0029 0v0v0v0v0v0v0v0zM-17.0029 0v0v0v0zM-17.0029 0v0v0v0zM-17.0029 0v0v0v0zM-17.0029 0v0
v0v0zM-17.0029 0v0v0v0zM-17.0029 0v0v0v0zM-17.0029 0v0v0v0zM-5.00293 0v0v0v0v0v0v0v0zM-5.00293 0v0v0v0v0v0v0v0v0v0v0v0zM-5.00293 0v0v0v0v0v0zM-5.00293 0v0v0v0v0v0zM-5.00293 0v0v0v0zM-5.00293 0v0v0v0zM-5.00293 0v0v0v0zM-5.00293 0v0v0v0v0v0v0v0zM-5.00293 0
v0v0v0v0v0v0v0v0v0v0v0zM-5.00293 0v0v0v0v0v0v0v0v0v0v0v0zM-5.00293 0v0v0v0v0v0v0v0v0v0zM-5.00293 0v0v0v0v0v0v0v0zM-5.00293 0v0v0v0zM-5.00293 0v0v0v0zM-5.00293 0v0v0v0zM-5.00293 0v0v0v0zM-5.00293 0v0v0v0zM-5.00293 0v0v0v0zM-5.00293 0v0v0v0z" />
    <glyph glyph-name="zal" unicode="&#x630;" horiz-adv-x="395" arabic-form="isolated" 
d="M116 499c6.66699 8.00391 14 15.3369 22 22l48 -50l-21 -21c-8 8 -16 16.167 -24 24.5s-16.333 16.5 -25 24.5zM285 220c0 22 -9.83203 38.333 -29.499 49s-42.834 16 -69.501 16c-13.333 0 -27 -1 -41 -3s-27.667 -5.66699 -41 -11l-6 27c26.667 11.333 57 17 91 17
c16.667 0 32.5 -1.83301 47.5 -5.5c15 -3.66895 28.333 -9.33594 40 -17c11.667 -7.66699 21 -17.5 28 -29.5s10.5 -26.333 10.5 -43v-220h-250v30h220v190z" />
    <glyph glyph-name="zain" unicode="&#x632;" horiz-adv-x="240" arabic-form="isolated" 
d="M81 459c6.66699 8 14 15.333 22 22l48 -50l-21 -21c-8 8 -16 16.167 -24 24.5s-16.333 16.5 -25 24.5zM115 305l30.0029 -0.000976562v-330c0 -45.333 -10.333 -79.166 -31 -101.499s-49.334 -33.5 -86.001 -33.5c-14.667 0 -30.167 1.66699 -46.5 5s-33.5 8 -51.5 14
c1.33301 4.66602 2.83301 9.33301 4.5 14s3.5 9.33398 5.5 14.001c15.333 -5.33301 30.166 -9.5 44.499 -12.5s28.166 -4.5 41.499 -4.5c26.667 0 48.167 8.16699 64.5 24.5s24.5 43.166 24.5 80.499v330z" />
    <glyph glyph-name="sheen" unicode="&#x634;" horiz-adv-x="940" arabic-form="isolated" 
d="M546 439c6.66699 8 14 15.333 22 22l49 -50l-21 -21zM687 461l49 -50l-21 -21l-50 49zM601 539c6.66699 8 14 15.333 22 22l48 -50l-21 -21c-8 8 -16 16.167 -24 24.5s-16.333 16.5 -25 24.5zM825 305l30.002 -0.00195312v-240c0 -18.667 -6.5 -34.167 -19.5 -46.5
s-28.167 -18.5 -45.5 -18.5h-355v-75c0 -18.667 -6.5 -34.167 -19.5 -46.5s-28.167 -18.5 -45.5 -18.5h-120c-23.333 0 -45 4.33301 -65 13s-37.333 20.334 -52 35.001s-26.334 32 -35.001 52s-13 41.667 -13 65v130h30v-130c0 -18.667 3.5 -36.167 10.5 -52.5
s16.667 -30.666 29 -42.999s26.666 -22 42.999 -29s33.833 -10.5 52.5 -10.5h120c9.33301 0 17.5 3.33301 24.5 10s10.5 15 10.5 25v380h30v-275h180v275h30v-275h145c9.33301 0 17.5 3.33301 24.5 10s10.5 15 10.5 25v240z" />
    <glyph glyph-name="dad" unicode="&#x636;" horiz-adv-x="920" arabic-form="isolated" 
d="M571 459c6.66699 8 14 15.333 22 22l48 -50l-21 -21c-8 8 -16 16.167 -24 24.5s-16.333 16.5 -25 24.5zM835 65c0 -18.667 -6.49707 -34.167 -19.4971 -46.5s-28.167 -18.5 -45.5 -18.5h-355v-75c0 -17.333 -6.66699 -32.5 -20 -45.5s-28.333 -19.5 -45 -19.5h-100
c-23.333 0 -45 4.33301 -65 13s-37.333 20.5 -52 35.5s-26.334 32.5 -35.001 52.5s-13 41.333 -13 64v130h30v-130c0 -18.667 3.5 -36.167 10.5 -52.5s16.667 -30.666 29 -42.999s26.666 -22 42.999 -29s33.833 -10.5 52.5 -10.5h100c9.33301 0 17.5 3.33301 24.5 10
s10.5 15 10.5 25v370h30v-181l98 77c30 23.333 55 41.666 75 54.999c20 13.334 37.333 23.167 52 29.5s27.167 10.333 37.5 12s21.166 2.5 32.499 2.5c17.333 0 33.5 -3.33301 48.5 -10s28.167 -15.667 39.5 -27c11.333 -11.334 20.333 -24.667 27 -40s10 -31.333 10 -48
v-100zM805.003 165c0 12.667 -2.5 24.832 -7.5 36.498c-5 11.667 -11.667 21.834 -20 30.5c-8.33301 8.66699 -18.333 15.5 -30 20.5s-24.167 7.5 -37.5 7.5c-9.33594 0 -18.6689 -0.666992 -28 -2c-9.33301 -1.33301 -20.5 -5 -33.5 -11s-28.667 -15.167 -47 -27.5
s-41.5 -29.5 -69.5 -51.5c-19.334 -15.333 -38.834 -30.666 -58.5 -45.999c-19.667 -15.333 -39.167 -30.666 -58.5 -45.999v-46h355c9.33301 0 17.5 3.33301 24.5 10s10.5 15 10.5 25v100z" />
    <glyph glyph-name="zah" unicode="&#x638;" horiz-adv-x="700" arabic-form="isolated" 
d="M391 459c6.66699 8 14 15.333 22 22l48 -50l-21 -21c-8 8 -16 16.167 -24 24.5s-16.333 16.5 -25 24.5zM615 65c0 -18.667 -6.5 -34.167 -19.5 -46.5s-28.167 -18.5 -45.5 -18.5h-480c-4.66699 0 -8.33398 1.5 -11.001 4.5s-4 6.5 -4 10.5s1.33301 7.5 4 10.5
s6.33398 4.5 11.001 4.5h95v495h30v-413l99 79c28 22 51.833 39.667 71.5 53s36.834 23.333 51.501 30s27.667 11 39 13c11.334 2 22.667 3 33.999 3c17.333 0 33.5 -3.33301 48.5 -10s28.167 -15.667 39.5 -27c11.333 -11.334 20.333 -24.667 27 -40s10 -31.333 10 -48
v-100zM585 165c0 12.667 -2.50098 24.834 -7.50098 36.5c-5 11.667 -11.667 21.834 -20 30.5c-8.33301 8.66699 -18.333 15.5 -30 20.5s-24.167 7.5 -37.5 7.5c-10 0 -20.167 -1 -30.5 -3s-22.166 -6.16699 -35.499 -12.5s-28.833 -15.5 -46.5 -27.5
s-39.5 -28.333 -65.5 -49l-117 -93v-45h355c9.33301 0 17.5 3.33301 24.5 10s10.5 15 10.5 25v100z" />
    <glyph glyph-name="ghain" unicode="&#x63a;" horiz-adv-x="420" arabic-form="isolated" 
d="M181 459c6.66699 8 14 15.333 22 22l48 -50l-21 -21c-8 8 -16 16.167 -24 24.5s-16.333 16.5 -25 24.5zM314 -274c-6.66699 -1.33301 -13.668 -2.33301 -21.001 -3s-14.666 -1 -21.999 -1c-20.667 0 -42 2.5 -64 7.5s-42 13.333 -60 25s-32.667 27.167 -44 46.5
s-17 43.666 -17 72.999c0 18 3.16699 35 9.5 51s14.833 30.333 25.5 43s23.334 23.667 38.001 33s30.334 16.333 47 21c-32 17.333 -56.833 40.333 -74.5 69s-26.5 57 -26.5 85c0 16 2.5 30.833 7.5 44.5s12.667 25.667 23 36s23.666 18.5 39.999 24.5s35.5 9 57.5 9
c20 0 40.333 -3 61 -9s40 -14.333 58 -25l-11 -28c-16 9.33301 -33.333 17 -52 23s-37.334 9 -56.001 9c-34 0 -58.833 -8.16699 -74.5 -24.5s-23.5 -36.166 -23.5 -59.499c0 -15.333 3.33301 -31 10 -47s16.334 -31 29 -45c12.667 -14 27.834 -25.833 45.5 -35.5
c17.667 -9.66699 37.167 -15.834 58.5 -18.501h87v-30h-108c-18 0 -35.5 -3.16699 -52.5 -9.5s-32 -15.166 -45 -26.499s-23.5 -24.666 -31.5 -39.999s-12 -32 -12 -50c0 -24.667 5.16699 -44.834 15.5 -60.501s23.333 -28.167 39 -37.5s32.667 -15.833 51 -19.5
s35.5 -5.5 51.5 -5.5c7.33301 0 14.333 0.5 21 1.5s13.334 2.16699 20.001 3.5v-30z" />
    <glyph glyph-name="feh" unicode="&#x641;" horiz-adv-x="850" arabic-form="isolated" 
d="M592 459c6.66699 8 14 15.333 22 22l48 -50l-21 -21c-8 8 -16 16.167 -24 24.5s-16.333 16.5 -25 24.5zM485 203c0 29.333 8.83203 53.667 26.499 73s47.167 29 88.5 29h100c17.333 0 32.5 -6.5 45.5 -19.5s19.5 -28.167 19.5 -45.5v-240h-615
c-18.667 0 -34.167 6.16699 -46.5 18.5s-18.5 27.833 -18.5 46.5v240h30v-240c0 -10 3.33301 -18.333 10 -25s15 -10 25 -10h441c-15.333 10 -29.5 22.167 -42.5 36.5s-24.167 29.5 -33.5 45.5s-16.666 31.833 -21.999 47.5s-8 30.167 -8 43.5zM514.999 203.001
c0 -16 4.5 -34.167 13.5 -54.5s21 -39.166 36 -56.499s32.5 -32 52.5 -44s41 -18 63 -18h55v210c0 9.33301 -3.5 17.5 -10.5 24.5s-15.167 10.5 -24.5 10.5h-100c-30.667 0 -52.5 -6.83301 -65.5 -20.5s-19.5 -30.834 -19.5 -51.501z" />
    <glyph glyph-name="qaf" unicode="&#x642;" horiz-adv-x="640" arabic-form="isolated" 
d="M326 499c6.66699 8.00391 14 15.3369 22 22l49 -50l-21 -21zM467 521l49 -50l-21 -21l-50 49zM555 25c0 -22.667 -4.33203 -44.002 -12.999 -64.002s-20.5 -37.5 -35.5 -52.5s-32.5 -26.833 -52.5 -35.5s-41.333 -13 -64 -13h-140c-23.333 0 -45 4.33301 -65 13
s-37.333 20.5 -52 35.5s-26.334 32.5 -35.001 52.5s-13 41.333 -13 64v130h30v-130c0 -18.667 3.5 -36.167 10.5 -52.5s16.667 -30.666 29 -42.999s26.666 -22 42.999 -29s33.833 -10.5 52.5 -10.5h140c20 0 38.333 4 55 12s30.834 19 42.501 33s20.834 30 27.501 48
s10 37 10 57h-155c-24 0 -44.167 8.16699 -60.5 24.5s-24.5 36.5 -24.5 60.5v65c0 26.667 3.66699 49.834 11 69.5c7.33301 19.667 17.333 35.834 30 48.501s27.334 22 44.001 28s34.667 9 54 9c19.334 0 40.167 -3.5 62.499 -10.5c22.333 -7 45.166 -17.5 68.499 -31.5
v-278zM525.001 69.998v216c-36.667 19.333 -70.334 29 -101 29c-14.667 0 -28.667 -2.5 -42 -7.5s-25 -12.667 -35 -23s-17.833 -23.333 -23.5 -39s-8.5 -34.167 -8.5 -55.5v-65c0 -15.333 5.33301 -28.333 16 -39s23.667 -16 39 -16h155z" />
    <glyph glyph-name="noon" unicode="&#x646;" horiz-adv-x="520" arabic-form="isolated" 
d="M221 459c6.66699 8 14 15.333 22 22l48 -50l-21 -21c-8 8 -16 16.167 -24 24.5s-16.333 16.5 -25 24.5zM435 -35c0 -18.667 -6.49805 -34.1689 -19.498 -46.502s-28.167 -18.5 -45.5 -18.5h-120c-23.333 0 -45 4.33301 -65 13s-37.333 20.334 -52 35.001
s-26.334 32 -35.001 52s-13 41.667 -13 65v140h30v-140c0 -18.667 3.5 -36.167 10.5 -52.5s16.667 -30.666 29 -42.999s26.666 -22 42.999 -29s33.833 -10.5 52.5 -10.5h120c9.33301 0 17.5 3.33301 24.5 10s10.5 15 10.5 25v340h30v-340zM28.002 -0.00195312v0v0v0v0v0v0v0
zM28.002 -0.00195312v0v0v0v0v0v0v0v0v0v0v0zM28.002 -0.00195312v0v0v0v0v0zM28.002 -0.00195312v0v0v0v0v0zM28.002 -0.00195312v0v0v0zM28.002 -0.00195312v0v0v0zM28.002 -0.00195312v0v0v0zM28.002 -0.00195312v0v0v0v0v0v0v0zM28.002 -0.00195312v0v0v0v0v0v0v0v0v0v0
v0zM28.002 -0.00195312v0v0v0v0v0v0v0v0v0v0v0zM28.002 -0.00195312v0v0v0v0v0v0v0v0v0zM28.002 -0.00195312v0v0v0v0v0v0v0zM28.002 -0.00195312v0v0v0zM28.002 -0.00195312v0v0v0zM28.002 -0.00195312v0v0v0zM28.002 -0.00195312v0v0v0zM28.002 -0.00195312v0v0v0z
M28.002 -0.00195312v0v0v0zM28.002 -0.00195312v0v0v0zM28.002 -0.00195312v0v0v0v0v0v0v0zM28.002 -0.00195312v0v0v0v0v0v0v0v0v0v0v0zM28.002 -0.00195312v0v0v0v0v0zM28.002 -0.00195312v0v0v0v0v0zM28.002 -0.00195312v0v0v0zM28.002 -0.00195312v0v0v0z
M28.002 -0.00195312v0v0v0zM28.002 -0.00195312v0v0v0v0v0v0v0zM28.002 -0.00195312v0v0v0v0v0v0v0v0v0v0v0zM28.002 -0.00195312v0v0v0v0v0v0v0v0v0v0v0zM28.002 -0.00195312v0v0v0v0v0v0v0v0v0zM28.002 -0.00195312v0v0v0v0v0v0v0zM28.002 -0.00195312v0v0v0z
M28.002 -0.00195312v0v0v0zM28.002 -0.00195312v0v0v0zM28.002 -0.00195312v0v0v0zM28.002 -0.00195312v0v0v0zM28.002 -0.00195312v0v0v0zM28.002 -0.00195312v0v0v0z" />
    <glyph glyph-name="yeh" unicode="&#x64a;" horiz-adv-x="670" arabic-form="isolated" 
d="M241 -262.898c6.66699 7.19922 14 13.7998 22 19.8008l49 -45.002l-21 -18.9004zM382 -243.098l49 -45.002l-21 -18.9004l-50 44.1016zM566 291c-30 9.33301 -57.3291 14.001 -81.9961 14.001c-33.333 0 -59.833 -10.833 -79.5 -32.5s-29.5 -55.834 -29.5 -102.501v-80
h180c8 0 15 -3 21 -9s9 -13 9 -21v-55c0 -22.667 -4.33301 -44 -13 -64s-20.5 -37.5 -35.5 -52.5s-32.5 -26.833 -52.5 -35.5s-41.333 -13 -64 -13h-170c-22.667 0 -44 4.33301 -64 13s-37.5 20.5 -52.5 35.5s-26.833 32.5 -35.5 52.5s-13 41.333 -13 64v120h30v-120
c0 -18.667 3.5 -36.167 10.5 -52.5s16.667 -30.666 29 -42.999s26.666 -22 42.999 -29s33.833 -10.5 52.5 -10.5h170c18 0 35.167 3.5 51.5 10.5c16.334 7 30.667 16.667 42.999 29c12.333 12.333 22.166 26.666 29.499 42.999s11 33.833 11 52.5v55h-180
c-8.66797 0 -15.835 2.83301 -21.5 8.5c-5.66699 5.66699 -8.5 12.834 -8.5 21.501v80c0 57.333 12.667 99.166 38 125.499s59 39.5 101 39.5c13.334 0 27.667 -1.33301 42.999 -4c15.333 -2.66699 31.333 -6.66699 48 -12z" />
    <glyph glyph-name="sennan" unicode="&#x66e;" horiz-adv-x="260" 
d="M145 305h30v-305h-190c-4 0 -7.5 1.5 -10.5 4.5s-4.5 6.5 -4.5 10.5s1.5 7.5 4.5 10.5s6.5 4.5 10.5 4.5h160v275z" />
    <glyph glyph-name="sennam" unicode="&#x66e;" horiz-adv-x="300" 
d="M-30 15c0 4 1.5 7.5 4.5 10.5s6.5 4.5 10.5 4.5h150v275h30v-275h135v-30h-315c-4 0 -7.5 1.5 -10.5 4.5s-4.5 6.5 -4.5 10.5z" />
    <glyph glyph-name="behfc" unicode="&#x66e;" horiz-adv-x="770" 
d="M115 65c0 -10 3.33301 -18.333 10 -25s15 -10 25 -10h495v275h30v-275h95v-30h-620c-18.667 0 -34.167 6.16699 -46.5 18.5s-18.5 27.833 -18.5 46.5v240h30v-240z" />
    <glyph glyph-name="uni066F.init" unicode="&#x66f;" horiz-adv-x="450" 
d="M85 203c0 29.333 8.83203 53.667 26.499 73s47.167 29 88.5 29h100c17.333 0 32.5 -6.5 45.5 -19.5s19.5 -28.167 19.5 -45.5v-240h-380c-4 0 -7.5 1.5 -10.5 4.5s-4.5 6.5 -4.5 10.5s1.5 7.5 4.5 10.5s6.5 4.5 10.5 4.5h206c-15.333 10 -29.5 22.167 -42.5 36.5
s-24.167 29.5 -33.5 45.5s-16.666 31.833 -21.999 47.5s-8 30.167 -8 43.5zM114.999 203.001c0 -16 4.33203 -33.999 12.999 -53.999s20.334 -38.667 35.001 -56s31.667 -32 51 -44s40 -18.333 62 -19h59v210c0 9.33301 -3.5 17.5 -10.5 24.5s-15.167 10.5 -24.5 10.5h-100
c-30.667 0 -52.5 -6.83301 -65.5 -20.5s-19.5 -30.834 -19.5 -51.501z" />
    <glyph glyph-name="uni066F.medi" unicode="&#x66f;" horiz-adv-x="480" 
d="M149 30c-19.333 13.333 -34.833 30.667 -46.5 52s-17.5 44.666 -17.5 69.999c0 21.333 4 41.333 12 60s19 34.834 33 48.5c14 13.667 30.5 24.5 49.5 32.5s39.167 12 60.5 12s41.333 -4 60 -12s35 -18.833 49 -32.5s25.167 -29.834 33.5 -48.501s12.5 -38.667 12.5 -60
c0 -25.333 -6 -48.666 -18 -69.999s-27.667 -38.666 -47 -51.999h150v-30h-495c-4 0 -7.5 1.5 -10.5 4.5s-4.5 6.5 -4.5 10.5s1.5 7.5 4.5 10.5s6.5 4.5 10.5 4.5h164zM115 152.001c0 -16.667 3.16699 -32.333 9.5 -47s15 -27.5 26 -38.5s23.833 -19.833 38.5 -26.5
s30.667 -10 48 -10h3c17.333 0 33.5 3.16699 48.5 9.5s28.167 15 39.5 26s20.333 24 27 39s10 30.833 10 47.5s-3.33301 32.5 -10 47.5s-15.667 28.167 -27 39.5s-24.5 20.166 -39.5 26.499s-31.167 9.5 -48.5 9.5s-33.5 -3.16699 -48.5 -9.5s-28.167 -15.166 -39.5 -26.499
s-20.333 -24.5 -27 -39.5s-10 -30.833 -10 -47.5z" />
    <glyph glyph-name="qaffc" unicode="&#x66f;" horiz-adv-x="625" 
d="M390 -150c20 0 38.334 4 55.001 12s30.834 18.833 42.501 32.5s20.834 29.5 27.501 47.5s10 37.333 10 58h-155c-24 0 -44.167 8.16699 -60.5 24.5s-24.5 36.5 -24.5 60.5v65c0 26.667 3.66699 49.834 11 69.5c7.33301 19.667 17.333 35.834 30 48.5
c12.667 12.667 27.334 22 44.001 28s34.667 9 54 9c19.334 0 40.167 -3.5 62.499 -10.5c22.333 -7 45.166 -17.5 68.499 -31.5v-233h70v-30h-70c0 -24.667 -4 -47.834 -12 -69.501s-19.333 -40.667 -34 -57s-32 -29.333 -52 -39s-42.333 -14.5 -67 -14.5h-140
c-23.333 0 -45 4.33301 -65 13s-37.333 20.5 -52 35.5s-26.334 32.5 -35.001 52.5s-13 41.333 -13 64v130h30v-130c0 -18.667 3.5 -36.167 10.5 -52.5s16.667 -30.666 29 -42.999s26.666 -22 42.999 -29s33.833 -10.5 52.5 -10.5h140zM525.001 30v216
c-36.667 19.333 -70.334 29 -101 29c-14.667 0 -28.667 -2.5 -42 -7.5s-25 -12.667 -35 -23s-17.833 -23.333 -23.5 -39s-8.5 -34.167 -8.5 -55.5v-65c0 -15.333 5.33301 -28.333 16 -39s23.667 -16 39 -16h155z" />
    <glyph glyph-name="wasl" unicode="&#x671;" horiz-adv-x="220" arabic-form="isolated" 
d="M125 525v-525h-30v525h30zM40 599h15v56h18v-29l25 21c5.33301 4.66699 11.333 7 18 7h39c3.33301 0 6.5 -1.66699 9.5 -5s4.5 -7 4.5 -11v-58h-129v19zM73 605v-6h77v36h-41z" />
    <glyph glyph-name="uni0679" unicode="&#x679;" horiz-adv-x="770" arabic-form="isolated" 
d="M655 305h30v-240c0 -18.667 -6.5 -34.167 -19.5 -46.5s-28.167 -18.5 -45.5 -18.5h-470c-18.667 0 -34.167 6.16699 -46.5 18.5s-18.5 27.833 -18.5 46.5v240h30v-240c0 -10 3.33301 -18.333 10 -25s15 -10 25 -10h470c9.33301 0 17.5 3.33301 24.5 10s10.5 15 10.5 25
v240zM325 419h15v106h17v-79l26 21c5.33301 4.66699 11.333 7 18 7h39c3.33301 0 6.5 -1.66699 9.5 -5s4.5 -7 4.5 -11v-58h-129v19zM357 426v-7h78v36h-41z" />
    <glyph glyph-name="uni067E" unicode="&#x67e;" horiz-adv-x="770" arabic-form="isolated" 
d="M291 -81c6.66699 8 14 15.333 22 22l49 -50l-21 -21zM432 -59l49 -50l-21 -21l-50 49zM356 -171c6.66699 8 14 15.3359 22 22.0029c7.33496 -8.66699 15.168 -16.834 23.5 -24.501c8.33301 -7.66699 16.5 -15.834 24.5 -24.501l-21 -21
c-8.66797 8 -16.835 16.167 -24.5 24.5c-7.66797 8.33301 -15.835 16.166 -24.5 23.499zM655 305.003h30v-240c0 -18.667 -6.5 -34.167 -19.5 -46.5s-28.167 -18.5 -45.5 -18.5h-470c-18.667 0 -34.167 6.16699 -46.5 18.5s-18.5 27.833 -18.5 46.5v240h30v-240
c0 -10 3.33301 -18.333 10 -25s15 -10 25 -10h470c9.33301 0 17.5 3.33301 24.5 10s10.5 15 10.5 25v240z" />
    <glyph glyph-name="uni0686" unicode="&#x686;" horiz-adv-x="490" arabic-form="isolated" 
d="M415 20l-0.00195312 -19.998h-158c-18 0 -35.5 -3.16699 -52.5 -9.5s-32 -15.166 -45 -26.499s-23.5 -24.666 -31.5 -39.999s-12 -32 -12 -50c0 -24.667 5.16699 -44.834 15.5 -60.501s23.333 -28.167 39 -37.5s32.667 -15.833 51 -19.5s35.5 -5.5 51.5 -5.5
c7.33301 0 14.333 0.5 21 1.5s13.334 2.16699 20.001 3.5v-30c-6.66699 -1.33301 -13.667 -2.33301 -21 -3s-14.666 -1 -21.999 -1c-19.333 0 -39.833 2.33301 -61.5 7s-41.667 12.834 -60 24.501c-18.333 11.666 -33.5 27.333 -45.5 47s-18 44.167 -18 73.5
c0 22 4.66699 42.5 14 61.5s22 35.5 38 49.5s34.333 25 55 33s42 12 64 12h88c-21.333 21.333 -38.666 46.166 -51.999 74.499s-25.5 55.166 -36.5 80.499s-22.833 46.666 -35.5 63.999s-29 26 -49 26c-17.333 0 -38.666 -9 -63.999 -27l-17 25c14 10 27.667 17.833 41 23.5
s26.666 8.5 39.999 8.5c20.667 0 38 -5.66699 52 -17s26.167 -25.833 36.5 -43.5c10.334 -17.667 19.667 -37.334 27.999 -59.001c8.33496 -21.667 17.668 -42.667 28 -63c10.333 -20.333 22 -38.833 35 -55.5s29.5 -29 49.5 -37zM256.998 -80.998
c3.33496 4 6.66895 7.83301 10 11.5c3.33398 3.66699 6.66699 7.16699 10 10.5l44 -50l-19 -21zM383.999 -58.998l44 -50l-19 -21l-45 49zM315.999 -170.998c6.66699 8.66699 13.3311 16.0029 19.998 22.0029c6.66699 -8.66699 13.667 -16.834 21 -24.501
c7.33398 -7.66699 14.667 -15.834 22 -24.501l-19 -21c-7.33301 8 -14.666 16.167 -21.999 24.5s-14.666 16.166 -21.999 23.499z" />
    <glyph glyph-name="uni0688" unicode="&#x688;" horiz-adv-x="395" arabic-form="isolated" 
d="M285 220c0 22 -9.83203 38.333 -29.499 49s-42.834 16 -69.501 16c-13.333 0 -27 -1 -41 -3s-27.667 -5.66699 -41 -11l-6 27c26.667 11.333 57 17 91 17c16.667 0 32.5 -1.83301 47.5 -5.5c15 -3.66895 28.333 -9.33594 40 -17c11.667 -7.66699 21 -17.5 28 -29.5
s10.5 -26.333 10.5 -43v-220h-250v30h220v190zM100.001 449h15v106h17v-79l26 21c5.33301 4.66699 11.333 7 18 7h39c3.33301 0 6.5 -1.66699 9.5 -5s4.5 -7 4.5 -11v-58h-129v19zM132.001 456v-7h78v36h-41z" />
    <glyph glyph-name="uni0691" unicode="&#x691;" horiz-adv-x="240" arabic-form="isolated" 
d="M115 305l30.0029 -0.000976562v-330c0 -45.333 -10.333 -79.166 -31 -101.499s-49.334 -33.5 -86.001 -33.5c-14.667 0 -30.167 1.66699 -46.5 5s-33.5 8 -51.5 14c1.33301 4.66602 2.83301 9.33301 4.5 14s3.5 9.33398 5.5 14.001
c15.333 -5.33301 30.166 -9.5 44.499 -12.5s28.166 -4.5 41.499 -4.5c26.667 0 48.167 8.16699 64.5 24.5s24.5 43.166 24.5 80.499v330zM44.0029 418.999h15v106h17v-79l26 21c5.33301 4.66699 11.333 7 18 7h39c3.33301 0 6.5 -1.66699 9.5 -5s4.5 -7 4.5 -11v-58h-129v19
zM76.0029 425.999v-7h78v36h-41z" />
    <glyph glyph-name="uni0698" unicode="&#x698;" horiz-adv-x="240" arabic-form="isolated" 
d="M30.3975 439c6.00098 8 12.6006 15.333 19.8008 22l44.1016 -50l-18.9014 -21zM157.3 461l44.1016 -50l-18.9004 -21l-45.001 49zM79.8984 539c6 8 12.5996 15.333 19.7998 22l43.2012 -50l-18.9004 -21c-7.2002 8 -14.4004 16.167 -21.6006 24.5
s-14.7002 16.5 -22.5 24.5zM114.999 305l30.0029 -0.000976562v-330c0 -45.333 -10.333 -79.166 -31 -101.499s-49.334 -33.5 -86.001 -33.5c-14.667 0 -30.167 1.66699 -46.5 5s-33.5 8 -51.5 14c1.33301 4.66602 2.83301 9.33301 4.5 14s3.5 9.33398 5.5 14.001
c15.333 -5.33301 30.166 -9.5 44.499 -12.5s28.166 -4.5 41.499 -4.5c26.667 0 48.167 8.16699 64.5 24.5s24.5 43.166 24.5 80.499v330z" />
    <glyph glyph-name="uni069C.init" unicode="&#x69c;" horiz-adv-x="660" 
d="M256 439c6.66699 8 14 15.333 22 22l49 -50l-21 -21zM397 461l49 -50l-21 -21l-50 49zM311 539c6.66699 8 14 15.333 22 22l48 -50l-21 -21c-8 8 -16 16.167 -24 24.5s-16.333 16.5 -25 24.5zM256 -81c6.66699 8 14 15.333 22 22l49 -50l-21 -21zM397 -59l49 -50l-21 -21
l-50 49zM321 -171c6.66699 8 14 15.3359 22 22.0029c7.33496 -8.66699 15.168 -16.834 23.5 -24.501c8.33301 -7.66699 16.5 -15.834 24.5 -24.501l-21 -21c-8.66797 8 -16.835 16.167 -24.5 24.5c-7.66797 8.33301 -15.835 16.166 -24.5 23.499zM-15 0.00292969
c-4.66699 0 -8.33398 1.5 -11.001 4.5s-4 6.5 -4 10.5s1.33301 7.5 4 10.5s6.33398 4.5 11.001 4.5h140v275h30v-275h180v275h30v-275h145c9.33301 0 17.5 3.33301 24.5 10s10.5 15 10.5 25v240h30v-240c0 -18.667 -6.5 -34.167 -19.5 -46.5s-28.167 -18.5 -45.5 -18.5h-525
z" />
    <glyph glyph-name="uni069C.medi" unicode="&#x69c;" horiz-adv-x="700" 
d="M256 439c6.66699 8 14 15.333 22 22l49 -50l-21 -21zM397 461l49 -50l-21 -21l-50 49zM311 539c6.66699 8 14 15.333 22 22l48 -50l-21 -21c-8 8 -16 16.167 -24 24.5s-16.333 16.5 -25 24.5zM256 -81c6.66699 8 14 15.333 22 22l49 -50l-21 -21zM397 -59l49 -50l-21 -21
l-50 49zM321 -171c6.66699 8 14 15.3359 22 22.0029c7.33496 -8.66699 15.168 -16.834 23.5 -24.501c8.33301 -7.66699 16.5 -15.834 24.5 -24.501l-21 -21c-8.66797 8 -16.835 16.167 -24.5 24.5c-7.66797 8.33301 -15.835 16.166 -24.5 23.499zM125 305.003h30v-275h180
v275h30v-275h180v275h30v-275h125v-30h-715c-4.66699 0 -8.33398 1.5 -11.001 4.5s-4 6.5 -4 10.5s1.33301 7.5 4 10.5s6.33398 4.5 11.001 4.5h140v275z" />
    <glyph glyph-name="uni069C.fina" unicode="&#x69c;" horiz-adv-x="980" 
d="M546 439c6.66699 8 14 15.333 22 22l49 -50l-21 -21zM687 461l49 -50l-21 -21l-50 49zM601 539c6.66699 8 14 15.333 22 22l48 -50l-21 -21c-8 8 -16 16.167 -24 24.5s-16.333 16.5 -25 24.5zM569 -81c6.66699 8 14 15.333 22 22l49 -50l-21 -21zM710 -59l49 -50l-21 -21
l-50 49zM634 -171c6.66699 8 14.0029 15.3359 22.0029 22.0029c7.33301 -8.66699 15.166 -16.834 23.499 -24.501s16.5 -15.834 24.5 -24.501l-21 -21c-8.66699 8 -16.834 16.167 -24.501 24.5s-15.834 16.166 -24.501 23.499zM405.003 305.003l30.002 -0.00195312v-275h180
v275h30v-275h180v275h30v-275h125v-30h-545v-75c0 -18.667 -6.5 -34.167 -19.5 -46.5s-28.167 -18.5 -45.5 -18.5h-120c-23.333 0 -45 4.33301 -65 13s-37.333 20.334 -52 35.001s-26.334 32 -35.001 52s-13 41.667 -13 65v130h30v-130c0 -18.667 3.5 -36.167 10.5 -52.5
s16.667 -30.666 29 -42.999s26.666 -22 42.999 -29s33.833 -10.5 52.5 -10.5h120c9.33301 0 17.5 3.33301 24.5 10s10.5 15 10.5 25v380z" />
    <glyph glyph-name="fehnc" unicode="&#x6a1;" horiz-adv-x="450" 
d="M85 203c0 29.333 8.83203 53.667 26.499 73s47.167 29 88.5 29h100c17.333 0 32.5 -6.5 45.5 -19.5s19.5 -28.167 19.5 -45.5v-240h-380c-4 0 -7.5 1.5 -10.5 4.5s-4.5 6.5 -4.5 10.5s1.5 7.5 4.5 10.5s6.5 4.5 10.5 4.5h206c-15.333 10 -29.5 22.167 -42.5 36.5
s-24.167 29.5 -33.5 45.5s-16.666 31.833 -21.999 47.5s-8 30.167 -8 43.5zM114.999 203.001c0 -16 4.33203 -33.999 12.999 -53.999s20.334 -38.667 35.001 -56s31.667 -32 51 -44s40 -18.333 62 -19h59v210c0 9.33301 -3.5 17.5 -10.5 24.5s-15.167 10.5 -24.5 10.5h-100
c-30.667 0 -52.5 -6.83301 -65.5 -20.5s-19.5 -30.834 -19.5 -51.501z" />
    <glyph glyph-name="fehmc" unicode="&#x6a1;" horiz-adv-x="480" 
d="M149 30c-19.333 13.333 -34.833 30.667 -46.5 52s-17.5 44.666 -17.5 69.999c0 21.333 4 41.333 12 60s19 34.834 33 48.5c14 13.667 30.5 24.5 49.5 32.5s39.167 12 60.5 12s41.333 -4 60 -12s35 -18.833 49 -32.5s25.167 -29.834 33.5 -48.501s12.5 -38.667 12.5 -60
c0 -25.333 -6 -48.666 -18 -69.999s-27.667 -38.666 -47 -51.999h150v-30h-495c-4 0 -7.5 1.5 -10.5 4.5s-4.5 6.5 -4.5 10.5s1.5 7.5 4.5 10.5s6.5 4.5 10.5 4.5h164zM115 152.001c0 -16.667 3.16699 -32.333 9.5 -47s15 -27.5 26 -38.5s23.833 -19.833 38.5 -26.5
s30.667 -10 48 -10h3c17.333 0 33.5 3.16699 48.5 9.5s28.167 15 39.5 26s20.333 24 27 39s10 30.833 10 47.5s-3.33301 32.5 -10 47.5s-15.667 28.167 -27 39.5s-24.5 20.166 -39.5 26.499s-31.167 9.5 -48.5 9.5s-33.5 -3.16699 -48.5 -9.5s-28.167 -15.166 -39.5 -26.499
s-20.333 -24.5 -27 -39.5s-10 -30.833 -10 -47.5z" />
    <glyph glyph-name="fehfc" unicode="&#x6a1;" horiz-adv-x="850" 
d="M519 30c-19.333 13.333 -34.833 30.667 -46.5 52s-17.5 44.666 -17.5 69.999c0 21.333 4 41.333 12 60s19 34.834 33 48.5c14 13.667 30.5 24.5 49.5 32.5s39.167 12 60.5 12s41.333 -4 60 -12s35 -18.833 49 -32.5s25.167 -29.834 33.5 -48.501s12.5 -38.667 12.5 -60
c0 -25.333 -6 -48.666 -18 -69.999s-27.667 -38.666 -47 -51.999h150v-30h-700c-18.667 0 -34.167 6.16699 -46.5 18.5s-18.5 27.833 -18.5 46.5v210h30v-210c0 -10 3.33301 -18.333 10 -25s15 -10 25 -10h369zM485 152.001c0 -16.667 3.16797 -32.334 9.50098 -47.001
s15 -27.5 26 -38.5s23.833 -19.833 38.5 -26.5s30.667 -10 48 -10h5c16.667 0 32.5 3.33301 47.5 10s28.167 15.5 39.5 26.5s20.166 23.833 26.499 38.5s9.5 30.334 9.5 47.001s-3.33301 32.5 -10 47.5s-15.667 28.167 -27 39.5s-24.5 20.166 -39.5 26.499
s-31.167 9.5 -48.5 9.5s-33.5 -3.16699 -48.5 -9.5s-28.167 -15.166 -39.5 -26.499s-20.333 -24.5 -27 -39.5s-10 -30.833 -10 -47.5z" />
    <glyph glyph-name="uni06A2.init" unicode="&#x6a2;" horiz-adv-x="450" 
d="M206 -91c6.66699 8 14 15.333 22 22l48 -50l-21 -21c-8 8 -16 16.167 -24 24.5s-16.333 16.5 -25 24.5zM85 203c0 29.333 8.83203 53.667 26.499 73s47.167 29 88.5 29h100c17.333 0 32.5 -6.5 45.5 -19.5s19.5 -28.167 19.5 -45.5v-240h-380c-4 0 -7.5 1.5 -10.5 4.5
s-4.5 6.5 -4.5 10.5s1.5 7.5 4.5 10.5s6.5 4.5 10.5 4.5h206c-15.333 10 -29.5 22.167 -42.5 36.5s-24.167 29.5 -33.5 45.5s-16.666 31.833 -21.999 47.5s-8 30.167 -8 43.5zM114.999 203.001c0 -16 4.33203 -33.999 12.999 -53.999s20.334 -38.667 35.001 -56
s31.667 -32 51 -44s40 -18.333 62 -19h59v210c0 9.33301 -3.5 17.5 -10.5 24.5s-15.167 10.5 -24.5 10.5h-100c-30.667 0 -52.5 -6.83301 -65.5 -20.5s-19.5 -30.834 -19.5 -51.501z" />
    <glyph glyph-name="uni06A2.medi" unicode="&#x6a2;" horiz-adv-x="480" 
d="M206 -91c6.66699 8 14 15.333 22 22l48 -50l-21 -21c-8 8 -16 16.167 -24 24.5s-16.333 16.5 -25 24.5zM149 30c-19.333 13.333 -34.833 30.667 -46.5 52s-17.5 44.666 -17.5 69.999c0 21.333 4 41.333 12 60s19 34.834 33 48.5c14 13.667 30.5 24.5 49.5 32.5
s39.167 12 60.5 12s41.333 -4 60 -12s35 -18.833 49 -32.5s25.167 -29.834 33.5 -48.501s12.5 -38.667 12.5 -60c0 -25.333 -6 -48.666 -18 -69.999s-27.667 -38.666 -47 -51.999h150v-30h-495c-4 0 -7.5 1.5 -10.5 4.5s-4.5 6.5 -4.5 10.5s1.5 7.5 4.5 10.5
s6.5 4.5 10.5 4.5h164zM115 152.001c0 -16.667 3.16699 -32.333 9.5 -47s15 -27.5 26 -38.5s23.833 -19.833 38.5 -26.5s30.667 -10 48 -10h3c17.333 0 33.5 3.16699 48.5 9.5s28.167 15 39.5 26s20.333 24 27 39s10 30.833 10 47.5s-3.33301 32.5 -10 47.5
s-15.667 28.167 -27 39.5s-24.5 20.166 -39.5 26.499s-31.167 9.5 -48.5 9.5s-33.5 -3.16699 -48.5 -9.5s-28.167 -15.166 -39.5 -26.499s-20.333 -24.5 -27 -39.5s-10 -30.833 -10 -47.5z" />
    <glyph glyph-name="uni06A2.fina" unicode="&#x6a2;" horiz-adv-x="850" 
d="M591 -91c6.66699 8 14 15.333 22 22l48 -50l-21 -21c-8 8 -16 16.167 -24 24.5s-16.333 16.5 -25 24.5zM519 30c-19.333 13.333 -34.833 30.667 -46.5 52s-17.5 44.666 -17.5 69.999c0 21.333 4 41.333 12 60s19 34.834 33 48.5c14 13.667 30.5 24.5 49.5 32.5
s39.167 12 60.5 12s41.333 -4 60 -12s35 -18.833 49 -32.5s25.167 -29.834 33.5 -48.501s12.5 -38.667 12.5 -60c0 -25.333 -6 -48.666 -18 -69.999s-27.667 -38.666 -47 -51.999h150v-30h-700c-18.667 0 -34.167 6.16699 -46.5 18.5s-18.5 27.833 -18.5 46.5v210h30v-210
c0 -10 3.33301 -18.333 10 -25s15 -10 25 -10h369zM485 152.001c0 -16.667 3.16797 -32.334 9.50098 -47.001s15 -27.5 26 -38.5s23.833 -19.833 38.5 -26.5s30.667 -10 48 -10h5c16.667 0 32.5 3.33301 47.5 10s28.167 15.5 39.5 26.5s20.166 23.833 26.499 38.5
s9.5 30.334 9.5 47.001s-3.33301 32.5 -10 47.5s-15.667 28.167 -27 39.5s-24.5 20.166 -39.5 26.499s-31.167 9.5 -48.5 9.5s-33.5 -3.16699 -48.5 -9.5s-28.167 -15.166 -39.5 -26.499s-20.333 -24.5 -27 -39.5s-10 -30.833 -10 -47.5z" />
    <glyph glyph-name="uni06A4" unicode="&#x6a4;" horiz-adv-x="850" arabic-form="isolated" 
d="M536 439c6.66699 8 14 15.333 22 22l49 -50l-21 -21zM677 461l49 -50l-21 -21l-50 49zM591 539c6.66699 8 14 15.333 22 22l48 -50l-21 -21c-8 8 -16 16.167 -24 24.5s-16.333 16.5 -25 24.5zM485 203c0 29.333 8.83203 53.667 26.499 73s47.167 29 88.5 29h100
c17.333 0 32.5 -6.5 45.5 -19.5s19.5 -28.167 19.5 -45.5v-240h-615c-18.667 0 -34.167 6.16699 -46.5 18.5s-18.5 27.833 -18.5 46.5v240h30v-240c0 -10 3.33301 -18.333 10 -25s15 -10 25 -10h441c-15.333 10 -29.5 22.167 -42.5 36.5s-24.167 29.5 -33.5 45.5
s-16.666 31.833 -21.999 47.5s-8 30.167 -8 43.5zM514.999 203.001c0 -16 4.5 -34.167 13.5 -54.5s21 -39.166 36 -56.499s32.5 -32 52.5 -44s41 -18 63 -18h55v210c0 9.33301 -3.5 17.5 -10.5 24.5s-15.167 10.5 -24.5 10.5h-100c-30.667 0 -52.5 -6.83301 -65.5 -20.5
s-19.5 -30.834 -19.5 -51.501z" />
    <glyph glyph-name="uni06A5.init" unicode="&#x6a5;" horiz-adv-x="450" 
d="M136 -81c6.66699 8 14 15.333 22 22l49 -50l-21 -21zM277 -59l49 -50l-21 -21l-50 49zM201 -171c6.66699 8 14.0029 15.3359 22.0029 22.0029c7.33301 -8.66699 15.166 -16.834 23.499 -24.501s16.5 -15.834 24.5 -24.501l-21 -21
c-8.66699 8 -16.834 16.167 -24.501 24.5s-15.834 16.166 -24.501 23.499zM85.0029 203.003c0 29.333 8.83203 53.667 26.499 73s47.167 29 88.5 29h100c17.333 0 32.5 -6.5 45.5 -19.5s19.5 -28.167 19.5 -45.5v-240h-380c-4 0 -7.5 1.5 -10.5 4.5s-4.5 6.5 -4.5 10.5
s1.5 7.5 4.5 10.5s6.5 4.5 10.5 4.5h206c-15.333 10 -29.5 22.167 -42.5 36.5s-24.167 29.5 -33.5 45.5s-16.666 31.833 -21.999 47.5s-8 30.167 -8 43.5zM115.002 203.004c0 -16 4.33203 -33.999 12.999 -53.999s20.334 -38.667 35.001 -56s31.667 -32 51 -44
s40 -18.333 62 -19h59v210c0 9.33301 -3.5 17.5 -10.5 24.5s-15.167 10.5 -24.5 10.5h-100c-30.667 0 -52.5 -6.83301 -65.5 -20.5s-19.5 -30.834 -19.5 -51.501z" />
    <glyph glyph-name="uni06A5.medi" unicode="&#x6a5;" horiz-adv-x="480" 
d="M146 -81c6.66699 8 14 15.333 22 22l49 -50l-21 -21zM287 -59l49 -50l-21 -21l-50 49zM211 -171c6.66699 8 14.0029 15.3359 22.0029 22.0029c7.33301 -8.66699 15.166 -16.834 23.499 -24.501s16.5 -15.834 24.5 -24.501l-21 -21
c-8.66699 8 -16.834 16.167 -24.501 24.5s-15.834 16.166 -24.501 23.499zM149.003 30.0029c-19.333 13.333 -34.833 30.667 -46.5 52s-17.5 44.666 -17.5 69.999c0 21.333 4 41.333 12 60s19 34.834 33 48.5c14 13.667 30.5 24.5 49.5 32.5s39.167 12 60.5 12
s41.333 -4 60 -12s35 -18.833 49 -32.5s25.167 -29.834 33.5 -48.501s12.5 -38.667 12.5 -60c0 -25.333 -6 -48.666 -18 -69.999s-27.667 -38.666 -47 -51.999h150v-30h-495c-4 0 -7.5 1.5 -10.5 4.5s-4.5 6.5 -4.5 10.5s1.5 7.5 4.5 10.5s6.5 4.5 10.5 4.5h164z
M115.003 152.004c0 -16.667 3.16699 -32.333 9.5 -47s15 -27.5 26 -38.5s23.833 -19.833 38.5 -26.5s30.667 -10 48 -10h3c17.333 0 33.5 3.16699 48.5 9.5s28.167 15 39.5 26s20.333 24 27 39s10 30.833 10 47.5s-3.33301 32.5 -10 47.5s-15.667 28.167 -27 39.5
s-24.5 20.166 -39.5 26.499s-31.167 9.5 -48.5 9.5s-33.5 -3.16699 -48.5 -9.5s-28.167 -15.166 -39.5 -26.499s-20.333 -24.5 -27 -39.5s-10 -30.833 -10 -47.5z" />
    <glyph glyph-name="uni06A5.fina" unicode="&#x6a5;" horiz-adv-x="850" 
d="M526 -81c6.66699 8 14 15.333 22 22l49 -50l-21 -21zM667 -59l49 -50l-21 -21l-50 49zM591 -171c6.66699 8 14.0029 15.3359 22.0029 22.0029c7.33301 -8.66699 15.166 -16.834 23.499 -24.501s16.5 -15.834 24.5 -24.501l-21 -21
c-8.66699 8 -16.834 16.167 -24.501 24.5s-15.834 16.166 -24.501 23.499zM519.003 30.0029c-19.333 13.333 -34.833 30.667 -46.5 52s-17.5 44.666 -17.5 69.999c0 21.333 4 41.333 12 60s19 34.834 33 48.5c14 13.667 30.5 24.5 49.5 32.5s39.167 12 60.5 12
s41.333 -4 60 -12s35 -18.833 49 -32.5s25.167 -29.834 33.5 -48.501s12.5 -38.667 12.5 -60c0 -25.333 -6 -48.666 -18 -69.999s-27.667 -38.666 -47 -51.999h150v-30h-700c-18.667 0 -34.167 6.16699 -46.5 18.5s-18.5 27.833 -18.5 46.5v210h30v-210
c0 -10 3.33301 -18.333 10 -25s15 -10 25 -10h369zM485.003 152.004c0 -16.667 3.16797 -32.334 9.50098 -47.001s15 -27.5 26 -38.5s23.833 -19.833 38.5 -26.5s30.667 -10 48 -10h5c16.667 0 32.5 3.33301 47.5 10s28.167 15.5 39.5 26.5s20.166 23.833 26.499 38.5
s9.5 30.334 9.5 47.001s-3.33301 32.5 -10 47.5s-15.667 28.167 -27 39.5s-24.5 20.166 -39.5 26.499s-31.167 9.5 -48.5 9.5s-33.5 -3.16699 -48.5 -9.5s-28.167 -15.166 -39.5 -26.499s-20.333 -24.5 -27 -39.5s-10 -30.833 -10 -47.5z" />
    <glyph glyph-name="uni06A7.fina" unicode="&#x6a7;" horiz-adv-x="625" 
d="M381 459c6.66699 8 14 15.333 22 22l48 -50l-21 -21c-8 8 -16 16.167 -24 24.5s-16.333 16.5 -25 24.5zM390 -150c20 0 38.334 4 55.001 12s30.834 18.833 42.501 32.5s20.834 29.5 27.501 47.5s10 37.333 10 58h-155c-24 0 -44.167 8.16699 -60.5 24.5
s-24.5 36.5 -24.5 60.5v65c0 26.667 3.66699 49.834 11 69.5c7.33301 19.667 17.333 35.834 30 48.5c12.667 12.667 27.334 22 44.001 28s34.667 9 54 9c19.334 0 40.167 -3.5 62.499 -10.5c22.333 -7 45.166 -17.5 68.499 -31.5v-233h70v-30h-70
c0 -24.667 -4 -47.834 -12 -69.501s-19.333 -40.667 -34 -57s-32 -29.333 -52 -39s-42.333 -14.5 -67 -14.5h-140c-23.333 0 -45 4.33301 -65 13s-37.333 20.5 -52 35.5s-26.334 32.5 -35.001 52.5s-13 41.333 -13 64v130h30v-130c0 -18.667 3.5 -36.167 10.5 -52.5
s16.667 -30.666 29 -42.999s26.666 -22 42.999 -29s33.833 -10.5 52.5 -10.5h140zM525.001 30v216c-36.667 19.333 -70.334 29 -101 29c-14.667 0 -28.667 -2.5 -42 -7.5s-25 -12.667 -35 -23s-17.833 -23.333 -23.5 -39s-8.5 -34.167 -8.5 -55.5v-65
c0 -15.333 5.33301 -28.333 16 -39s23.667 -16 39 -16h155z" />
    <glyph glyph-name="uni06A8.fina" unicode="&#x6a8;" horiz-adv-x="625" 
d="M326 439c6.66699 8 14 15.333 22 22l49 -50l-21 -21zM467 461l49 -50l-21 -21l-50 49zM381 539c6.66699 8 14 15.333 22 22l48 -50l-21 -21c-8 8 -16 16.167 -24 24.5s-16.333 16.5 -25 24.5zM390 -150c20 0 38.334 4 55.001 12s30.834 18.833 42.501 32.5
s20.834 29.5 27.501 47.5s10 37.333 10 58h-155c-24 0 -44.167 8.16699 -60.5 24.5s-24.5 36.5 -24.5 60.5v65c0 26.667 3.66699 49.834 11 69.5c7.33301 19.667 17.333 35.834 30 48.5c12.667 12.667 27.334 22 44.001 28s34.667 9 54 9c19.334 0 40.167 -3.5 62.499 -10.5
c22.333 -7 45.166 -17.5 68.499 -31.5v-233h70v-30h-70c0 -24.667 -4 -47.834 -12 -69.501s-19.333 -40.667 -34 -57s-32 -29.333 -52 -39s-42.333 -14.5 -67 -14.5h-140c-23.333 0 -45 4.33301 -65 13s-37.333 20.5 -52 35.5s-26.334 32.5 -35.001 52.5s-13 41.333 -13 64
v130h30v-130c0 -18.667 3.5 -36.167 10.5 -52.5s16.667 -30.666 29 -42.999s26.666 -22 42.999 -29s33.833 -10.5 52.5 -10.5h140zM525.001 30v216c-36.667 19.333 -70.334 29 -101 29c-14.667 0 -28.667 -2.5 -42 -7.5s-25 -12.667 -35 -23s-17.833 -23.333 -23.5 -39
s-8.5 -34.167 -8.5 -55.5v-65c0 -15.333 5.33301 -28.333 16 -39s23.667 -16 39 -16h155z" />
    <glyph glyph-name="uni06A9" unicode="&#x6a9;" horiz-adv-x="709" arabic-form="isolated" 
d="M621 484c-32 -30.667 -63.5 -61.335 -94.5 -92.001c-31 -30.667 -62.5 -61.334 -94.5 -92c22.667 -1.33301 45.5 -4.66602 68.5 -9.99902s43.833 -13.833 62.5 -25.5s33.667 -27.5 45 -47.5s17 -45.667 17 -77v-140h-475c-18 -0 -33.333 6.33301 -46 19s-19 28 -19 46
v210h30v-210c0 -10 3.33301 -18.333 10 -25s15 -10 25 -10h445v110c0 28.667 -6.16699 51.667 -18.5 69s-28 30.5 -47 39.5s-40 15 -63 18s-44.833 4.5 -65.5 4.5l-9 34c36 34.667 70.667 68 104 100s68 65.333 104 100l21 -21v0z" />
    <glyph glyph-name="uni06AF" unicode="&#x6af;" horiz-adv-x="709" arabic-form="isolated" 
d="M621 484c-32 -30.667 -63.5 -61.335 -94.5 -92.001c-31 -30.667 -62.5 -61.334 -94.5 -92c22.667 -1.33301 45.5 -4.66602 68.5 -9.99902s43.833 -13.833 62.5 -25.5s33.667 -27.5 45 -47.5s17 -45.667 17 -77v-140h-475c-18 -0 -33.333 6.33301 -46 19s-19 28 -19 46
v210h30v-210c0 -10 3.33301 -18.333 10 -25s15 -10 25 -10h445v110c0 28.667 -6.16699 51.667 -18.5 69s-28 30.5 -47 39.5s-40 15 -63 18s-44.833 4.5 -65.5 4.5l-9 34c36 34.667 70.667 68 104 100s68 65.333 104 100l21 -21v0zM336 418.999l179 172l21 -22l-184 -177z
" />
    <glyph glyph-name="uni06BA.init" unicode="&#x6ba;" horiz-adv-x="260" 
d="M111 459c6.66699 8 14 15.333 22 22l48 -50l-21 -21c-8 8 -16 16.167 -24 24.5s-16.333 16.5 -25 24.5zM145 305h30v-305h-190c-4 0 -7.5 1.5 -10.5 4.5s-4.5 6.5 -4.5 10.5s1.5 7.5 4.5 10.5s6.5 4.5 10.5 4.5h160v275z" />
    <glyph glyph-name="uni06BA.medi" unicode="&#x6ba;" horiz-adv-x="300" 
d="M111 459c6.66699 8 14 15.333 22 22l48 -50l-21 -21c-8 8 -16 16.167 -24 24.5s-16.333 16.5 -25 24.5zM-30 15c0 4 1.5 7.5 4.5 10.5s6.5 4.5 10.5 4.5h150v275h30v-275h135v-30h-315c-4 0 -7.5 1.5 -10.5 4.5s-4.5 6.5 -4.5 10.5z" />
    <glyph glyph-name="uni06BE" unicode="&#x6be;" horiz-adv-x="640" arabic-form="isolated" 
d="M555 0l-495.001 -0.000976562c-4 0 -7.5 1.5 -10.5 4.5s-4.5 6.5 -4.5 10.5s1.5 7.5 4.5 10.5s6.5 4.5 10.5 4.5h137c-41.333 28 -62 66.667 -62 116c0 20.667 4 39.5 12 56.5s18.5 31.667 31.5 44s28.167 21.833 45.5 28.5s35 10 53 10h33
c17.333 0 32.5 -6.5 45.5 -19.5s19.5 -28.167 19.5 -45.5v-190h150v190c0 48 -11.333 82.5 -34 103.5s-51.667 31.5 -87 31.5c-22 0 -46.667 -3.66699 -74 -11c-1.33301 4.66699 -2.5 9.16699 -3.5 13.5s-2.16699 8.83301 -3.5 13.5c33.334 9.33301 62.667 14 88 14
c42.667 0 77.334 -13.167 104.001 -39.5s40 -68.166 40 -125.499v-220zM276.999 254.999c-14.667 0 -28.832 -2.66699 -42.499 -8s-25.667 -12.833 -36 -22.5s-18.5 -21.167 -24.5 -34.5s-9 -28 -9 -44c0 -16.667 3.33301 -32 10 -46s15.167 -26.167 25.5 -36.5
s22.166 -18.5 35.499 -24.5s27 -9 41 -9h68v190c0 10 -3.33301 18.333 -10 25s-15 10 -25 10h-33z" />
    <glyph glyph-name="uni06C0" unicode="&#x6c0;" horiz-adv-x="440" arabic-form="isolated" 
d="M85 0l-0.000976562 175c0 22.667 3.83301 42.334 11.5 59.001s18 30.167 31 40.5s28 18 45 23s34.833 7.5 53.5 7.5c22 0 44.333 -3.33301 67 -10c22.667 -6.66797 43.334 -15.335 62.001 -26.001v-269h-270zM324.999 30v221c-35.333 16 -68.333 24 -99 24
c-14.667 0 -28.667 -2 -42 -6c-13.334 -4 -25.167 -10 -35.5 -18s-18.5 -18.333 -24.5 -31s-9 -27.667 -9 -45v-145h210zM270.999 421v-21.001h-103v21h33c-9.33301 7.33496 -16.833 15.668 -22.5 25c-5.66699 9.33496 -8.5 18.668 -8.5 28c0 14.667 4.5 25.667 13.5 33
s20.833 11 35.5 11c6.66699 0 14.334 -1.16699 23 -3.5c8.66699 -2.33301 16 -5.16602 22 -8.49902l-9 -18c-5.33301 2.66699 -11.333 5 -18 7s-12.667 3 -18 3c-18.667 0 -28 -8 -28 -24c0 -9.33301 5 -19.5 15 -30.5s22 -18.5 36 -22.5h29z" />
    <glyph glyph-name="uni06C1" unicode="&#x6c1;" horiz-adv-x="440" arabic-form="isolated" 
d="M85 0l-0.000976562 175c0 22.667 3.83301 42.334 11.5 59.001s18 30.167 31 40.5s28 18 45 23s34.833 7.5 53.5 7.5c22 0 44.333 -3.33301 67 -10c22.667 -6.66797 43.334 -15.335 62.001 -26.001v-269h-270zM324.999 30v221c-35.333 16 -68.333 24 -99 24
c-14.667 0 -28.667 -2 -42 -6c-13.334 -4 -25.167 -10 -35.5 -18s-18.5 -18.333 -24.5 -31s-9 -27.667 -9 -45v-145h210z" />
    <glyph glyph-name="uni06C2.fina" unicode="&#x6c2;" horiz-adv-x="500" 
d="M348 421l-0.000976562 -21.001h-103v21h33c-9.33301 7.33496 -16.833 15.668 -22.5 25c-5.66699 9.33496 -8.5 18.668 -8.5 28c0 14.667 4.5 25.667 13.5 33s20.833 11 35.5 11c6.66699 0 14.334 -1.16699 23.001 -3.5s16 -5.16602 22 -8.49902l-9 -18
c-5.33301 2.66699 -11.333 5 -18 7s-12.667 3 -18 3c-18.667 0 -28 -8 -28 -24c0 -9.33301 5 -19.5 15 -30.5s22 -18.5 36 -22.5h29zM119.999 -0.000976562h-33l98 250c6.66699 16 17 29.167 31 39.5s30.333 15.5 49 15.5h140v-240c0 -10 3.33301 -18.333 10 -25
s15 -10 25 -10h60v-30h-60c-18.667 0 -34.167 6.16699 -46.5 18.5s-18.5 27.833 -18.5 46.5v210h-110c-11.333 0 -21.5 -3.16699 -30.5 -9.5s-15.833 -14.833 -20.5 -25.5z" />
    <glyph glyph-name="uni06C3.fina" unicode="&#x6c3;" horiz-adv-x="500" 
d="M204 459c6.66699 8 14 15.333 22 22l49 -50l-21 -21zM345 481l49 -50l-21 -21l-50 49zM120 0h-33l98 250c6.66699 16 17 29.167 31 39.5s30.333 15.5 49 15.5h140v-240c0 -10 3.33301 -18.333 10 -25s15 -10 25 -10h60v-30h-60c-18.667 0 -34.167 6.16699 -46.5 18.5
s-18.5 27.833 -18.5 46.5v210h-110c-11.333 0 -21.5 -3.16699 -30.5 -9.5s-15.833 -14.833 -20.5 -25.5z" />
    <glyph glyph-name="uni06CC" unicode="&#x6cc;" horiz-adv-x="670" arabic-form="isolated" 
d="M566 291c-30 9.33301 -57.3291 14.001 -81.9961 14.001c-33.333 0 -59.833 -10.833 -79.5 -32.5s-29.5 -55.834 -29.5 -102.501v-80h180c8 0 15 -3 21 -9s9 -13 9 -21v-55c0 -22.667 -4.33301 -44 -13 -64s-20.5 -37.5 -35.5 -52.5s-32.5 -26.833 -52.5 -35.5
s-41.333 -13 -64 -13h-170c-22.667 0 -44 4.33301 -64 13s-37.5 20.5 -52.5 35.5s-26.833 32.5 -35.5 52.5s-13 41.333 -13 64v120h30v-120c0 -18.667 3.5 -36.167 10.5 -52.5s16.667 -30.666 29 -42.999s26.666 -22 42.999 -29s33.833 -10.5 52.5 -10.5h170
c18 0 35.167 3.5 51.5 10.5c16.334 7 30.667 16.667 42.999 29c12.333 12.333 22.166 26.666 29.499 42.999s11 33.833 11 52.5v55h-180c-8.66797 0 -15.835 2.83301 -21.5 8.5c-5.66699 5.66699 -8.5 12.834 -8.5 21.501v80c0 57.333 12.667 99.166 38 125.499
s59 39.5 101 39.5c13.334 0 27.667 -1.33301 42.999 -4c15.333 -2.66699 31.333 -6.66699 48 -12z" />
    <glyph glyph-name="uni06D2" unicode="&#x6d2;" horiz-adv-x="620" arabic-form="isolated" 
d="M535 0l-327 0.000976562c-26 0 -48 -9.16699 -66 -27.5s-27 -40.833 -27 -67.5v-55h334c9.33301 0 17 -2.66699 23 -8s9.66699 -12.666 11 -22h-368c-8.66699 0 -15.834 3 -21.501 9s-8.5 13 -8.5 21v55c0 16.667 3.33301 32.667 10 48s15.5 28.666 26.5 39.999
s24 20.333 39 27s30.833 10 47.5 10h297v128c8.6709 -1.33301 15.8379 -5 21.501 -11c5.66699 -6 8.5 -13.667 8.5 -23v-124z" />
    <glyph glyph-name="uni06D3" unicode="&#x6d3;" horiz-adv-x="620" arabic-form="isolated" 
d="M311 236l-0.000976562 -20.999h-103v21h33c-9.33301 7.33301 -16.833 15.666 -22.5 24.999c-5.66699 9.33398 -8.5 18.667 -8.5 27.999c0 14.667 4.5 25.667 13.5 33s20.833 11 35.5 11c6.66699 0 14.334 -1.16699 23.001 -3.5s16 -5.16602 22 -8.49902l-9 -18
c-5.33301 2.66699 -11.333 5 -18 7s-12.667 3 -18 3c-18.667 0 -28 -8 -28 -24c0 -9.33301 5 -19.5 15 -30.5s22 -18.5 36 -22.5h29zM534.999 0.000976562l-327 0.000976562c-26 0 -48 -9.16699 -66 -27.5s-27 -40.833 -27 -67.5v-55h334c9.33301 0 17 -2.66699 23 -8
s9.66699 -12.666 11 -22h-368c-8.66699 0 -15.834 3 -21.501 9s-8.5 13 -8.5 21v55c0 16.667 3.33301 32.667 10 48s15.5 28.666 26.5 39.999s24 20.333 39 27s30.833 10 47.5 10h297v128c8.6709 -1.33301 15.8379 -5 21.501 -11c5.66699 -6 8.5 -13.667 8.5 -23v-124z" />
    <glyph glyph-name="uni06D5.fina" unicode="&#x6d5;" horiz-adv-x="460" 
d="M200 0c-42 0 -72.167 9.66797 -90.5 29.001s-27.5 43.666 -27.5 72.999c0 20 5.5 41.833 16.5 65.5s26.5 45.667 46.5 66s44 37.333 72 51s59 20.5 93 20.5h55v-275h95v-30h-260zM335 30.001l-0.00195312 244.999h-25c-30 0 -57.167 -5.66699 -81.5 -17
s-45.166 -25.666 -62.499 -42.999c-17.333 -17.334 -30.666 -36.167 -39.999 -56.5s-14 -39.166 -14 -56.499c0 -20.667 6.83301 -37.834 20.5 -51.501s36.167 -20.5 67.5 -20.5h135z" />
    <glyph glyph-name="waslf" unicode="&#x671;" horiz-adv-x="220" arabic-form="final" 
d="M115 525v-495h105v-30h-135v525h30zM40 599h15v56h18v-29l25 21c5.33301 4.66699 11.333 7 18 7h39c3.33301 0 6.5 -1.66699 9.5 -5s4.5 -7 4.5 -11v-58h-129v19zM73 605v-6h77v36h-41z" />
    <glyph glyph-name="uni067E.fina" unicode="&#x67e;" horiz-adv-x="770" arabic-form="final" 
d="M291 -81c6.66699 8 14 15.333 22 22l49 -50l-21 -21zM432 -59l49 -50l-21 -21l-50 49zM356 -171c6.66699 8 14 15.3359 22 22.0029c7.33496 -8.66699 15.168 -16.834 23.5 -24.501c8.33301 -7.66699 16.5 -15.834 24.5 -24.501l-21 -21
c-8.66797 8 -16.835 16.167 -24.5 24.5c-7.66797 8.33301 -15.835 16.166 -24.5 23.499zM115 65.0029c0 -10 3.33301 -18.333 10 -25s15 -10 25 -10h495v275h30v-275h95v-30h-620c-18.667 0 -34.167 6.16699 -46.5 18.5s-18.5 27.833 -18.5 46.5v240h30v-240z" />
    <glyph glyph-name="uni067E.init" unicode="&#x67e;" horiz-adv-x="260" arabic-form="initial" 
d="M6 -81c6.66699 8 14 15.333 22 22l49 -50l-21 -21zM147 -59l49 -50l-21 -21l-50 49zM71 -171c6.66699 8 14.0029 15.3359 22.0029 22.0029c7.33301 -8.66699 15.166 -16.834 23.499 -24.501s16.5 -15.834 24.5 -24.501l-21 -21c-8.66699 8 -16.834 16.167 -24.501 24.5
s-15.834 16.166 -24.501 23.499zM145.003 305.003h30v-305h-190c-4 0 -7.5 1.5 -10.5 4.5s-4.5 6.5 -4.5 10.5s1.5 7.5 4.5 10.5s6.5 4.5 10.5 4.5h160v275z" />
    <glyph glyph-name="uni067E.medi" unicode="&#x67e;" horiz-adv-x="300" arabic-form="medial" 
d="M31 -81c6.66699 8 14 15.333 22 22l49 -50l-21 -21zM172 -59l49 -50l-21 -21l-50 49zM96 -171c6.66699 8 14.0029 15.3359 22.0029 22.0029c7.33301 -8.66699 15.166 -16.834 23.499 -24.501s16.5 -15.834 24.5 -24.501l-21 -21c-8.66699 8 -16.834 16.167 -24.501 24.5
s-15.834 16.166 -24.501 23.499zM-29.9971 15.0029c0 4 1.5 7.5 4.5 10.5s6.5 4.5 10.5 4.5h150v275h30v-275h135v-30h-315c-4 0 -7.5 1.5 -10.5 4.5s-4.5 6.5 -4.5 10.5z" />
    <glyph glyph-name="uni0679.fina" unicode="&#x679;" horiz-adv-x="770" arabic-form="final" 
d="M115 65c0 -10 3.33301 -18.333 10 -25s15 -10 25 -10h495v275h30v-275h95v-30h-620c-18.667 0 -34.167 6.16699 -46.5 18.5s-18.5 27.833 -18.5 46.5v240h30v-240zM325 419h15v106h17v-79l26 21c5.33301 4.66699 11.333 7 18 7h39c3.33301 0 6.5 -1.66699 9.5 -5
s4.5 -7 4.5 -11v-58h-129v19zM357 426v-7h78v36h-41z" />
    <glyph glyph-name="uni0679.init" unicode="&#x679;" horiz-adv-x="260" arabic-form="initial" 
d="M145 305h30v-305h-190c-4 0 -7.5 1.5 -10.5 4.5s-4.5 6.5 -4.5 10.5s1.5 7.5 4.5 10.5s6.5 4.5 10.5 4.5h160v275zM70 419h15v106h17v-79l26 21c5.33301 4.66699 11.333 7 18 7h39c3.33301 0 6.5 -1.66699 9.5 -5s4.5 -7 4.5 -11v-58h-129v19zM102 426v-7h78v36h-41z" />
    <glyph glyph-name="uni0679.medi" unicode="&#x679;" horiz-adv-x="300" arabic-form="medial" 
d="M-30 15c0 4 1.5 7.5 4.5 10.5s6.5 4.5 10.5 4.5h150v275h30v-275h135v-30h-315c-4 0 -7.5 1.5 -10.5 4.5s-4.5 6.5 -4.5 10.5zM70 419h15v106h17v-79l26 21c5.33301 4.66699 11.333 7 18 7h39c3.33301 0 6.5 -1.66699 9.5 -5s4.5 -7 4.5 -11v-58h-129v19zM102 426v-7h78
v36h-41z" />
    <glyph glyph-name="uni06A4.fina" unicode="&#x6a4;" horiz-adv-x="850" arabic-form="final" 
d="M526 439c6.66699 8 14 15.333 22 22l49 -50l-21 -21zM667 461l49 -50l-21 -21l-50 49zM581 539c6.66699 8 14 15.333 22 22l48 -50l-21 -21c-8 8 -16 16.167 -24 24.5s-16.333 16.5 -25 24.5zM519 30c-19.333 13.333 -34.833 30.667 -46.5 52s-17.5 44.666 -17.5 69.999
c0 21.333 4 41.333 12 60s19 34.834 33 48.5c14 13.667 30.5 24.5 49.5 32.5s39.167 12 60.5 12s41.333 -4 60 -12s35 -18.833 49 -32.5s25.167 -29.834 33.5 -48.501s12.5 -38.667 12.5 -60c0 -25.333 -6 -48.666 -18 -69.999s-27.667 -38.666 -47 -51.999h150v-30h-700
c-18.667 0 -34.167 6.16699 -46.5 18.5s-18.5 27.833 -18.5 46.5v210h30v-210c0 -10 3.33301 -18.333 10 -25s15 -10 25 -10h369zM485 152.001c0 -16.667 3.16797 -32.334 9.50098 -47.001s15 -27.5 26 -38.5s23.833 -19.833 38.5 -26.5s30.667 -10 48 -10h5
c16.667 0 32.5 3.33301 47.5 10s28.167 15.5 39.5 26.5s20.166 23.833 26.499 38.5s9.5 30.334 9.5 47.001s-3.33301 32.5 -10 47.5s-15.667 28.167 -27 39.5s-24.5 20.166 -39.5 26.499s-31.167 9.5 -48.5 9.5s-33.5 -3.16699 -48.5 -9.5s-28.167 -15.166 -39.5 -26.499
s-20.333 -24.5 -27 -39.5s-10 -30.833 -10 -47.5z" />
    <glyph glyph-name="uni06A4.init" unicode="&#x6a4;" horiz-adv-x="450" arabic-form="initial" 
d="M131 439c6.66699 8 14 15.333 22 22l49 -50l-21 -21zM272 461l49 -50l-21 -21l-50 49zM186 539c6.66699 8 14 15.333 22 22l48 -50l-21 -21c-8 8 -16 16.167 -24 24.5s-16.333 16.5 -25 24.5zM85 203c0 29.333 8.83203 53.667 26.499 73s47.167 29 88.5 29h100
c17.333 0 32.5 -6.5 45.5 -19.5s19.5 -28.167 19.5 -45.5v-240h-380c-4 0 -7.5 1.5 -10.5 4.5s-4.5 6.5 -4.5 10.5s1.5 7.5 4.5 10.5s6.5 4.5 10.5 4.5h206c-15.333 10 -29.5 22.167 -42.5 36.5s-24.167 29.5 -33.5 45.5s-16.666 31.833 -21.999 47.5s-8 30.167 -8 43.5z
M114.999 203.001c0 -16 4.33203 -33.999 12.999 -53.999s20.334 -38.667 35.001 -56s31.667 -32 51 -44s40 -18.333 62 -19h59v210c0 9.33301 -3.5 17.5 -10.5 24.5s-15.167 10.5 -24.5 10.5h-100c-30.667 0 -52.5 -6.83301 -65.5 -20.5s-19.5 -30.834 -19.5 -51.501z" />
    <glyph glyph-name="uni06A4.medi" unicode="&#x6a4;" horiz-adv-x="480" arabic-form="medial" 
d="M147 439c6.66699 8 14 15.333 22 22l49 -50l-21 -21zM288 461l49 -50l-21 -21l-50 49zM202 539c6.66699 8 14 15.333 22 22l48 -50l-21 -21c-8 8 -16 16.167 -24 24.5s-16.333 16.5 -25 24.5zM149 30c-19.333 13.333 -34.833 30.667 -46.5 52s-17.5 44.666 -17.5 69.999
c0 21.333 4 41.333 12 60s19 34.834 33 48.5c14 13.667 30.5 24.5 49.5 32.5s39.167 12 60.5 12s41.333 -4 60 -12s35 -18.833 49 -32.5s25.167 -29.834 33.5 -48.501s12.5 -38.667 12.5 -60c0 -25.333 -6 -48.666 -18 -69.999s-27.667 -38.666 -47 -51.999h150v-30h-495
c-4 0 -7.5 1.5 -10.5 4.5s-4.5 6.5 -4.5 10.5s1.5 7.5 4.5 10.5s6.5 4.5 10.5 4.5h164zM115 152.001c0 -16.667 3.16699 -32.333 9.5 -47s15 -27.5 26 -38.5s23.833 -19.833 38.5 -26.5s30.667 -10 48 -10h3c17.333 0 33.5 3.16699 48.5 9.5s28.167 15 39.5 26
s20.333 24 27 39s10 30.833 10 47.5s-3.33301 32.5 -10 47.5s-15.667 28.167 -27 39.5s-24.5 20.166 -39.5 26.499s-31.167 9.5 -48.5 9.5s-33.5 -3.16699 -48.5 -9.5s-28.167 -15.166 -39.5 -26.499s-20.333 -24.5 -27 -39.5s-10 -30.833 -10 -47.5z" />
    <glyph glyph-name="uni0686.fina" unicode="&#x686;" horiz-adv-x="455" arabic-form="final" 
d="M440 30l-0.00195312 -29.998h-183c-18 0 -35.5 -3.16699 -52.5 -9.5s-32 -15.166 -45 -26.499s-23.5 -24.666 -31.5 -39.999s-12 -32 -12 -50c0 -24.667 5.16699 -44.834 15.5 -60.501s23.333 -28.167 39 -37.5s32.667 -15.833 51 -19.5s35.5 -5.5 51.5 -5.5
c7.33301 0 14.333 0.5 21 1.5s13.334 2.16699 20.001 3.5v-30c-6.66699 -1.33301 -13.667 -2.33301 -21 -3s-14.666 -1 -21.999 -1c-19.333 0 -39.833 2.33301 -61.5 7s-41.667 12.834 -60 24.501c-18.333 11.666 -33.5 27.333 -45.5 47s-18 44.167 -18 73.5
c0 22 4.66699 42.5 14 61.5s22 35.5 38 49.5s34.333 25 55 33s42 12 64 12h88c-21.333 21.333 -38.666 46.166 -51.999 74.499s-25.5 55.166 -36.5 80.499s-22.833 46.666 -35.5 63.999s-29 26 -49 26c-17.333 0 -38.666 -9 -63.999 -27l-17 25c14 10 27.667 17.833 41 23.5
s26.666 8.5 39.999 8.5c20.667 0 38 -5.66699 52 -17s26.167 -25.833 36.5 -43.5c10.334 -17.667 19.667 -37.334 27.999 -59.001c8.33496 -21.667 17.668 -42.667 28 -63c10.333 -20.333 22 -38.833 35 -55.5s29.5 -29 49.5 -37h39zM256.998 -80.998
c3.33496 4 6.66895 7.83301 10 11.5c3.33398 3.66699 6.66699 7.16699 10 10.5l44 -50l-19 -21zM383.999 -58.998l44 -50l-19 -21l-45 49zM315.999 -170.998c6.66699 8.66699 13.3311 16.0029 19.998 22.0029c6.66699 -8.66699 13.667 -16.834 21 -24.501
c7.33398 -7.66699 14.667 -15.834 22 -24.501l-19 -21c-7.33301 8 -14.666 16.167 -21.999 24.5s-14.666 16.166 -21.999 23.499z" />
    <glyph glyph-name="uni0686.init" unicode="&#x686;" horiz-adv-x="490" arabic-form="initial" 
d="M126 -81c6.66699 8 14 15.333 22 22l49 -50l-21 -21zM267 -59l49 -50l-21 -21l-50 49zM191 -171c6.66699 8 14.0029 15.3359 22.0029 22.0029c7.33301 -8.66699 15.166 -16.834 23.499 -24.501s16.5 -15.834 24.5 -24.501l-21 -21
c-8.66699 8 -16.834 16.167 -24.501 24.5s-15.834 16.166 -24.501 23.499zM445.003 0.00292969l-460 0.00195312c-4.66699 0 -8.33398 1.5 -11.001 4.5s-4 6.5 -4 10.5s1.33301 7.5 4 10.5s6.33398 4.5 11.001 4.5h372c-15.333 11.333 -29.166 25.166 -41.499 41.499
s-24 33.666 -35 51.999s-21.667 36.5 -32 54.5s-20.833 34.167 -31.5 48.5s-22.167 26 -34.5 35s-25.833 13.5 -40.5 13.5c-10.667 0 -21.334 -2.33301 -32.001 -7s-22 -11 -34 -19l-17 25c14 9.33301 27.667 16.833 41 22.5s27.333 8.5 42 8.5
c22.667 0 42.667 -6.83301 60 -20.5s33 -30.667 47 -51s27.5 -42.333 40.5 -66s27 -45.667 42 -66s31.5 -37.333 49.5 -51s39.333 -20.5 64 -20.5v-30z" />
    <glyph glyph-name="uni0686.medi" unicode="&#x686;" horiz-adv-x="480" arabic-form="medial" 
d="M166 -81c6.66699 8 14 15.333 22 22l49 -50l-21 -21zM307 -59l49 -50l-21 -21l-50 49zM231 -171c6.66699 8 14.0029 15.3359 22.0029 22.0029c7.33398 -8.66699 15.167 -16.834 23.499 -24.501c8.33301 -7.66699 16.5 -15.834 24.5 -24.501l-21 -21
c-8.66797 8 -16.835 16.167 -24.501 24.5c-7.66699 8.33301 -15.834 16.166 -24.501 23.499zM480.003 30.0029l-0.00195312 -29.998h-495c-4.66699 0 -8.33398 1.5 -11.001 4.5s-4 6.5 -4 10.5s1.33301 7.5 4 10.5s6.33398 4.5 11.001 4.5h372
c-15.333 11.333 -29.166 25.166 -41.499 41.499s-24 33.666 -35 51.999s-21.667 36.5 -32 54.5s-20.833 34.167 -31.5 48.5s-22.167 26 -34.5 35s-25.833 13.5 -40.5 13.5c-10.667 0 -21.334 -2.33301 -32.001 -7s-22 -11 -34 -19l-17 25c14 9.33301 27.667 16.833 41 22.5
s27.333 8.5 42 8.5c22.667 0 42.5 -6.83301 59.5 -20.5s32.5 -30.667 46.5 -51s27.333 -42.333 40 -66s26.334 -45.667 41.001 -66s30.834 -37.333 48.501 -51s38.5 -20.5 62.5 -20.5h40z" />
    <glyph glyph-name="uni0688.fina" unicode="&#x688;" horiz-adv-x="410" arabic-form="final" 
d="M285 220c0 22 -9.83203 38.333 -29.499 49s-42.834 16 -69.501 16c-13.333 0 -27 -1 -41 -3s-27.667 -5.66699 -41 -11l-6 27c26.667 11.333 57 17 91 17c16.667 0 32.5 -1.83301 47.5 -5.5c15 -3.66895 28.333 -9.33594 40 -17c11.667 -7.66699 21 -17.5 28 -29.5
s10.5 -26.333 10.5 -43v-190h95v-30h-345v30h220v190zM100.001 449h15v106h17v-79l26 21c5.33301 4.66699 11.333 7 18 7h39c3.33301 0 6.5 -1.66699 9.5 -5s4.5 -7 4.5 -11v-58h-129v19zM132.001 456v-7h78v36h-41z" />
    <glyph glyph-name="uni0698.fina" unicode="&#x698;" horiz-adv-x="240" arabic-form="final" 
d="M30.3975 439c6.00098 8 12.6006 15.333 19.8008 22l44.1016 -50l-18.9014 -21zM157.3 461l44.1016 -50l-18.9004 -21l-45.001 49zM79.8984 539c6 8 12.5996 15.333 19.7998 22l43.2012 -50l-18.9004 -21c-7.2002 8 -14.4004 16.167 -21.6006 24.5
s-14.7002 16.5 -22.5 24.5zM104.999 305l30.0029 -0.000976562v-275h105v-30h-105v-25c0 -45.333 -10.333 -79.166 -31 -101.499s-49.334 -33.5 -86.001 -33.5c-14.667 0 -30.167 1.66699 -46.5 5s-33.5 8 -51.5 14c1.33301 4.66602 2.83301 9.33301 4.5 14
s3.5 9.33398 5.5 14.001c15.333 -5.33301 30.166 -9.5 44.499 -12.5s28.166 -4.5 41.499 -4.5c26.667 0 48.167 8.16699 64.5 24.5s24.5 43.166 24.5 80.499v330z" />
    <glyph glyph-name="uni0691.fina" unicode="&#x691;" horiz-adv-x="240" arabic-form="final" 
d="M105 305l30.0029 -0.000976562v-275h105v-30h-105v-25c0 -45.333 -10.333 -79.166 -31 -101.499s-49.334 -33.5 -86.001 -33.5c-14.667 0 -30.167 1.66699 -46.5 5s-33.5 8 -51.5 14c1.33301 4.66602 2.83301 9.33301 4.5 14s3.5 9.33398 5.5 14.001
c15.333 -5.33301 30.166 -9.5 44.499 -12.5s28.166 -4.5 41.499 -4.5c26.667 0 48.167 8.16699 64.5 24.5s24.5 43.166 24.5 80.499v330zM44.0029 418.999h15v106h17v-79l26 21c5.33301 4.66699 11.333 7 18 7h39c3.33301 0 6.5 -1.66699 9.5 -5s4.5 -7 4.5 -11v-58h-129v19
zM76.0029 425.999v-7h78v36h-41z" />
    <glyph glyph-name="uni06A9.fina" unicode="&#x6a9;" horiz-adv-x="710" arabic-form="final" 
d="M150 0c-18 0 -33.333 6.33203 -46 18.999s-19 28 -19 46v210h30v-210c0 -10 3.33301 -18.333 10 -25s15 -10 25 -10h445v110c0 28.667 -6.16699 51.667 -18.5 69s-28 30.5 -47 39.5s-40 15 -63 18s-44.833 4.5 -65.5 4.5l-9 34c36 34.667 70.667 68 104 100
s68 65.333 104 100l21 -21c-32 -30.667 -63.5 -61.334 -94.5 -92c-31 -30.667 -62.5 -61.334 -94.5 -92c22.667 -1.33301 45.5 -4.66602 68.5 -9.99902s43.833 -13.833 62.5 -25.5s33.667 -27.5 45 -47.5s17 -45.667 17 -77v-110h85v-30h-560z" />
    <glyph glyph-name="uni06A9.init" unicode="&#x6a9;" horiz-adv-x="410" arabic-form="initial" 
d="M92 301l208 203.999l21 -21l-188 -185c22.667 -1.33301 45.5 -4.66602 68.5 -9.99902s43.667 -13.833 62 -25.5c18.334 -11.667 33.167 -27.5 44.5 -47.5s17 -45.333 17 -76v-140h-340c-4.66699 0 -8.33398 1.5 -11.001 4.5s-4 6.5 -4 10.5s1.33301 7.5 4 10.5
s6.33398 4.5 11.001 4.5h310v110c0 28.667 -6.16699 51.5 -18.5 68.5s-28 30 -47 39s-39.833 15 -62.5 18s-44.667 4.83301 -66 5.5z" />
    <glyph glyph-name="uni06A9.medi" unicode="&#x6a9;" horiz-adv-x="390" arabic-form="medial" 
d="M390 0l-405 -0.000976562c-4.66699 0 -8.33398 1.5 -11.001 4.5s-4 6.5 -4 10.5s1.33301 7.5 4 10.5s6.33398 4.5 11.001 4.5h300v110c0 28.667 -6.16699 51.5 -18.5 68.5s-28 30 -47 39s-39.833 15 -62.5 18s-44.667 4.83301 -66 5.5l-9 30l208 204l21 -21l-188 -185
c22.667 -1.33301 45.5 -4.66602 68.5 -9.99902s43.667 -13.833 62 -25.5c18.334 -11.667 33.167 -27.5 44.5 -47.5s17 -45.333 17 -76v-110h75v-30z" />
    <glyph glyph-name="uni06AF.fina" unicode="&#x6af;" horiz-adv-x="710" arabic-form="final" 
d="M150 0c-18 0 -33.333 6.33203 -46 18.999s-19 28 -19 46v210h30v-210c0 -10 3.33301 -18.333 10 -25s15 -10 25 -10h445v110c0 28.667 -6.16699 51.667 -18.5 69s-28 30.5 -47 39.5s-40 15 -63 18s-44.833 4.5 -65.5 4.5l-9 34c36 34.667 70.667 68 104 100
s68 65.333 104 100l21 -21c-32 -30.667 -63.5 -61.334 -94.5 -92c-31 -30.667 -62.5 -61.334 -94.5 -92c22.667 -1.33301 45.5 -4.66602 68.5 -9.99902s43.833 -13.833 62.5 -25.5s33.667 -27.5 45 -47.5s17 -45.667 17 -77v-110h85v-30h-560zM336 418.999l179 172l21 -22
l-184 -177z" />
    <glyph glyph-name="uni06AF.init" unicode="&#x6af;" horiz-adv-x="410" arabic-form="initial" 
d="M92 301l208 203.999l21 -21l-188 -185c22.667 -1.33301 45.5 -4.66602 68.5 -9.99902s43.667 -13.833 62 -25.5c18.334 -11.667 33.167 -27.5 44.5 -47.5s17 -45.333 17 -76v-140h-340c-4.66699 0 -8.33398 1.5 -11.001 4.5s-4 6.5 -4 10.5s1.33301 7.5 4 10.5
s6.33398 4.5 11.001 4.5h310v110c0 28.667 -6.16699 51.5 -18.5 68.5s-28 30 -47 39s-39.833 15 -62.5 18s-44.667 4.83301 -66 5.5zM36 418.999l179 172l21 -22l-184 -177z" />
    <glyph glyph-name="uni06AF.medi" unicode="&#x6af;" horiz-adv-x="390" arabic-form="medial" 
d="M390 0l-405 -0.000976562c-4.66699 0 -8.33398 1.5 -11.001 4.5s-4 6.5 -4 10.5s1.33301 7.5 4 10.5s6.33398 4.5 11.001 4.5h300v110c0 28.667 -6.16699 51.5 -18.5 68.5s-28 30 -47 39s-39.833 15 -62.5 18s-44.667 4.83301 -66 5.5l-9 30l208 204l21 -21l-188 -185
c22.667 -1.33301 45.5 -4.66602 68.5 -9.99902s43.667 -13.833 62 -25.5c18.334 -11.667 33.167 -27.5 44.5 -47.5s17 -45.333 17 -76v-110h75v-30zM21 418.999l179 172l21 -22l-184 -177z" />
    <glyph glyph-name="noonfc" unicode="&#x6ba;" horiz-adv-x="520" arabic-form="final" 
d="M435 30l85.002 -0.00195312v-30h-85v-85c0 -18.667 -6.5 -34.167 -19.5 -46.5s-28.167 -18.5 -45.5 -18.5h-120c-23.333 0 -45 4.33301 -65 13s-37.333 20.334 -52 35.001s-26.334 32 -35.001 52s-13 41.667 -13 65v190h30v-190c0 -18.667 3.5 -36.167 10.5 -52.5
s16.667 -30.666 29 -42.999s26.666 -22 42.999 -29s33.833 -10.5 52.5 -10.5h120c9.33301 0 17.5 3.33301 24.5 10s10.5 15 10.5 25v390h30v-275z" />
    <glyph glyph-name="uni06C0.fina" unicode="&#x6c0;" horiz-adv-x="460" arabic-form="final" 
d="M200 0c-42 0 -72.167 9.66797 -90.5 29.001s-27.5 43.666 -27.5 72.999c0 20 5.5 41.833 16.5 65.5s26.5 45.667 46.5 66s44 37.333 72 51s59 20.5 93 20.5h55v-275h95v-30h-260zM335 30.001l-0.00195312 244.999h-25c-30 0 -57.167 -5.66699 -81.5 -17
s-45.166 -25.666 -62.499 -42.999c-17.333 -17.334 -30.666 -36.167 -39.999 -56.5s-14 -39.166 -14 -56.499c0 -20.667 6.83301 -37.834 20.5 -51.501s36.167 -20.5 67.5 -20.5h135zM310.998 421l-0.000976562 -21.001h-103v21h33
c-9.33301 7.33496 -16.833 15.668 -22.5 25c-5.66699 9.33496 -8.5 18.668 -8.5 28c0 14.667 4.5 25.667 13.5 33s20.833 11 35.5 11c6.66699 0 14.334 -1.16699 23.001 -3.5s16 -5.16602 22 -8.49902l-9 -18c-5.33301 2.66699 -11.333 5 -18 7s-12.667 3 -18 3
c-18.667 0 -28 -8 -28 -24c0 -9.33301 5 -19.5 15 -30.5s22 -18.5 36 -22.5h29z" />
    <glyph glyph-name="uni06C1.fina" unicode="&#x6c1;" horiz-adv-x="500" arabic-form="final" 
d="M120 0h-33l98 250c6.66699 16 17 29.167 31 39.5s30.333 15.5 49 15.5h140v-240c0 -10 3.33301 -18.333 10 -25s15 -10 25 -10h60v-30h-60c-18.667 0 -34.167 6.16699 -46.5 18.5s-18.5 27.833 -18.5 46.5v210h-110c-11.333 0 -21.5 -3.16699 -30.5 -9.5
s-15.833 -14.833 -20.5 -25.5z" />
    <glyph glyph-name="uni06C1.init" unicode="&#x6c1;" horiz-adv-x="450" arabic-form="initial" 
d="M125 30v224.998h30v-225h145c9.33301 0 17.5 3.33301 24.5 10s10.5 15 10.5 25v240h30v-240c0 -18 -6.5 -33.333 -19.5 -46s-28.167 -19 -45.5 -19h-71c-9.33301 -11.333 -18 -25.666 -26 -42.999s-12 -34.666 -12 -51.999c0 -15.333 4.33301 -29.833 13 -43.5
s24 -24.167 46 -31.5l-7 -29c-30 8.66602 -50.833 21.833 -62.5 39.5s-17.5 37.167 -17.5 58.5c0 18 3.5 35.667 10.5 53s15.833 33.333 26.5 48h-215c-4 0 -7.5 1.5 -10.5 4.5s-4.5 6.5 -4.5 10.5s1.5 7.5 4.5 10.5s6.5 4.5 10.5 4.5h140z" />
    <glyph glyph-name="uni06C1.medi" unicode="&#x6c1;" horiz-adv-x="340" arabic-form="medial" 
d="M340 0l-50.001 0.00390625c-18 0 -33 -4.16699 -45 -12.5s-21.5 -18.833 -28.5 -31.5s-11.833 -26.834 -14.5 -42.501s-4 -30.5 -4 -44.5c0 -14.667 1.66699 -28 5 -40l-44 -28c-15.333 31.333 -28.333 63.833 -39 97.5s-18.667 67.5 -24 101.5h-111
c-4 0 -7.5 1.5 -10.5 4.5s-4.5 6.5 -4.5 10.5s1.5 7.5 4.5 10.5s6.5 4.5 10.5 4.5h107c-0.666992 7.33301 -1.16699 14.666 -1.5 21.999s-0.5 14.666 -0.5 21.999c0 32 2.33301 64.167 7 96.5s11.667 63.833 21 94.5h33c-9.33398 -32 -16.667 -63.5 -22 -94.5
s-8 -62.5 -8 -94.5c0 -36.667 4.16699 -74.334 12.5 -113.001s20.5 -77 36.5 -115v13c0 18 1.5 37 4.5 57s8.83301 38.167 17.5 54.5s20.834 30 36.501 41s36.167 16.5 61.5 16.5h50v-30z" />
    <glyph glyph-name="hehf2" unicode="&#x6be;" horiz-adv-x="680" arabic-form="final" 
d="M575 30l104.999 -0.000976562v-30h-600c-4 0 -7.5 1.5 -10.5 4.5s-4.5 6.5 -4.5 10.5s1.5 7.5 4.5 10.5s6.5 4.5 10.5 4.5h137c-41.333 28 -62 66.667 -62 116c0 20.667 4 39.5 12 56.5s18.5 31.667 31.5 44s28.167 21.833 45.5 28.5s35 10 53 10h33
c17.333 0 32.5 -6.5 45.5 -19.5s19.5 -28.167 19.5 -45.5v-190h150v175c0 48 -11.333 82.5 -34 103.5s-51.667 31.5 -87 31.5c-22 0 -46.667 -3.66699 -74 -11c-1.33301 4.66699 -2.5 9.16699 -3.5 13.5s-2.16699 8.83301 -3.5 13.5c33.334 9.33301 62.667 14 88 14
c42.667 0 77.334 -13.167 104.001 -39.5s40 -68.166 40 -125.499v-175zM296.999 254.999c-14.668 0 -28.833 -2.66699 -42.499 -8c-13.667 -5.33301 -25.667 -12.833 -36 -22.5s-18.5 -21.167 -24.5 -34.5s-9 -28 -9 -44c0 -16.667 3.33301 -32 10 -46
s15.167 -26.167 25.5 -36.5s22.166 -18.5 35.499 -24.5s27 -9 41 -9h68v190c0 10 -3.33301 18.333 -10 25s-15 10 -25 10h-33z" />
    <glyph glyph-name="uni06BE.init" unicode="&#x6be;" horiz-adv-x="600" arabic-form="initial" 
d="M505 0l-520 -0.000976562c-4 0 -7.5 1.5 -10.5 4.5s-4.5 6.5 -4.5 10.5s1.5 7.5 4.5 10.5s6.5 4.5 10.5 4.5h162c-41.333 28 -62 66.667 -62 116c0 20.667 4 39.5 12 56.5s18.5 31.667 31.5 44s28.167 21.833 45.5 28.5s35 10 53 10h33c18 0 33.333 -6.33301 46 -19
s19 -28 19 -46v-190h150v190c0 48 -11.333 82.5 -34 103.5s-51.667 31.5 -87 31.5c-22 0 -46.667 -3.66699 -74 -11c-1.33301 4.66699 -2.5 9.16699 -3.5 13.5s-2.16699 8.83301 -3.5 13.5c33.333 9.33301 62.666 14 87.999 14c42.667 0 77.334 -13.167 104.001 -39.5
s40 -68.166 40 -125.499v-220zM227 254.999c-14.667 0 -28.832 -2.66699 -42.499 -8s-25.667 -12.833 -36 -22.5s-18.5 -21.167 -24.5 -34.5s-9 -28 -9 -44c0 -16.667 3.33301 -32 10 -46s15.167 -26.167 25.5 -36.5s22.166 -18.5 35.499 -24.5s27 -9 41 -9h68v190
c0 10 -3.33301 18.333 -10 25s-15 10 -25 10h-33z" />
    <glyph glyph-name="uni06BE.medi" unicode="&#x6be;" horiz-adv-x="440" arabic-form="medial" 
d="M236 275c15.333 0 28.5 -3.33105 39.5 -9.99805s20 -15.667 27 -27s12.167 -24.333 15.5 -39s5 -30 5 -46c0 -22.667 -2.83301 -45 -8.5 -67c-5.66797 -22 -13.835 -40.667 -24.5 -56h150v-30h-154c12 -10 21.167 -22.5 27.5 -37.5s9.5 -31.167 9.5 -48.5
c0 -14 -2.16699 -27.833 -6.5 -41.5s-10.666 -25.834 -18.999 -36.501s-18.833 -19.334 -31.5 -26.001s-27.334 -10 -44.001 -10c-23.334 0 -43.667 5.5 -61 16.5s-31.833 25.833 -43.5 44.5s-20.5 40 -26.5 64s-9.33301 49 -10 75h-96c-4 0 -7.5 1.5 -10.5 4.5
s-4.5 6.5 -4.5 10.5s1.5 7.5 4.5 10.5s6.5 4.5 10.5 4.5h96c1.33301 30 5.83301 59.667 13.5 89s18 55.5 31 78.5s28.833 41.667 47.5 56s39.667 21.5 63 21.5zM234 245.002c-19.333 0 -36.501 -6.33398 -51.501 -19.001s-27.667 -29.167 -38 -49.5s-18.5 -43.333 -24.5 -69
s-9.66699 -51.5 -11 -77.5h147c11.333 11.333 20.5 28.333 27.5 51s10.5 46.334 10.5 71.001c0 24 -4.66699 45.5 -14 64.5s-24.666 28.5 -45.999 28.5zM294.999 -86.999c0 10.667 -1.66504 21.1689 -4.99805 31.502s-8.5 19.666 -15.5 27.999s-15.833 15 -26.5 20
s-23.334 7.5 -38.001 7.5h-101c0.666992 -22 3.33398 -43.333 8.00098 -64s11.667 -38.834 21 -54.501s21.166 -28.167 35.499 -37.5s31.166 -14 50.499 -14c11.333 0 21.5 2.33301 30.5 7s16.5 11 22.5 19s10.5 17 13.5 27s4.5 20 4.5 30z" />
    <glyph glyph-name="uni06D2.fina" unicode="&#x6d2;" horiz-adv-x="560" arabic-form="final" 
d="M560 0l-351.999 0.000976562c-26 0 -48 -9.16699 -66 -27.5s-27 -40.833 -27 -67.5v-55h334c9.33301 0 17 -2.66699 23 -8s9.66699 -12.666 11 -22h-368c-8.66699 0 -15.834 3 -21.501 9s-8.5 13 -8.5 21v55c0 16.667 3.33301 32.667 10 48s15.5 28.666 26.5 39.999
s24 20.333 39 27s30.833 10 47.5 10h352v-30z" />
    <glyph glyph-name="uni06D3.fina" unicode="&#x6d3;" horiz-adv-x="560" arabic-form="final" 
d="M311 236l-0.000976562 -20.999h-103v21h33c-9.33301 7.33301 -16.833 15.666 -22.5 24.999c-5.66699 9.33398 -8.5 18.667 -8.5 27.999c0 14.667 4.5 25.667 13.5 33s20.833 11 35.5 11c6.66699 0 14.334 -1.16699 23.001 -3.5s16 -5.16602 22 -8.49902l-9 -18
c-5.33301 2.66699 -11.333 5 -18 7s-12.667 3 -18 3c-18.667 0 -28 -8 -28 -24c0 -9.33301 5 -19.5 15 -30.5s22 -18.5 36 -22.5h29zM559.999 0.000976562l-351.999 0.000976562c-26 0 -48 -9.16699 -66 -27.5s-27 -40.833 -27 -67.5v-55h334c9.33301 0 17 -2.66699 23 -8
s9.66699 -12.666 11 -22h-368c-8.66699 0 -15.834 3 -21.501 9s-8.5 13 -8.5 21v55c0 16.667 3.33301 32.667 10 48s15.5 28.666 26.5 39.999s24 20.333 39 27s30.833 10 47.5 10h352v-30z" />
    <glyph glyph-name="maksuran" unicode="&#x649;" horiz-adv-x="260" arabic-form="initial" 
d="M145 305h30v-305h-190c-4 0 -7.5 1.5 -10.5 4.5s-4.5 6.5 -4.5 10.5s1.5 7.5 4.5 10.5s6.5 4.5 10.5 4.5h160v275z" />
    <glyph glyph-name="maksuram" unicode="&#x649;" horiz-adv-x="300" arabic-form="medial" 
d="M-30 15c0 4 1.5 7.5 4.5 10.5s6.5 4.5 10.5 4.5h150v275h30v-275h135v-30h-315c-4 0 -7.5 1.5 -10.5 4.5s-4.5 6.5 -4.5 10.5z" />
    <glyph glyph-name="uni06CC.fina" unicode="&#x6cc;" horiz-adv-x="580" arabic-form="final" 
d="M495 -150c13.333 0 24.168 4.49805 32.501 13.498s12.5 19.167 12.5 30.5c0 12 -6 24 -18 36l-166 169l21 21l89 -90h114v-30h-85l49 -49c17.333 -17.333 26 -36.333 26 -57c0 -19.333 -7.16699 -36.5 -21.5 -51.5c-14.335 -15 -32.168 -22.5 -53.499 -22.5h-245
c-23.333 0 -45 4.33301 -65 13s-37.333 20.334 -52 35.001s-26.334 32 -35.001 52s-13 41.667 -13 65v130h30v-130c0 -18.667 3.5 -36.167 10.5 -52.5s16.667 -30.666 29 -42.999s26.666 -22 42.999 -29s33.833 -10.5 52.5 -10.5h245z" />
    <glyph glyph-name="uni06CC.init" unicode="&#x6cc;" horiz-adv-x="260" arabic-form="initial" 
d="M4 -91c6.66699 8 14 15.333 22 22l49 -50l-21 -21zM145 -69l49 -50l-21 -21l-50 49zM145 305h30v-305h-190c-4 0 -7.5 1.5 -10.5 4.5s-4.5 6.5 -4.5 10.5s1.5 7.5 4.5 10.5s6.5 4.5 10.5 4.5h160v275z" />
    <glyph glyph-name="uni0651064C" unicode="&#xfc5e;" arabic-form="isolated" 
d="M-23.4004 251.403c0 13.7998 4.94922 25.6504 14.8496 35.5508c9.89941 9.90039 21.75 14.8506 35.5508 14.8506c15 0 26.8506 -4.9502 35.5508 -14.8506s13.0498 -22.3506 13.0498 -37.3506c0 -16.8008 -5.84961 -34.9512 -17.5498 -54.4521
c-11.7002 -19.5 -31.0508 -37.3506 -58.0518 -53.5508l-8.10059 16.2002c12.6006 6.60059 23.4014 14.251 32.4014 22.9502c9 8.7002 16.2002 17.251 21.6006 25.6514c-6 -3 -12.9004 -4.5 -20.7002 -4.5c-12.6006 0 -23.8506 4.34961 -33.75 13.0498
c-9.90039 8.7002 -14.8506 20.8506 -14.8506 36.4512zM-5.40137 251.403c0 -9 3.15039 -16.6504 9.4502 -22.9502c6.2998 -6.30078 13.9502 -9.45117 22.9512 -9.45117c9 0 16.6504 3.15039 22.9502 9.45117c6.2998 6.2998 9.4502 13.9502 9.4502 22.9502
s-3.15039 16.6504 -9.4502 22.9502c-6.2998 6.30078 -13.9502 9.45117 -22.9502 9.45117c-9.00098 0 -16.6514 -3.15039 -22.9512 -9.45117c-6.2998 -6.2998 -9.4502 -13.9502 -9.4502 -22.9502zM-39.6025 171.301c-13.2002 12.001 -22.6504 24.751 -28.3506 38.251
c-5.7002 13.501 -8.5498 27.4512 -8.5498 41.8516c0 24.001 6.90039 45.6016 20.7002 64.8018l14.4004 -10.8008c-11.4004 -17.4004 -17.1006 -35.4004 -17.1006 -54.001c0 -12.001 2.40039 -23.7012 7.2002 -35.1006c4.7998 -11.4004 12.6006 -21.9004 23.4014 -31.501z
M78.999 113c0.666992 -3.33301 1.00195 -7.16895 1.00195 -11.502v-13.5c0 -25.333 -4.83301 -43.5 -14.5 -54.5s-20.167 -16.5 -31.5 -16.5c-14.667 0 -25.334 7.33301 -32.001 22c-3.33301 -10.667 -8.5 -18.667 -15.5 -24s-14.167 -8 -21.5 -8
c-15.333 0 -26.333 5.83301 -33 17.5s-10 25.167 -10 40.5c0 3.33301 0.166992 7 0.5 11s0.833008 7.66699 1.5 11l21 4c-0.666992 -3.33301 -1.33398 -7.66602 -2.00098 -12.999s-1 -10.666 -1 -15.999c0 -11.333 2.33301 -20 7 -26s10 -9 16 -9c6.66699 0 12.667 4 18 12
s8 21 8 39v11.5c0 3.66699 -0.333008 7.16699 -1 10.5l20 3c-0.666992 -3.33301 -1 -6.16602 -1 -8.49902v-7.5c0 -16.667 2.66699 -29.167 8 -37.5s11.333 -12.5 18 -12.5c6 0 11.667 4.16699 17 12.5s8 21.166 8 38.499v11.5c0 3.66699 -0.333008 7.16699 -1 10.5z" />
    <glyph glyph-name="uni0651064D" unicode="&#xfc5f;" arabic-form="isolated" 
d="M-90 42l180 20v-20l-180 -20v20zM-90 102l180 20v-20l-180 -20v20zM79 268c0.666992 -3.33301 1.00195 -7.16895 1.00195 -11.502v-13.5c0 -25.333 -4.83301 -43.5 -14.5 -54.5s-20.167 -16.5 -31.5 -16.5c-14.667 0 -25.334 7.33301 -32.001 22
c-3.33301 -10.667 -8.5 -18.667 -15.5 -24s-14.167 -8 -21.5 -8c-15.333 0 -26.333 5.83301 -33 17.5s-10 25.167 -10 40.5c0 3.33301 0.166992 7 0.5 11s0.833008 7.66699 1.5 11l21 4c-0.666992 -3.33398 -1.33398 -7.66699 -2.00098 -12.999
c-0.666992 -5.33398 -1 -10.667 -1 -15.999c0 -11.333 2.33301 -20 7 -26s10 -9 16 -9c6.66699 0 12.667 4 18 12s8 21 8 39v11.5c0 3.66699 -0.333008 7.16699 -1 10.5l20 3c-0.666992 -3.33496 -1 -6.16797 -1 -8.49902v-7.5c0 -16.667 2.66699 -29.167 8 -37.5
s11.333 -12.5 18 -12.5c6 0 11.667 4.16699 17 12.5s8 21.166 8 38.499v11.5c0 3.66699 -0.333008 7.16699 -1 10.5z" />
    <glyph glyph-name="uni0651064E" unicode="&#xfc60;" arabic-form="isolated" 
d="M-90 179l180 20v-20l-180 -20v20zM79 113c0.666992 -3.33301 1.00195 -7.16895 1.00195 -11.502v-13.5c0 -25.333 -4.83301 -43.5 -14.5 -54.5s-20.167 -16.5 -31.5 -16.5c-14.667 0 -25.334 7.33301 -32.001 22c-3.33301 -10.667 -8.5 -18.667 -15.5 -24
s-14.167 -8 -21.5 -8c-15.333 0 -26.333 5.83301 -33 17.5s-10 25.167 -10 40.5c0 3.33301 0.166992 7 0.5 11s0.833008 7.66699 1.5 11l21 4c-0.666992 -3.33301 -1.33398 -7.66602 -2.00098 -12.999s-1 -10.666 -1 -15.999c0 -11.333 2.33301 -20 7 -26s10 -9 16 -9
c6.66699 0 12.667 4 18 12s8 21 8 39v11.5c0 3.66699 -0.333008 7.16699 -1 10.5l20 3c-0.666992 -3.33301 -1 -6.16602 -1 -8.49902v-7.5c0 -16.667 2.66699 -29.167 8 -37.5s11.333 -12.5 18 -12.5c6 0 11.667 4.16699 17 12.5s8 21.166 8 38.499v11.5
c0 3.66699 -0.333008 7.16699 -1 10.5z" />
    <glyph glyph-name="uni0651064F" unicode="&#xfc61;" arabic-form="isolated" 
d="M-50.4014 248.303c0 13.8008 4.94922 25.6514 14.8496 35.5518c9.90039 9.89941 21.751 14.8496 35.5508 14.8496c15.001 0 26.8516 -4.9502 35.5518 -14.8496c8.7002 -9.90039 13.0508 -22.3506 13.0508 -37.3516c0 -16.7998 -5.85059 -34.9502 -17.5508 -54.4512
s-31.0508 -37.3516 -58.0518 -53.5518l-8.09961 16.2002c12.6006 6.60059 23.4004 14.251 32.4004 22.9512c9.00098 8.7002 16.2012 17.25 21.6006 25.6504c-6 -3 -12.9004 -4.5 -20.7002 -4.5c-12.6006 0 -23.8506 4.35059 -33.751 13.0508
s-14.8506 20.8506 -14.8506 36.4502zM-32.4014 248.303c0 -9 3.15039 -16.6504 9.4502 -22.9502s13.9502 -9.4502 22.9502 -9.4502s16.6504 3.15039 22.9502 9.4502s9.4502 13.9502 9.4502 22.9502c0 9.00098 -3.15039 16.6514 -9.4502 22.9512
s-13.9502 9.4502 -22.9502 9.4502s-16.6504 -3.15039 -22.9502 -9.4502s-9.4502 -13.9502 -9.4502 -22.9512zM78.999 113c0.666992 -3.33301 1.00195 -7.16895 1.00195 -11.502v-13.5c0 -25.333 -4.83301 -43.5 -14.5 -54.5s-20.167 -16.5 -31.5 -16.5
c-14.667 0 -25.334 7.33301 -32.001 22c-3.33301 -10.667 -8.5 -18.667 -15.5 -24s-14.167 -8 -21.5 -8c-15.333 0 -26.333 5.83301 -33 17.5s-10 25.167 -10 40.5c0 3.33301 0.166992 7 0.5 11s0.833008 7.66699 1.5 11l21 4
c-0.666992 -3.33301 -1.33398 -7.66602 -2.00098 -12.999s-1 -10.666 -1 -15.999c0 -11.333 2.33301 -20 7 -26s10 -9 16 -9c6.66699 0 12.667 4 18 12s8 21 8 39v11.5c0 3.66699 -0.333008 7.16699 -1 10.5l20 3c-0.666992 -3.33301 -1 -6.16602 -1 -8.49902v-7.5
c0 -16.667 2.66699 -29.167 8 -37.5s11.333 -12.5 18 -12.5c6 0 11.667 4.16699 17 12.5s8 21.166 8 38.499v11.5c0 3.66699 -0.333008 7.16699 -1 10.5z" />
    <glyph glyph-name="uni06510650" unicode="&#xfc62;" arabic-form="isolated" 
d="M90 36l-160 -18v20l160 18v-20zM79 204c0.666992 -3.33398 1.00195 -7.16602 1.00195 -11.499v-13.5c0 -25.333 -4.83301 -43.5 -14.5 -54.5s-20.167 -16.5 -31.5 -16.5c-14.667 0 -25.334 7.33301 -32.001 22c-3.33301 -10.667 -8.5 -18.667 -15.5 -24
s-14.167 -8 -21.5 -8c-15.333 0 -26.333 5.83301 -33 17.5s-10 25.167 -10 40.5c0 3.33301 0.166992 7 0.5 11s0.833008 7.66699 1.5 11l21 4c-0.666992 -3.33398 -1.33398 -7.66699 -2.00098 -13c-0.666992 -5.33398 -1 -10.667 -1 -16c0 -11.333 2.33301 -20 7 -26
s10 -9 16 -9c6.66699 0 12.667 4 18 12s8 21 8 39v11.5c0 3.66699 -0.333008 7.16699 -1 10.5l20 3c-0.666992 -3.33496 -1 -6.16797 -1 -8.5v-7.5c0 -16.667 2.66699 -29.167 8 -37.5s11.333 -12.5 18 -12.5c6 0 11.667 4.16699 17 12.5s8 21.166 8 38.499v11.5
c0 3.66699 -0.333008 7.16699 -1 10.5z" />
    <glyph glyph-name="uni06510670" unicode="&#xfc63;" arabic-form="isolated" 
d="M79 113c0.666992 -3.33301 1.00195 -7.16895 1.00195 -11.502v-13.5c0 -25.333 -4.83301 -43.5 -14.5 -54.5s-20.167 -16.5 -31.5 -16.5c-14.667 0 -25.334 7.33301 -32.001 22c-3.33301 -10.667 -8.5 -18.667 -15.5 -24s-14.167 -8 -21.5 -8
c-15.333 0 -26.333 5.83301 -33 17.5s-10 25.167 -10 40.5c0 3.33301 0.166992 7 0.5 11s0.833008 7.66699 1.5 11l21 4c-0.666992 -3.33301 -1.33398 -7.66602 -2.00098 -12.999s-1 -10.666 -1 -15.999c0 -11.333 2.33301 -20 7 -26s10 -9 16 -9c6.66699 0 12.667 4 18 12
s8 21 8 39v11.5c0 3.66699 -0.333008 7.16699 -1 10.5l20 3c-0.666992 -3.33301 -1 -6.16602 -1 -8.49902v-7.5c0 -16.667 2.66699 -29.167 8 -37.5s11.333 -12.5 18 -12.5c6 0 11.667 4.16699 17 12.5s8 21.166 8 38.499v11.5c0 3.66699 -0.333008 7.16699 -1 10.5z
M-13.998 316.997c9.33301 -30.667 15.5 -59.334 18.5 -86c3 -26.667 4.83301 -54.667 5.5 -84l-20 -8c0 30.667 -2.5 58.667 -7.5 84s-12.167 52 -21.5 80z" />
    <glyph glyph-name="behmaksuraf" unicode="&#xfc6e;" horiz-adv-x="825" arabic-form="final" 
d="M635 -141c6.66699 8 14 15.333 22 22l48 -50l-21 -21c-8 8 -16 16.167 -24 24.5s-16.333 16.5 -25 24.5zM515 75c8 0 15.0039 -3.00098 21.0039 -9.00098s9 -13 9 -21v-40c0 -22.667 -4.33301 -44 -13 -64s-20.5 -37.5 -35.5 -52.5s-32.5 -26.833 -52.5 -35.5
s-41.333 -13 -64 -13h-130c-22.667 0 -44 4.33301 -64 13s-37.5 20.5 -52.5 35.5s-26.833 32.5 -35.5 52.5s-13 41.333 -13 64v120h30v-120c0 -18.667 3.5 -36.167 10.5 -52.5s16.667 -30.666 29 -42.999s26.666 -22 42.999 -29s33.833 -10.5 52.5 -10.5h130
c18 0 35.167 3.5 51.5 10.5c16.334 7 30.667 16.667 42.999 29c12.335 12.333 22.168 26.666 29.499 42.999c7.33301 16.333 11 33.833 11 52.5v40h-140c-8.66797 0 -15.835 2.83301 -21.5 8.5c-5.66699 5.66699 -8.5 12.834 -8.5 21.501v25c0 24 4.66699 46.667 14 68
s21.833 39.833 37.5 55.5s34.167 28.167 55.5 37.5s44 14 68 14h156c9.33301 -41.333 18.666 -82.333 27.999 -123l28 -122h93v-30h-118l-54 245h-133c-20 0 -38.833 -3.83301 -56.5 -11.5s-33 -18 -46 -31s-23.333 -28.333 -31 -46s-11.5 -36.5 -11.5 -56.5v-25h140z" />
    <glyph glyph-name="behyehf" unicode="&#xfc6f;" horiz-adv-x="825" arabic-form="final" 
d="M635 -91c6.66699 8 14 15.333 22 22l48 -50l-21 -21c-8 8 -16 16.167 -24 24.5s-16.333 16.5 -25 24.5zM216 -237.898c6.66699 7.19922 14 13.7998 22 19.8008l49 -45.002l-21 -18.9004zM357 -218.098l49 -45.002l-21 -18.9004l-50 44.1016zM515 75
c8 0 15.0039 -3.00098 21.0039 -9.00098s9 -13 9 -21v-40c0 -22.667 -4.33301 -44 -13 -64s-20.5 -37.5 -35.5 -52.5s-32.5 -26.833 -52.5 -35.5s-41.333 -13 -64 -13h-130c-22.667 0 -44 4.33301 -64 13s-37.5 20.5 -52.5 35.5s-26.833 32.5 -35.5 52.5s-13 41.333 -13 64
v120h30v-120c0 -18.667 3.5 -36.167 10.5 -52.5s16.667 -30.666 29 -42.999s26.666 -22 42.999 -29s33.833 -10.5 52.5 -10.5h130c18 0 35.167 3.5 51.5 10.5c16.334 7 30.667 16.667 42.999 29c12.335 12.333 22.168 26.666 29.499 42.999
c7.33301 16.333 11 33.833 11 52.5v40h-140c-8.66797 0 -15.835 2.83301 -21.5 8.5c-5.66699 5.66699 -8.5 12.834 -8.5 21.501v25c0 24 4.66699 46.667 14 68s21.833 39.833 37.5 55.5s34.167 28.167 55.5 37.5s44 14 68 14h156
c9.33301 -41.333 18.666 -82.333 27.999 -123l28 -122h93v-30h-118l-54 245h-133c-20 0 -38.833 -3.83301 -56.5 -11.5s-33 -18 -46 -31s-23.333 -28.333 -31 -46s-11.5 -36.5 -11.5 -56.5v-25h140z" />
    <glyph glyph-name="Salla" unicode="&#xfdfa;" horiz-adv-x="1555" arabic-form="isolated" 
d="M902 207c5.33301 0 9.66602 1.66602 12.999 4.99902s5 7.33301 5 12s-2.66699 9.66699 -8 15l-84 85l18 18l45 -45h119v245h25v-245h105v135h25v-83l41 33c14.667 12 27.334 21.333 38.001 28s19.667 11.667 27 15s13.833 5.33301 19.5 6s11.167 1 16.5 1
c19.333 0 35.5 -6.66699 48.5 -20s19.5 -29 19.5 -47v-55c0 -11.333 -3.66699 -20.5 -11 -27.5s-16.333 -10.5 -27 -10.5h-421l15 -16c5.33301 -5.33301 9 -11 11 -17s3 -11 3 -15c0 -11.333 -4 -21.166 -12 -29.499s-18.333 -12.5 -31 -12.5h-120
c-24 0 -44.5 8.5 -61.5 25.5s-25.5 37.833 -25.5 62.5v67h25v-67c0 -17.334 6 -32.167 18 -44.5s26.667 -18.5 44 -18.5h120zM80 16.999c0 25.333 7.66797 43.333 23.001 54s32.666 16 51.999 16c12 0 24.167 -1.83301 36.5 -5.5s23.5 -8.5 33.5 -14.5v-104h71v244h25v-244
h81v134h25v-134h80v134h25v-134h67c8.66699 0 13 4 13 12v122h25v-122c0 -10.667 -3.66699 -19.5 -11 -26.5s-16.333 -10.5 -27 -10.5h-494v-80h-25v159zM1475 -37.001l-0.000976562 -24.9971h-553c-14.667 0 -24.5 3.16699 -29.5 9.5s-7.5 14.833 -7.5 25.5
c0 6 1.66699 13 5 21l26 73c3.33301 9.33301 9 16.666 17 21.999s17 8 27 8h75v-134h81v134h25v-134h96v244h25v-244h115c-12.6719 11.333 -22.8389 24.666 -30.5 39.999c-7.66699 15.333 -11.5 29.666 -11.5 42.999c0 17.333 5.33301 31.833 16 43.5
s28.334 17.5 53.001 17.5c11.333 0 22.5 -1.83301 33.5 -5.5s21.167 -8.5 30.5 -14.5l-7 -24c-19.333 12.667 -38.333 19 -57 19c-15.333 0 -26.5 -3.5 -33.5 -10.5s-10.5 -15.5 -10.5 -25.5c0 -8 1.83301 -16.5 5.5 -25.5s8.5 -17.5 14.5 -25.5s13 -14.833 21 -20.5
s16.667 -9.5 26 -11.5h48zM202 272.002c-14.667 0 -24.5 3.16797 -29.5 9.50098c-5 6.33398 -7.5 15.167 -7.5 26.499c0 6 1.66699 13 5 21l26 73c3.33301 9.33496 9 16.668 17 22c8 5.33301 17 8 27 8h75v-135h85v200h25v-200h90v235h25v-260h-338zM797 -61.9971h-60.999
c-13.333 0 -24.5 4.5 -33.5 13.5s-13.5 20.167 -13.5 33.5v30c0 28 7.33301 48.667 22 62s32 20 52 20c8.66699 0 19 -1.83301 31 -5.5s25.333 -9.5 40 -17.5v-139c0 -29.333 -7.33301 -49.5 -22 -60.5s-32.334 -16.5 -53.001 -16.5c-21.333 0 -44.333 4.33301 -69 13
c1.33301 4 2.83301 8 4.5 12s3.5 8 5.5 12c22 -8 41.667 -12 59 -12c14 0 25.833 3.66699 35.5 11s14.5 21 14.5 41zM1222 362.003c-9.33301 -7.33301 -18.833 -14.668 -28.5 -22.001s-19.167 -14.666 -28.5 -21.999v-21h172c8.66699 0 13 4.33301 13 13v55
c0 11.335 -4.16699 21.168 -12.5 29.5c-8.33301 8.33301 -18.5 12.5 -30.5 12.5c-5.33301 0 -10 -0.333008 -14 -1s-9 -2.5 -15 -5.5s-13.333 -7.5 -22 -13.5s-20 -14.333 -34 -25zM809.001 -36.999v95.999c-17.335 8.66699 -32.668 13 -46 13
c-13.333 0 -24.833 -4.66699 -34.5 -14s-14.5 -23.666 -14.5 -42.999v-30c0 -6 2.16699 -11.167 6.5 -15.5s9.5 -6.5 15.5 -6.5h73zM1010 -37l0.000976562 108.999h-50c-10 0 -16.667 -4.66699 -20 -14l-27 -73c-0.666992 -2 -1.33398 -4.16699 -2.00098 -6.5
s-1 -4.16602 -1 -5.49902c0 -6.66699 4 -10 12 -10h88zM290.002 296.999l0.000976562 109.999h-50c-10 0 -16.667 -4.66699 -20 -14l-27 -73c-0.666992 -2 -1.33398 -4.16699 -2.00098 -6.5s-1 -4.16602 -1 -5.49902c0 -7.33301 4 -11 12 -11h88zM200.003 -37.002v89
c-16.667 6.66699 -31.667 10 -45 10c-12.667 0 -24.167 -3.5 -34.5 -10.5s-15.5 -18.5 -15.5 -34.5v-54h95zM635.003 536.998v-270h-25v270h25zM1089 -94.002c10 -9.33301 19.667 -19 29 -29l-18 -18c-9.33301 10 -19 19.667 -29 29zM1149 -94.002
c10 -9.33301 19.667 -19 29 -29l-18 -18c-9.33301 10 -19 19.667 -29 29z" />
    <glyph glyph-name="alefmdf" unicode="&#x622;" horiz-adv-x="220" arabic-form="final" 
d="M115 525v-495h105v-30h-135v525h30zM185 603c-8 -6 -15.5 -10.167 -22.5 -12.5s-13.5 -3.5 -19.5 -3.5c-11.333 0 -21.666 2.16699 -30.999 6.5s-19.666 6.5 -30.999 6.5c-6.66699 0 -13.667 -1.5 -21 -4.5s-15.666 -8.5 -24.999 -16.5v23
c9.33301 8 17.666 13.5 24.999 16.5s14.333 4.5 21 4.5c11.333 0 21.666 -2.16699 30.999 -6.5s19.666 -6.5 30.999 -6.5c6 0 12.5 1.16699 19.5 3.5s14.5 6.5 22.5 12.5v-23z" />
    <glyph glyph-name="alefhmzf" unicode="&#x623;" horiz-adv-x="220" arabic-form="final" 
d="M115 525v-495h105v-30h-135v525h30zM161 601l-0.000976562 -20.998h-103v21h33c-9.33301 7.33301 -16.833 15.666 -22.5 24.999s-8.5 18.666 -8.5 27.999c0 14.667 4.5 25.667 13.5 33s20.833 11 35.5 11c6.66699 0 14.334 -1.16699 23.001 -3.5
c8.66699 -2.35449 16 -5.1875 22 -8.5l-9 -18c-5.33301 2.66699 -11.333 5 -18 7s-12.667 3 -18 3c-18.667 0 -28 -8 -28 -24c0 -9.33301 5 -19.5 15 -30.5s22 -18.5 36 -22.5h29z" />
    <glyph glyph-name="wawhmzf" unicode="&#x624;" horiz-adv-x="440" arabic-form="final" 
d="M325 0l-154.998 0.000976562c-24 0 -44.167 8.16699 -60.5 24.5s-24.5 36.5 -24.5 60.5v65c0 26.667 3.66699 49.834 11 69.5c7.33301 19.667 17.333 35.834 30 48.5c12.667 12.667 27.5 22 44.5 28s34.833 9 53.5 9c17.333 0 37.166 -3.5 59.499 -10.5
s46.166 -17.167 71.499 -30.5v-234h85v-30h-85v-10c0 -28 -3.5 -51.5 -10.5 -70.5s-16.667 -34.333 -29 -46s-26.833 -20 -43.5 -25s-35 -7.5 -55 -7.5c-35.333 0 -77.666 7.66699 -126.999 23l10 28c46 -14 85 -21 117 -21c15.333 0 29.666 2 42.999 6
s24.833 10.667 34.5 20s17.167 21.666 22.5 36.999s8 34 8 56v10zM325.002 30.001l0.000976562 216c-36.667 19.333 -70.334 29 -101.001 29c-14.667 0 -28.667 -2.5 -42 -7.5s-25 -12.667 -35 -23s-17.833 -23.333 -23.5 -39s-8.5 -34.167 -8.5 -55.5v-65
c0 -15.333 5.33301 -28.333 16 -39s23.667 -16 39 -16h155zM271.003 421.001v-21.001h-103v21h33c-9.33301 7.33496 -16.833 15.668 -22.5 25c-5.66699 9.33496 -8.5 18.668 -8.5 28c0 14.667 4.5 25.667 13.5 33s20.833 11 35.5 11c6.66699 0 14.334 -1.16699 23 -3.5
c8.66699 -2.33301 16 -5.16602 22 -8.49902l-9 -18c-5.33301 2.66699 -11.333 5 -18 7s-12.667 3 -18 3c-18.667 0 -28 -8 -28 -24c0 -9.33301 5 -19.5 15 -30.5s22 -18.5 36 -22.5h29z" />
    <glyph glyph-name="alefhmz2f" unicode="&#x625;" horiz-adv-x="220" arabic-form="final" 
d="M115 525v-495h105v-30h-135v525h30zM161 -184l-0.000976562 -20.999h-103v21h33c-9.33301 7.33301 -16.833 15.666 -22.5 24.999s-8.5 18.666 -8.5 27.999c0 14.667 4.5 25.667 13.5 33s20.833 11 35.5 11c6.66699 0 14.334 -1.16699 23.001 -3.5
s16 -5.16602 22 -8.49902l-9 -18c-5.33301 2.66699 -11.333 5 -18 7s-12.667 3 -18 3c-18.667 0 -28 -8 -28 -24c0 -9.33301 5 -19.5 15 -30.5s22 -18.5 36 -22.5h29z" />
    <glyph glyph-name="yehhmzf" unicode="&#x626;" horiz-adv-x="580" arabic-form="final" 
d="M161 261l-0.000976562 -20.999h-103v21h33c-9.33301 7.33398 -16.833 15.667 -22.5 24.999c-5.66699 9.33398 -8.5 18.667 -8.5 27.999c0 14.667 4.5 25.667 13.5 33s20.833 11 35.5 11c6.66699 0 14.334 -1.16699 23.001 -3.5s16 -5.16602 22 -8.49902l-9 -18
c-5.33301 2.66699 -11.333 5 -18 7s-12.667 3 -18 3c-18.667 0 -28 -8 -28 -24c0 -9.33301 5 -19.5 15 -30.5s22 -18.5 36 -22.5h29zM494.999 -149.999c13.333 0 24.168 4.49805 32.501 13.498s12.5 19.167 12.5 30.5c0 12 -6 24 -18 36l-166 169l21 21l89 -90h114v-30h-85
l49 -49c17.333 -17.333 26 -36.333 26 -57c0 -19.333 -7.16699 -36.5 -21.5 -51.5c-14.335 -15 -32.168 -22.5 -53.499 -22.5h-245c-23.333 0 -45 4.33301 -65 13s-37.333 20.334 -52 35.001s-26.334 32 -35.001 52s-13 41.667 -13 65v130h30v-130
c0 -18.667 3.5 -36.167 10.5 -52.5s16.667 -30.666 29 -42.999s26.666 -22 42.999 -29s33.833 -10.5 52.5 -10.5h245z" />
    <glyph glyph-name="hmzn" unicode="&#x626;" horiz-adv-x="260" arabic-form="initial" 
d="M145 305h30v-305h-190c-4 0 -7.5 1.5 -10.5 4.5s-4.5 6.5 -4.5 10.5s1.5 7.5 4.5 10.5s6.5 4.5 10.5 4.5h160v275zM201 421v-21.001h-103v21h33c-9.33301 7.33496 -16.833 15.668 -22.5 25c-5.66699 9.33496 -8.5 18.668 -8.5 28c0 14.667 4.5 25.667 13.5 33
s20.833 11 35.5 11c6.66699 0 14.334 -1.16699 23 -3.5c8.66699 -2.33301 16 -5.16602 22 -8.49902l-9 -18c-5.33301 2.66699 -11.333 5 -18 7s-12.667 3 -18 3c-18.667 0 -28 -8 -28 -24c0 -9.33301 5 -19.5 15 -30.5s22 -18.5 36 -22.5h29z" />
    <glyph glyph-name="hmzm" unicode="&#x626;" horiz-adv-x="300" arabic-form="medial" 
d="M-30 15c0 4 1.5 7.5 4.5 10.5s6.5 4.5 10.5 4.5h150v275h30v-275h135v-30h-315c-4 0 -7.5 1.5 -10.5 4.5s-4.5 6.5 -4.5 10.5zM201 421v-21.001h-103v21h33c-9.33301 7.33496 -16.833 15.668 -22.5 25c-5.66699 9.33496 -8.5 18.668 -8.5 28c0 14.667 4.5 25.667 13.5 33
s20.833 11 35.5 11c6.66699 0 14.334 -1.16699 23 -3.5c8.66699 -2.33301 16 -5.16602 22 -8.49902l-9 -18c-5.33301 2.66699 -11.333 5 -18 7s-12.667 3 -18 3c-18.667 0 -28 -8 -28 -24c0 -9.33301 5 -19.5 15 -30.5s22 -18.5 36 -22.5h29z" />
    <glyph glyph-name="aleff" unicode="&#x627;" horiz-adv-x="220" arabic-form="final" 
d="M115 525v-495h105v-30h-135v525h30z" />
    <glyph glyph-name="behf" unicode="&#x628;" horiz-adv-x="770" arabic-form="final" 
d="M346 -106c6.66699 8 14 15.333 22 22l48 -50l-21 -21c-8 8 -16 16.167 -24 24.5s-16.333 16.5 -25 24.5zM115 65c0 -10 3.33301 -18.333 10 -25s15 -10 25 -10h495v275h30v-275h95v-30h-620c-18.667 0 -34.167 6.16699 -46.5 18.5s-18.5 27.833 -18.5 46.5v240h30v-240z
" />
    <glyph glyph-name="behn" unicode="&#x628;" horiz-adv-x="260" arabic-form="initial" 
d="M62 -91c6.66699 8 14 15.333 22 22l48 -50l-21 -21c-8 8 -16 16.167 -24 24.5s-16.333 16.5 -25 24.5zM145 305h30v-305h-190c-4 0 -7.5 1.5 -10.5 4.5s-4.5 6.5 -4.5 10.5s1.5 7.5 4.5 10.5s6.5 4.5 10.5 4.5h160v275z" />
    <glyph glyph-name="behm" unicode="&#x628;" horiz-adv-x="300" arabic-form="medial" 
d="M111 -91c6.66699 8 14 15.333 22 22l48 -50l-21 -21c-8 8 -16 16.167 -24 24.5s-16.333 16.5 -25 24.5zM-30 15c0 4 1.5 7.5 4.5 10.5s6.5 4.5 10.5 4.5h150v275h30v-275h135v-30h-315c-4 0 -7.5 1.5 -10.5 4.5s-4.5 6.5 -4.5 10.5z" />
    <glyph glyph-name="marbutaf" unicode="&#x629;" horiz-adv-x="460" arabic-form="final" 
d="M186 459c6.66699 8 14 15.333 22 22l49 -50l-21 -21zM327 481l49 -50l-21 -21l-50 49zM200 0c-42 0 -72.167 9.66797 -90.5 29.001s-27.5 43.666 -27.5 72.999c0 20 5.5 41.833 16.5 65.5s26.5 45.667 46.5 66s44 37.333 72 51s59 20.5 93 20.5h55v-275h95v-30h-260z
M335 30.001l-0.00195312 244.999h-25c-30 0 -57.167 -5.66699 -81.5 -17s-45.166 -25.666 -62.499 -42.999c-17.333 -17.334 -30.666 -36.167 -39.999 -56.5s-14 -39.166 -14 -56.499c0 -20.667 6.83301 -37.834 20.5 -51.501s36.167 -20.5 67.5 -20.5h135zM-16.002 0v0v0v0
v0v0v0v0zM-16.002 0v0v0v0v0v0v0v0v0v0v0v0zM-16.002 0v0v0v0v0v0zM-16.002 0v0v0v0v0v0zM-16.002 0v0v0v0zM-16.002 0v0v0v0zM-16.002 0v0v0v0zM-16.002 0v0v0v0v0v0v0v0zM-16.002 0v0v0v0v0v0v0v0v0v0v0v0zM-16.002 0v0v0v0v0v0v0v0v0v0v0v0zM-16.002 0v0v0v0v0v0v0v0v0v0
zM-16.002 0v0v0v0v0v0v0v0zM-16.002 0v0v0v0zM-16.002 0v0v0v0zM-16.002 0v0v0v0zM-16.002 0v0v0v0zM-16.002 0v0v0v0zM-16.002 0v0v0v0zM-16.002 0v0v0v0z" />
    <glyph glyph-name="tehf" unicode="&#x62a;" horiz-adv-x="770" arabic-form="final" 
d="M291 459c6.66699 8 14 15.333 22 22l49 -50l-21 -21zM432 481l49 -50l-21 -21l-50 49zM115 65c0 -10 3.33301 -18.333 10 -25s15 -10 25 -10h495v275h30v-275h95v-30h-620c-18.667 0 -34.167 6.16699 -46.5 18.5s-18.5 27.833 -18.5 46.5v240h30v-240z" />
    <glyph glyph-name="tehn" unicode="&#x62a;" horiz-adv-x="260" arabic-form="initial" 
d="M31 459c6.66699 8 14 15.333 22 22l49 -50l-21 -21zM172 481l49 -50l-21 -21l-50 49zM145 305h30v-305h-190c-4 0 -7.5 1.5 -10.5 4.5s-4.5 6.5 -4.5 10.5s1.5 7.5 4.5 10.5s6.5 4.5 10.5 4.5h160v275z" />
    <glyph glyph-name="tehm" unicode="&#x62a;" horiz-adv-x="300" arabic-form="medial" 
d="M31 459c6.66699 8 14 15.333 22 22l49 -50l-21 -21zM172 481l49 -50l-21 -21l-50 49zM-30 15c0 4 1.5 7.5 4.5 10.5s6.5 4.5 10.5 4.5h150v275h30v-275h135v-30h-315c-4 0 -7.5 1.5 -10.5 4.5s-4.5 6.5 -4.5 10.5z" />
    <glyph glyph-name="thehf" unicode="&#x62b;" horiz-adv-x="770" arabic-form="final" 
d="M291 439c6.66699 8 14 15.333 22 22l49 -50l-21 -21zM432 461l49 -50l-21 -21l-50 49zM346 539c6.66699 8 14 15.333 22 22l48 -50l-21 -21c-8 8 -16 16.167 -24 24.5s-16.333 16.5 -25 24.5zM115 65c0 -10 3.33301 -18.333 10 -25s15 -10 25 -10h495v275h30v-275h95v-30
h-620c-18.667 0 -34.167 6.16699 -46.5 18.5s-18.5 27.833 -18.5 46.5v240h30v-240z" />
    <glyph glyph-name="thehn" unicode="&#x62b;" horiz-adv-x="260" arabic-form="initial" 
d="M31 439c6.66699 8 14 15.333 22 22l49 -50l-21 -21zM172 461l49 -50l-21 -21l-50 49zM86 539c6.66699 8 14 15.333 22 22l48 -50l-21 -21c-8 8 -16 16.167 -24 24.5s-16.333 16.5 -25 24.5zM145 305h30v-305h-190c-4 0 -7.5 1.5 -10.5 4.5s-4.5 6.5 -4.5 10.5
s1.5 7.5 4.5 10.5s6.5 4.5 10.5 4.5h160v275z" />
    <glyph glyph-name="thehm" unicode="&#x62b;" horiz-adv-x="300" arabic-form="medial" 
d="M31 439c6.66699 8 14 15.333 22 22l49 -50l-21 -21zM172 461l49 -50l-21 -21l-50 49zM86 539c6.66699 8 14 15.333 22 22l48 -50l-21 -21c-8 8 -16 16.167 -24 24.5s-16.333 16.5 -25 24.5zM-30 15c0 4 1.5 7.5 4.5 10.5s6.5 4.5 10.5 4.5h150v275h30v-275h135v-30h-315
c-4 0 -7.5 1.5 -10.5 4.5s-4.5 6.5 -4.5 10.5z" />
    <glyph glyph-name="jeemf" unicode="&#x62c;" horiz-adv-x="440" arabic-form="final" 
d="M219 -103c6.66699 8 14 15.333 22 22l48 -50l-21 -21c-8 8 -16 16.167 -24 24.5s-16.333 16.5 -25 24.5zM440 30l-0.00195312 -29.998h-183c-18 0 -35.5 -3.16699 -52.5 -9.5s-32 -15.166 -45 -26.499s-23.5 -24.666 -31.5 -39.999s-12 -32 -12 -50
c0 -24.667 5.16699 -44.834 15.5 -60.501s23.333 -28.167 39 -37.5s32.667 -15.833 51 -19.5s35.5 -5.5 51.5 -5.5c7.33301 0 14.333 0.5 21 1.5s13.334 2.16699 20.001 3.5v-30c-6.66699 -1.33301 -13.667 -2.33301 -21 -3s-14.666 -1 -21.999 -1
c-19.333 0 -39.833 2.33301 -61.5 7s-41.667 12.834 -60 24.501c-18.333 11.666 -33.5 27.333 -45.5 47s-18 44.167 -18 73.5c0 22 4.66699 42.5 14 61.5s22 35.5 38 49.5s34.333 25 55 33s42 12 64 12h88c-21.333 21.333 -38.666 46.166 -51.999 74.499
s-25.5 55.166 -36.5 80.499s-22.833 46.666 -35.5 63.999s-29 26 -49 26c-17.333 0 -38.666 -9 -63.999 -27l-17 25c14 10 27.667 17.833 41 23.5s26.666 8.5 39.999 8.5c20.667 0 38 -5.66699 52 -17s26.167 -25.833 36.5 -43.5
c10.334 -17.667 19.667 -37.334 27.999 -59.001c8.33496 -21.667 17.668 -42.667 28 -63c10.333 -20.333 22 -38.833 35 -55.5s29.5 -29 49.5 -37h39zM-17.002 0.00195312v0v0v0v0v0v0v0zM-17.002 0.00195312v0v0v0v0v0v0v0v0v0v0v0zM-17.002 0.00195312v0v0v0v0v0z
M-17.002 0.00195312v0v0v0v0v0zM-17.002 0.00195312v0v0v0zM-17.002 0.00195312v0v0v0zM-17.002 0.00195312v0v0v0zM-17.002 0.00195312v0v0v0v0v0v0v0zM-17.002 0.00195312v0v0v0v0v0v0v0v0v0v0v0zM-17.002 0.00195312v0v0v0v0v0v0v0v0v0v0v0zM-17.002 0.00195312v0v0v0v0
v0v0v0v0v0zM-17.002 0.00195312v0v0v0v0v0v0v0zM-17.002 0.00195312v0v0v0zM-17.002 0.00195312v0v0v0zM-17.002 0.00195312v0v0v0zM-17.002 0.00195312v0v0v0zM-17.002 0.00195312v0v0v0zM-17.002 0.00195312v0v0v0zM-17.002 0.00195312v0v0v0zM-17.002 0.00195312v0v0v0v0
v0v0v0zM-17.002 0.00195312v0v0v0v0v0v0v0v0v0v0v0zM-17.002 0.00195312v0v0v0v0v0zM-17.002 0.00195312v0v0v0v0v0zM-17.002 0.00195312v0v0v0zM-17.002 0.00195312v0v0v0zM-17.002 0.00195312v0v0v0zM-17.002 0.00195312v0v0v0v0v0v0v0zM-17.002 0.00195312v0v0v0v0v0v0v0
v0v0v0v0zM-17.002 0.00195312v0v0v0v0v0v0v0v0v0v0v0zM-17.002 0.00195312v0v0v0v0v0v0v0v0v0zM-17.002 0.00195312v0v0v0v0v0v0v0zM-17.002 0.00195312v0v0v0zM-17.002 0.00195312v0v0v0zM-17.002 0.00195312v0v0v0zM-17.002 0.00195312v0v0v0zM-17.002 0.00195312v0v0v0z
M-17.002 0.00195312v0v0v0zM-17.002 0.00195312v0v0v0z" />
    <glyph glyph-name="jeemn" unicode="&#x62c;" horiz-adv-x="490" arabic-form="initial" 
d="M186 -91c6.66699 8 14 15.333 22 22l48 -50l-21 -21c-8 8 -16 16.167 -24 24.5s-16.333 16.5 -25 24.5zM445 0l-460 0.00195312c-4.66699 0 -8.33398 1.5 -11.001 4.5s-4 6.5 -4 10.5s1.33301 7.5 4 10.5s6.33398 4.5 11.001 4.5h372
c-15.333 11.333 -29.166 25.166 -41.499 41.499s-24 33.666 -35 51.999s-21.667 36.5 -32 54.5s-20.833 34.167 -31.5 48.5s-22.167 26 -34.5 35s-25.833 13.5 -40.5 13.5c-10.667 0 -21.334 -2.33301 -32.001 -7s-22 -11 -34 -19l-17 25c14 9.33301 27.667 16.833 41 22.5
s27.333 8.5 42 8.5c22.667 0 42.667 -6.83301 60 -20.5s33 -30.667 47 -51s27.5 -42.333 40.5 -66s27 -45.667 42 -66s31.5 -37.333 49.5 -51s39.333 -20.5 64 -20.5v-30z" />
    <glyph glyph-name="jeemm" unicode="&#x62c;" horiz-adv-x="480" arabic-form="medial" 
d="M226 -91c6.66699 8 14 15.333 22 22l48 -50l-21 -21c-8 8 -16 16.167 -24 24.5s-16.333 16.5 -25 24.5zM480 30l-0.00195312 -29.998h-495c-4.66699 0 -8.33398 1.5 -11.001 4.5s-4 6.5 -4 10.5s1.33301 7.5 4 10.5s6.33398 4.5 11.001 4.5h372
c-15.333 11.333 -29.166 25.166 -41.499 41.499s-24 33.666 -35 51.999s-21.667 36.5 -32 54.5s-20.833 34.167 -31.5 48.5s-22.167 26 -34.5 35s-25.833 13.5 -40.5 13.5c-10.667 0 -21.334 -2.33301 -32.001 -7s-22 -11 -34 -19l-17 25c14 9.33301 27.667 16.833 41 22.5
s27.333 8.5 42 8.5c22.667 0 42.5 -6.83301 59.5 -20.5s32.5 -30.667 46.5 -51s27.333 -42.333 40 -66s26.334 -45.667 41.001 -66s30.834 -37.333 48.501 -51s38.5 -20.5 62.5 -20.5h40z" />
    <glyph glyph-name="hahf" unicode="&#x62d;" horiz-adv-x="440" arabic-form="final" 
d="M440 30l-0.00195312 -29.998h-183c-18 0 -35.5 -3.16699 -52.5 -9.5s-32 -15.166 -45 -26.499s-23.5 -24.666 -31.5 -39.999s-12 -32 -12 -50c0 -24.667 5.16699 -44.834 15.5 -60.501s23.333 -28.167 39 -37.5s32.667 -15.833 51 -19.5s35.5 -5.5 51.5 -5.5
c7.33301 0 14.333 0.5 21 1.5s13.334 2.16699 20.001 3.5v-30c-6.66699 -1.33301 -13.667 -2.33301 -21 -3s-14.666 -1 -21.999 -1c-19.333 0 -39.833 2.33301 -61.5 7s-41.667 12.834 -60 24.501c-18.333 11.666 -33.5 27.333 -45.5 47s-18 44.167 -18 73.5
c0 22 4.66699 42.5 14 61.5s22 35.5 38 49.5s34.333 25 55 33s42 12 64 12h88c-21.333 21.333 -38.666 46.166 -51.999 74.499s-25.5 55.166 -36.5 80.499s-22.833 46.666 -35.5 63.999s-29 26 -49 26c-17.333 0 -38.666 -9 -63.999 -27l-17 25c14 10 27.667 17.833 41 23.5
s26.666 8.5 39.999 8.5c20.667 0 38 -5.66699 52 -17s26.167 -25.833 36.5 -43.5c10.334 -17.667 19.667 -37.334 27.999 -59.001c8.33496 -21.667 17.668 -42.667 28 -63c10.333 -20.333 22 -38.833 35 -55.5s29.5 -29 49.5 -37h39z" />
    <glyph glyph-name="hahn" unicode="&#x62d;" horiz-adv-x="490" arabic-form="initial" 
d="M445 0l-460 0.00195312c-4.66699 0 -8.33398 1.5 -11.001 4.5s-4 6.5 -4 10.5s1.33301 7.5 4 10.5s6.33398 4.5 11.001 4.5h372c-15.333 11.333 -29.166 25.166 -41.499 41.499s-24 33.666 -35 51.999s-21.667 36.5 -32 54.5s-20.833 34.167 -31.5 48.5
s-22.167 26 -34.5 35s-25.833 13.5 -40.5 13.5c-10.667 0 -21.334 -2.33301 -32.001 -7s-22 -11 -34 -19l-17 25c14 9.33301 27.667 16.833 41 22.5s27.333 8.5 42 8.5c22.667 0 42.667 -6.83301 60 -20.5s33 -30.667 47 -51s27.5 -42.333 40.5 -66s27 -45.667 42 -66
s31.5 -37.333 49.5 -51s39.333 -20.5 64 -20.5v-30z" />
    <glyph glyph-name="hahm" unicode="&#x62d;" horiz-adv-x="480" arabic-form="medial" 
d="M480 30l-0.00195312 -29.998h-495c-4.66699 0 -8.33398 1.5 -11.001 4.5s-4 6.5 -4 10.5s1.33301 7.5 4 10.5s6.33398 4.5 11.001 4.5h372c-15.333 11.333 -29.166 25.166 -41.499 41.499s-24 33.666 -35 51.999s-21.667 36.5 -32 54.5s-20.833 34.167 -31.5 48.5
s-22.167 26 -34.5 35s-25.833 13.5 -40.5 13.5c-10.667 0 -21.334 -2.33301 -32.001 -7s-22 -11 -34 -19l-17 25c14 9.33301 27.667 16.833 41 22.5s27.333 8.5 42 8.5c22.667 0 42.5 -6.83301 59.5 -20.5s32.5 -30.667 46.5 -51s27.333 -42.333 40 -66
s26.334 -45.667 41.001 -66s30.834 -37.333 48.501 -51s38.5 -20.5 62.5 -20.5h40z" />
    <glyph glyph-name="khahf" unicode="&#x62e;" horiz-adv-x="440" arabic-form="final" 
d="M151 469c6.66699 8 14 15.333 22 22l48 -50l-21 -21c-8 8 -16 16.167 -24 24.5s-16.333 16.5 -25 24.5zM440 30l-0.00195312 -29.998h-183c-18 0 -35.5 -3.16699 -52.5 -9.5s-32 -15.166 -45 -26.499s-23.5 -24.666 -31.5 -39.999s-12 -32 -12 -50
c0 -24.667 5.16699 -44.834 15.5 -60.501s23.333 -28.167 39 -37.5s32.667 -15.833 51 -19.5s35.5 -5.5 51.5 -5.5c7.33301 0 14.333 0.5 21 1.5s13.334 2.16699 20.001 3.5v-30c-6.66699 -1.33301 -13.667 -2.33301 -21 -3s-14.666 -1 -21.999 -1
c-19.333 0 -39.833 2.33301 -61.5 7s-41.667 12.834 -60 24.501c-18.333 11.666 -33.5 27.333 -45.5 47s-18 44.167 -18 73.5c0 22 4.66699 42.5 14 61.5s22 35.5 38 49.5s34.333 25 55 33s42 12 64 12h88c-21.333 21.333 -38.666 46.166 -51.999 74.499
s-25.5 55.166 -36.5 80.499s-22.833 46.666 -35.5 63.999s-29 26 -49 26c-17.333 0 -38.666 -9 -63.999 -27l-17 25c14 10 27.667 17.833 41 23.5s26.666 8.5 39.999 8.5c20.667 0 38 -5.66699 52 -17s26.167 -25.833 36.5 -43.5
c10.334 -17.667 19.667 -37.334 27.999 -59.001c8.33496 -21.667 17.668 -42.667 28 -63c10.333 -20.333 22 -38.833 35 -55.5s29.5 -29 49.5 -37h39zM-17.002 0.00195312v0v0v0v0v0v0v0zM-17.002 0.00195312v0v0v0v0v0v0v0v0v0v0v0zM-17.002 0.00195312v0v0v0v0v0z
M-17.002 0.00195312v0v0v0v0v0zM-17.002 0.00195312v0v0v0zM-17.002 0.00195312v0v0v0zM-17.002 0.00195312v0v0v0zM-17.002 0.00195312v0v0v0v0v0v0v0zM-17.002 0.00195312v0v0v0v0v0v0v0v0v0v0v0zM-17.002 0.00195312v0v0v0v0v0v0v0v0v0v0v0zM-17.002 0.00195312v0v0v0v0
v0v0v0v0v0zM-17.002 0.00195312v0v0v0v0v0v0v0zM-17.002 0.00195312v0v0v0zM-17.002 0.00195312v0v0v0zM-17.002 0.00195312v0v0v0zM-17.002 0.00195312v0v0v0zM-17.002 0.00195312v0v0v0zM-17.002 0.00195312v0v0v0zM-17.002 0.00195312v0v0v0zM-17.002 0.00195312v0v0v0v0
v0v0v0zM-17.002 0.00195312v0v0v0v0v0v0v0v0v0v0v0zM-17.002 0.00195312v0v0v0v0v0zM-17.002 0.00195312v0v0v0v0v0zM-17.002 0.00195312v0v0v0zM-17.002 0.00195312v0v0v0zM-17.002 0.00195312v0v0v0zM-17.002 0.00195312v0v0v0v0v0v0v0zM-17.002 0.00195312v0v0v0v0v0v0v0
v0v0v0v0zM-17.002 0.00195312v0v0v0v0v0v0v0v0v0v0v0zM-17.002 0.00195312v0v0v0v0v0v0v0v0v0zM-17.002 0.00195312v0v0v0v0v0v0v0zM-17.002 0.00195312v0v0v0zM-17.002 0.00195312v0v0v0zM-17.002 0.00195312v0v0v0zM-17.002 0.00195312v0v0v0zM-17.002 0.00195312v0v0v0z
M-17.002 0.00195312v0v0v0zM-17.002 0.00195312v0v0v0z" />
    <glyph glyph-name="khahn" unicode="&#x62e;" horiz-adv-x="490" arabic-form="initial" 
d="M116 469c6.66699 8 14 15.333 22 22l48 -50l-21 -21c-8 8 -16 16.167 -24 24.5s-16.333 16.5 -25 24.5zM445 0l-460 0.00195312c-4.66699 0 -8.33398 1.5 -11.001 4.5s-4 6.5 -4 10.5s1.33301 7.5 4 10.5s6.33398 4.5 11.001 4.5h372
c-15.333 11.333 -29.166 25.166 -41.499 41.499s-24 33.666 -35 51.999s-21.667 36.5 -32 54.5s-20.833 34.167 -31.5 48.5s-22.167 26 -34.5 35s-25.833 13.5 -40.5 13.5c-10.667 0 -21.334 -2.33301 -32.001 -7s-22 -11 -34 -19l-17 25c14 9.33301 27.667 16.833 41 22.5
s27.333 8.5 42 8.5c22.667 0 42.667 -6.83301 60 -20.5s33 -30.667 47 -51s27.5 -42.333 40.5 -66s27 -45.667 42 -66s31.5 -37.333 49.5 -51s39.333 -20.5 64 -20.5v-30zM-4 0.00195312v0v0v0v0v0v0v0zM-4 0.00195312v0v0v0v0v0v0v0v0v0v0v0zM-4 0.00195312v0v0v0v0v0z
M-4 0.00195312v0v0v0v0v0zM-4 0.00195312v0v0v0zM-4 0.00195312v0v0v0zM-4 0.00195312v0v0v0zM-4 0.00195312v0v0v0v0v0v0v0zM-4 0.00195312v0v0v0v0v0v0v0v0v0v0v0zM-4 0.00195312v0v0v0v0v0v0v0v0v0v0v0zM-4 0.00195312v0v0v0v0v0v0v0v0v0zM-4 0.00195312v0v0v0v0v0v0v0z
M-4 0.00195312v0v0v0zM-4 0.00195312v0v0v0zM-4 0.00195312v0v0v0zM-4 0.00195312v0v0v0zM-4 0.00195312v0v0v0zM-4 0.00195312v0v0v0zM-4 0.00195312v0v0v0zM-4 0.00195312v0v0v0v0v0v0v0zM-4 0.00195312v0v0v0v0v0v0v0v0v0v0v0zM-4 0.00195312v0v0v0v0v0zM-4 0.00195312v0
v0v0v0v0zM-4 0.00195312v0v0v0zM-4 0.00195312v0v0v0zM-4 0.00195312v0v0v0zM-4 0.00195312v0v0v0v0v0v0v0zM-4 0.00195312v0v0v0v0v0v0v0v0v0v0v0zM-4 0.00195312v0v0v0v0v0v0v0v0v0v0v0zM-4 0.00195312v0v0v0v0v0v0v0v0v0zM-4 0.00195312v0v0v0v0v0v0v0zM-4 0.00195312v0
v0v0zM-4 0.00195312v0v0v0zM-4 0.00195312v0v0v0zM-4 0.00195312v0v0v0zM-4 0.00195312v0v0v0zM-4 0.00195312v0v0v0zM-4 0.00195312v0v0v0z" />
    <glyph glyph-name="khahm" unicode="&#x62e;" horiz-adv-x="480" arabic-form="medial" 
d="M116 469c6.66699 8 14 15.333 22 22l48 -50l-21 -21c-8 8 -16 16.167 -24 24.5s-16.333 16.5 -25 24.5zM480 30l-0.00195312 -29.998h-495c-4.66699 0 -8.33398 1.5 -11.001 4.5s-4 6.5 -4 10.5s1.33301 7.5 4 10.5s6.33398 4.5 11.001 4.5h372
c-15.333 11.333 -29.166 25.166 -41.499 41.499s-24 33.666 -35 51.999s-21.667 36.5 -32 54.5s-20.833 34.167 -31.5 48.5s-22.167 26 -34.5 35s-25.833 13.5 -40.5 13.5c-10.667 0 -21.334 -2.33301 -32.001 -7s-22 -11 -34 -19l-17 25c14 9.33301 27.667 16.833 41 22.5
s27.333 8.5 42 8.5c22.667 0 42.5 -6.83301 59.5 -20.5s32.5 -30.667 46.5 -51s27.333 -42.333 40 -66s26.334 -45.667 41.001 -66s30.834 -37.333 48.501 -51s38.5 -20.5 62.5 -20.5h40zM37.998 0.00195312v0v0v0v0v0v0v0zM37.998 0.00195312v0v0v0v0v0v0v0v0v0v0v0z
M37.998 0.00195312v0v0v0v0v0zM37.998 0.00195312v0v0v0v0v0zM37.998 0.00195312v0v0v0zM37.998 0.00195312v0v0v0zM37.998 0.00195312v0v0v0zM37.998 0.00195312v0v0v0v0v0v0v0zM37.998 0.00195312v0v0v0v0v0v0v0v0v0v0v0zM37.998 0.00195312v0v0v0v0v0v0v0v0v0v0v0z
M37.998 0.00195312v0v0v0v0v0v0v0v0v0zM37.998 0.00195312v0v0v0v0v0v0v0zM37.998 0.00195312v0v0v0zM37.998 0.00195312v0v0v0zM37.998 0.00195312v0v0v0zM37.998 0.00195312v0v0v0zM37.998 0.00195312v0v0v0zM37.998 0.00195312v0v0v0zM37.998 0.00195312v0v0v0z
M37.998 0.00195312v0v0v0v0v0v0v0zM37.998 0.00195312v0v0v0v0v0v0v0v0v0v0v0zM37.998 0.00195312v0v0v0v0v0zM37.998 0.00195312v0v0v0v0v0zM37.998 0.00195312v0v0v0zM37.998 0.00195312v0v0v0zM37.998 0.00195312v0v0v0zM37.998 0.00195312v0v0v0v0v0v0v0z
M37.998 0.00195312v0v0v0v0v0v0v0v0v0v0v0zM37.998 0.00195312v0v0v0v0v0v0v0v0v0v0v0zM37.998 0.00195312v0v0v0v0v0v0v0v0v0zM37.998 0.00195312v0v0v0v0v0v0v0zM37.998 0.00195312v0v0v0zM37.998 0.00195312v0v0v0zM37.998 0.00195312v0v0v0zM37.998 0.00195312v0v0v0z
M37.998 0.00195312v0v0v0zM37.998 0.00195312v0v0v0zM37.998 0.00195312v0v0v0zM37.998 0.00195312v0v0v0v0v0v0v0zM37.998 0.00195312v0v0v0v0v0v0v0v0v0v0v0zM37.998 0.00195312v0v0v0v0v0zM37.998 0.00195312v0v0v0v0v0zM37.998 0.00195312v0v0v0zM37.998 0.00195312v0v0
v0zM37.998 0.00195312v0v0v0zM37.998 0.00195312v0v0v0v0v0v0v0zM37.998 0.00195312v0v0v0v0v0v0v0v0v0v0v0zM37.998 0.00195312v0v0v0v0v0v0v0v0v0v0v0zM37.998 0.00195312v0v0v0v0v0v0v0v0v0zM37.998 0.00195312v0v0v0v0v0v0v0zM37.998 0.00195312v0v0v0z
M37.998 0.00195312v0v0v0zM37.998 0.00195312v0v0v0zM37.998 0.00195312v0v0v0zM37.998 0.00195312v0v0v0zM37.998 0.00195312v0v0v0zM37.998 0.00195312v0v0v0z" />
    <glyph glyph-name="dalf" unicode="&#x62f;" horiz-adv-x="410" arabic-form="final" 
d="M285 220c0 22 -9.83203 38.333 -29.499 49s-42.834 16 -69.501 16c-13.333 0 -27 -1 -41 -3s-27.667 -5.66699 -41 -11l-6 27c26.667 11.333 57 17 91 17c16.667 0 32.5 -1.83301 47.5 -5.5c15 -3.66895 28.333 -9.33594 40 -17c11.667 -7.66699 21 -17.5 28 -29.5
s10.5 -26.333 10.5 -43v-190h95v-30h-345v30h220v190z" />
    <glyph glyph-name="zalf" unicode="&#x630;" horiz-adv-x="410" arabic-form="final" 
d="M116 499c6.66699 8.00391 14 15.3369 22 22l48 -50l-21 -21c-8 8 -16 16.167 -24 24.5s-16.333 16.5 -25 24.5zM285 220c0 22 -9.83203 38.333 -29.499 49s-42.834 16 -69.501 16c-13.333 0 -27 -1 -41 -3s-27.667 -5.66699 -41 -11l-6 27c26.667 11.333 57 17 91 17
c16.667 0 32.5 -1.83301 47.5 -5.5c15 -3.66895 28.333 -9.33594 40 -17c11.667 -7.66699 21 -17.5 28 -29.5s10.5 -26.333 10.5 -43v-190h95v-30h-345v30h220v190z" />
    <glyph glyph-name="rehf" unicode="&#x631;" horiz-adv-x="250" arabic-form="final" 
d="M115 305l30.0029 -0.000976562v-275h105v-30h-105v-25c0 -45.333 -10.333 -79.166 -31 -101.499s-49.334 -33.5 -86.001 -33.5c-14.667 0 -30.167 1.66699 -46.5 5s-33.5 8 -51.5 14c1.33301 4.66602 2.83301 9.33301 4.5 14s3.5 9.33398 5.5 14.001
c15.333 -5.33301 30.166 -9.5 44.499 -12.5s28.166 -4.5 41.499 -4.5c26.667 0 48.167 8.16699 64.5 24.5s24.5 43.166 24.5 80.499v330z" />
    <glyph glyph-name="zainf" unicode="&#x632;" horiz-adv-x="240" arabic-form="final" 
d="M81 459c6.66699 8 14 15.333 22 22l48 -50l-21 -21c-8 8 -16 16.167 -24 24.5s-16.333 16.5 -25 24.5zM105 305l30.0029 -0.000976562v-275h105v-30h-105v-25c0 -45.333 -10.333 -79.166 -31 -101.499s-49.334 -33.5 -86.001 -33.5c-14.667 0 -30.167 1.66699 -46.5 5
s-33.5 8 -51.5 14c1.33301 4.66602 2.83301 9.33301 4.5 14s3.5 9.33398 5.5 14.001c15.333 -5.33301 30.166 -9.5 44.499 -12.5s28.166 -4.5 41.499 -4.5c26.667 0 48.167 8.16699 64.5 24.5s24.5 43.166 24.5 80.499v330z" />
    <glyph glyph-name="seenf" unicode="&#x633;" horiz-adv-x="980" arabic-form="final" 
d="M405 305l30.002 -0.00195312v-275h180v275h30v-275h180v275h30v-275h125v-30h-545v-75c0 -18.667 -6.5 -34.167 -19.5 -46.5s-28.167 -18.5 -45.5 -18.5h-120c-23.333 0 -45 4.33301 -65 13s-37.333 20.334 -52 35.001s-26.334 32 -35.001 52s-13 41.667 -13 65v130h30
v-130c0 -18.667 3.5 -36.167 10.5 -52.5s16.667 -30.666 29 -42.999s26.666 -22 42.999 -29s33.833 -10.5 52.5 -10.5h120c9.33301 0 17.5 3.33301 24.5 10s10.5 15 10.5 25v380z" />
    <glyph glyph-name="seenn" unicode="&#x633;" horiz-adv-x="660" arabic-form="initial" 
d="M-15 0c-4.66699 0 -8.33398 1.5 -11.001 4.5s-4 6.5 -4 10.5s1.33301 7.5 4 10.5s6.33398 4.5 11.001 4.5h140v275h30v-275h180v275h30v-275h145c9.33301 0 17.5 3.33301 24.5 10s10.5 15 10.5 25v240h30v-240c0 -18.667 -6.5 -34.167 -19.5 -46.5
s-28.167 -18.5 -45.5 -18.5h-525z" />
    <glyph glyph-name="seenm" unicode="&#x633;" horiz-adv-x="700" arabic-form="medial" 
d="M125 305h30v-275h180v275h30v-275h180v275h30v-275h125v-30h-715c-4.66699 0 -8.33398 1.5 -11.001 4.5s-4 6.5 -4 10.5s1.33301 7.5 4 10.5s6.33398 4.5 11.001 4.5h140v275z" />
    <glyph glyph-name="sheenf" unicode="&#x634;" horiz-adv-x="980" arabic-form="final" 
d="M546 439c6.66699 8 14 15.333 22 22l49 -50l-21 -21zM687 461l49 -50l-21 -21l-50 49zM601 539c6.66699 8 14 15.333 22 22l48 -50l-21 -21c-8 8 -16 16.167 -24 24.5s-16.333 16.5 -25 24.5zM405 305l30.002 -0.00195312v-275h180v275h30v-275h180v275h30v-275h125v-30
h-545v-75c0 -18.667 -6.5 -34.167 -19.5 -46.5s-28.167 -18.5 -45.5 -18.5h-120c-23.333 0 -45 4.33301 -65 13s-37.333 20.334 -52 35.001s-26.334 32 -35.001 52s-13 41.667 -13 65v130h30v-130c0 -18.667 3.5 -36.167 10.5 -52.5s16.667 -30.666 29 -42.999
s26.666 -22 42.999 -29s33.833 -10.5 52.5 -10.5h120c9.33301 0 17.5 3.33301 24.5 10s10.5 15 10.5 25v380z" />
    <glyph glyph-name="sheenn" unicode="&#x634;" horiz-adv-x="660" arabic-form="initial" 
d="M256 439c6.66699 8 14 15.333 22 22l49 -50l-21 -21zM397 461l49 -50l-21 -21l-50 49zM311 539c6.66699 8 14 15.333 22 22l48 -50l-21 -21c-8 8 -16 16.167 -24 24.5s-16.333 16.5 -25 24.5zM-15 0c-4.66699 0 -8.33398 1.5 -11.001 4.5s-4 6.5 -4 10.5
s1.33301 7.5 4 10.5s6.33398 4.5 11.001 4.5h140v275h30v-275h180v275h30v-275h145c9.33301 0 17.5 3.33301 24.5 10s10.5 15 10.5 25v240h30v-240c0 -18.667 -6.5 -34.167 -19.5 -46.5s-28.167 -18.5 -45.5 -18.5h-525z" />
    <glyph glyph-name="sheenm" unicode="&#x634;" horiz-adv-x="700" arabic-form="medial" 
d="M256 439c6.66699 8 14 15.333 22 22l49 -50l-21 -21zM397 461l49 -50l-21 -21l-50 49zM311 539c6.66699 8 14 15.333 22 22l48 -50l-21 -21c-8 8 -16 16.167 -24 24.5s-16.333 16.5 -25 24.5zM125 305h30v-275h180v275h30v-275h180v275h30v-275h125v-30h-715
c-4.66699 0 -8.33398 1.5 -11.001 4.5s-4 6.5 -4 10.5s1.33301 7.5 4 10.5s6.33398 4.5 11.001 4.5h140v275z" />
    <glyph glyph-name="sadf" unicode="&#x635;" horiz-adv-x="920" arabic-form="final" 
d="M835 30h85.0029v-30h-505v-75c0 -17.333 -6.66699 -32.5 -20 -45.5s-28.333 -19.5 -45 -19.5h-100c-23.333 0 -45 4.33301 -65 13s-37.333 20.5 -52 35.5s-26.334 32.5 -35.001 52.5s-13 41.333 -13 64v130h30v-130c0 -18.667 3.5 -36.167 10.5 -52.5
s16.667 -30.666 29 -42.999s26.666 -22 42.999 -29s33.833 -10.5 52.5 -10.5h100c9.33301 0 17.5 3.33301 24.5 10s10.5 15 10.5 25v370h30v-181l98 77c30 23.333 55 41.666 75 54.999c20 13.334 37.333 23.167 52 29.5s27.167 10.333 37.5 12s21.166 2.5 32.499 2.5
c17.333 0 33.5 -3.33301 48.5 -10s28.167 -15.667 39.5 -27c11.333 -11.334 20.333 -24.667 27 -40s10 -31.333 10 -48v-135zM805.003 165c0 12.667 -2.5 24.832 -7.5 36.498c-5 11.667 -11.667 21.834 -20 30.5c-8.33301 8.66699 -18.333 15.5 -30 20.5
s-24.167 7.5 -37.5 7.5c-10 0 -19.667 -0.666992 -29 -2s-20.333 -5 -33 -11s-28.167 -15.167 -46.5 -27.5s-41.5 -29.5 -69.5 -51.5c-19.334 -15.333 -38.834 -30.666 -58.5 -45.999c-19.667 -15.333 -39.167 -30.666 -58.5 -45.999v-46h390v135z" />
    <glyph glyph-name="sadn" unicode="&#x635;" horiz-adv-x="620" arabic-form="initial" 
d="M535 65c0 -18.667 -6.5 -34.166 -19.5 -46.499s-28.167 -18.5 -45.5 -18.5h-485c-4.66699 0 -8.33398 1.5 -11.001 4.5s-4 6.5 -4 10.5s1.33301 7.5 4 10.5s6.33398 4.5 11.001 4.5h100v265h30v-181l98 77c30 23.333 55 41.666 75 54.999
c20 13.334 37.333 23.167 52 29.5s27.167 10.333 37.5 12c10.334 1.66699 21.167 2.5 32.5 2.5c17.333 0 33.5 -3.33301 48.5 -10s28.167 -15.667 39.5 -27c11.333 -11.334 20.333 -24.667 27 -40s10 -31.333 10 -48v-100zM505 165.001c0 12.667 -2.5 24.832 -7.5 36.498
c-5 11.667 -11.667 21.834 -20 30.5c-8.33301 8.66699 -18.333 15.5 -30 20.5s-24.167 7.5 -37.5 7.5c-10 0 -19.667 -0.666992 -29 -2s-20.333 -5 -33 -11s-28.167 -15.167 -46.5 -27.5s-41.5 -29.5 -69.5 -51.5c-19.333 -15.333 -38.833 -30.666 -58.5 -45.999
s-39.167 -30.666 -58.5 -45.999v-46h355c9.33301 0 17.5 3.33301 24.5 10s10.5 15 10.5 25v100z" />
    <glyph glyph-name="sadm" unicode="&#x635;" horiz-adv-x="620" arabic-form="medial" 
d="M535 30l85 0.000976562v-30h-635c-4.66699 0 -8.33398 1.5 -11.001 4.5s-4 6.5 -4 10.5s1.33301 7.5 4 10.5s6.33398 4.5 11.001 4.5h100v265h30v-181l98 77c30 23.333 55 41.666 75 54.999c20 13.334 37.333 23.167 52 29.5s27.167 10.333 37.5 12
c10.334 1.66699 21.167 2.5 32.5 2.5c17.333 0 33.5 -3.33301 48.5 -10s28.167 -15.667 39.5 -27c11.333 -11.334 20.333 -24.667 27 -40s10 -31.333 10 -48v-135zM505 165.001c0 12.667 -2.5 24.832 -7.5 36.498c-5 11.667 -11.667 21.834 -20 30.5
c-8.33301 8.66699 -18.333 15.5 -30 20.5s-24.167 7.5 -37.5 7.5c-10 0 -19.667 -0.666992 -29 -2s-20.333 -5 -33 -11s-28.167 -15.167 -46.5 -27.5s-41.5 -29.5 -69.5 -51.5c-19.333 -15.333 -38.833 -30.666 -58.5 -45.999s-39.167 -30.666 -58.5 -45.999v-46h390v135z
" />
    <glyph glyph-name="dadf" unicode="&#x636;" horiz-adv-x="920" arabic-form="final" 
d="M571 459c6.66699 8 14 15.333 22 22l48 -50l-21 -21c-8 8 -16 16.167 -24 24.5s-16.333 16.5 -25 24.5zM835 30h85.0029v-30h-505v-75c0 -17.333 -6.66699 -32.5 -20 -45.5s-28.333 -19.5 -45 -19.5h-100c-23.333 0 -45 4.33301 -65 13s-37.333 20.5 -52 35.5
s-26.334 32.5 -35.001 52.5s-13 41.333 -13 64v130h30v-130c0 -18.667 3.5 -36.167 10.5 -52.5s16.667 -30.666 29 -42.999s26.666 -22 42.999 -29s33.833 -10.5 52.5 -10.5h100c9.33301 0 17.5 3.33301 24.5 10s10.5 15 10.5 25v370h30v-181l98 77
c30 23.333 55 41.666 75 54.999c20 13.334 37.333 23.167 52 29.5s27.167 10.333 37.5 12s21.166 2.5 32.499 2.5c17.333 0 33.5 -3.33301 48.5 -10s28.167 -15.667 39.5 -27c11.333 -11.334 20.333 -24.667 27 -40s10 -31.333 10 -48v-135zM805.003 165
c0 12.667 -2.5 24.832 -7.5 36.498c-5 11.667 -11.667 21.834 -20 30.5c-8.33301 8.66699 -18.333 15.5 -30 20.5s-24.167 7.5 -37.5 7.5c-10 0 -19.667 -0.666992 -29 -2s-20.333 -5 -33 -11s-28.167 -15.167 -46.5 -27.5s-41.5 -29.5 -69.5 -51.5
c-19.334 -15.333 -38.834 -30.666 -58.5 -45.999c-19.667 -15.333 -39.167 -30.666 -58.5 -45.999v-46h390v135z" />
    <glyph glyph-name="dadn" unicode="&#x636;" horiz-adv-x="620" arabic-form="initial" 
d="M311 459c6.66699 8 14 15.333 22 22l48 -50l-21 -21c-8 8 -16 16.167 -24 24.5s-16.333 16.5 -25 24.5zM535 65c0 -18.667 -6.5 -34.166 -19.5 -46.499s-28.167 -18.5 -45.5 -18.5h-485c-4.66699 0 -8.33398 1.5 -11.001 4.5s-4 6.5 -4 10.5s1.33301 7.5 4 10.5
s6.33398 4.5 11.001 4.5h100v265h30v-181l98 77c30 23.333 55 41.666 75 54.999c20 13.334 37.333 23.167 52 29.5s27.167 10.333 37.5 12c10.334 1.66699 21.167 2.5 32.5 2.5c17.333 0 33.5 -3.33301 48.5 -10s28.167 -15.667 39.5 -27
c11.333 -11.334 20.333 -24.667 27 -40s10 -31.333 10 -48v-100zM505 165.001c0 12.667 -2.5 24.832 -7.5 36.498c-5 11.667 -11.667 21.834 -20 30.5c-8.33301 8.66699 -18.333 15.5 -30 20.5s-24.167 7.5 -37.5 7.5c-10 0 -19.667 -0.666992 -29 -2s-20.333 -5 -33 -11
s-28.167 -15.167 -46.5 -27.5s-41.5 -29.5 -69.5 -51.5c-19.333 -15.333 -38.833 -30.666 -58.5 -45.999s-39.167 -30.666 -58.5 -45.999v-46h355c9.33301 0 17.5 3.33301 24.5 10s10.5 15 10.5 25v100z" />
    <glyph glyph-name="dadm" unicode="&#x636;" horiz-adv-x="620" arabic-form="medial" 
d="M311 459c6.66699 8 14 15.333 22 22l48 -50l-21 -21c-8 8 -16 16.167 -24 24.5s-16.333 16.5 -25 24.5zM535 30l85 0.000976562v-30h-635c-4.66699 0 -8.33398 1.5 -11.001 4.5s-4 6.5 -4 10.5s1.33301 7.5 4 10.5s6.33398 4.5 11.001 4.5h100v265h30v-181l98 77
c30 23.333 55 41.666 75 54.999c20 13.334 37.333 23.167 52 29.5s27.167 10.333 37.5 12c10.334 1.66699 21.167 2.5 32.5 2.5c17.333 0 33.5 -3.33301 48.5 -10s28.167 -15.667 39.5 -27c11.333 -11.334 20.333 -24.667 27 -40s10 -31.333 10 -48v-135zM505 165.001
c0 12.667 -2.5 24.832 -7.5 36.498c-5 11.667 -11.667 21.834 -20 30.5c-8.33301 8.66699 -18.333 15.5 -30 20.5s-24.167 7.5 -37.5 7.5c-10 0 -19.667 -0.666992 -29 -2s-20.333 -5 -33 -11s-28.167 -15.167 -46.5 -27.5s-41.5 -29.5 -69.5 -51.5
c-19.333 -15.333 -38.833 -30.666 -58.5 -45.999s-39.167 -30.666 -58.5 -45.999v-46h390v135z" />
    <glyph glyph-name="tahf" unicode="&#x637;" horiz-adv-x="700" arabic-form="final" 
d="M615 30h85v-30h-625c-4.66699 0 -8.33398 1.5 -11.001 4.5s-4 6.5 -4 10.5s1.33301 7.5 4 10.5s6.33398 4.5 11.001 4.5h90v495h30v-413l99 79c28 22 51.833 39.667 71.5 53s36.834 23.333 51.501 30s27.667 11 39 13c11.334 2 22.667 3 33.999 3
c17.333 0 33.5 -3.33301 48.5 -10s28.167 -15.667 39.5 -27c11.333 -11.334 20.333 -24.667 27 -40s10 -31.333 10 -48v-135zM585 165c0 12.667 -2.50098 24.834 -7.50098 36.5c-5 11.667 -11.667 21.834 -20 30.5c-8.33301 8.66699 -18.333 15.5 -30 20.5
s-24.167 7.5 -37.5 7.5c-10 0 -20.167 -1 -30.5 -3s-22.166 -6.16699 -35.499 -12.5s-28.833 -15.5 -46.5 -27.5s-39.5 -28.333 -65.5 -49l-117 -93v-45h390v135z" />
    <glyph glyph-name="tahn" unicode="&#x637;" horiz-adv-x="620" arabic-form="initial" 
d="M535 65c0 -18.667 -6.50098 -34.167 -19.501 -46.5s-28.167 -18.5 -45.5 -18.5h-485c-4.66699 0 -8.33398 1.5 -11.001 4.5s-4 6.5 -4 10.5s1.33301 7.5 4 10.5s6.33398 4.5 11.001 4.5h100v495h30v-413l99 79c28 22 51.833 39.667 71.5 53s36.834 23.333 51.501 30
s27.667 11 39 13c11.334 2 22.667 3 34 3c17.333 0 33.5 -3.33301 48.5 -10s28.167 -15.667 39.5 -27c11.333 -11.334 20.333 -24.667 27 -40s10 -31.333 10 -48v-100zM504.999 165c0 12.667 -2.50098 24.834 -7.50098 36.5c-5 11.667 -11.667 21.834 -20 30.5
c-8.33301 8.66699 -18.333 15.5 -30 20.5s-24.167 7.5 -37.5 7.5c-10 0 -20.167 -1 -30.5 -3s-22.166 -6.16699 -35.499 -12.5s-28.833 -15.5 -46.5 -27.5s-39.5 -28.333 -65.5 -49l-117 -93v-45h355c9.33301 0 17.5 3.33301 24.5 10s10.5 15 10.5 25v100z" />
    <glyph glyph-name="tahm" unicode="&#x637;" horiz-adv-x="620" arabic-form="medial" 
d="M535 30h84.999v-30h-635c-4.66699 0 -8.33398 1.5 -11.001 4.5s-4 6.5 -4 10.5s1.33301 7.5 4 10.5s6.33398 4.5 11.001 4.5h100v495h30v-413l99 79c28 22 51.833 39.667 71.5 53s36.834 23.333 51.501 30s27.667 11 39 13c11.334 2 22.667 3 34 3
c17.333 0 33.5 -3.33301 48.5 -10s28.167 -15.667 39.5 -27c11.333 -11.334 20.333 -24.667 27 -40s10 -31.333 10 -48v-135zM504.999 165c0 12.667 -2.50098 24.834 -7.50098 36.5c-5 11.667 -11.667 21.834 -20 30.5c-8.33301 8.66699 -18.333 15.5 -30 20.5
s-24.167 7.5 -37.5 7.5c-10 0 -20.167 -1 -30.5 -3s-22.166 -6.16699 -35.499 -12.5s-28.833 -15.5 -46.5 -27.5s-39.5 -28.333 -65.5 -49l-117 -93v-45h390v135z" />
    <glyph glyph-name="zahf" unicode="&#x638;" horiz-adv-x="700" arabic-form="final" 
d="M391 459c6.66699 8 14 15.333 22 22l48 -50l-21 -21c-8 8 -16 16.167 -24 24.5s-16.333 16.5 -25 24.5zM615 30h85v-30h-625c-4.66699 0 -8.33398 1.5 -11.001 4.5s-4 6.5 -4 10.5s1.33301 7.5 4 10.5s6.33398 4.5 11.001 4.5h90v495h30v-413l99 79
c28 22 51.833 39.667 71.5 53s36.834 23.333 51.501 30s27.667 11 39 13c11.334 2 22.667 3 33.999 3c17.333 0 33.5 -3.33301 48.5 -10s28.167 -15.667 39.5 -27c11.333 -11.334 20.333 -24.667 27 -40s10 -31.333 10 -48v-135zM585 165
c0 12.667 -2.50098 24.834 -7.50098 36.5c-5 11.667 -11.667 21.834 -20 30.5c-8.33301 8.66699 -18.333 15.5 -30 20.5s-24.167 7.5 -37.5 7.5c-10 0 -20.167 -1 -30.5 -3s-22.166 -6.16699 -35.499 -12.5s-28.833 -15.5 -46.5 -27.5s-39.5 -28.333 -65.5 -49l-117 -93v-45
h390v135z" />
    </font>
</defs>
</svg>
